<svg width="22" height="22" viewBox="0 0 22 22" fill="none" xmlns="http://www.w3.org/2000/svg">
<path d="M18.0625 11.0001L10.279 3.00033C10.2149 2.93586 10.1643 2.85932 10.13 2.77514C10.0956 2.69096 10.0784 2.60081 10.0791 2.50991C10.0799 2.41901 10.0987 2.32916 10.1344 2.24557C10.1701 2.16197 10.222 2.08628 10.2872 2.02289C10.3523 1.95949 10.4294 1.90965 10.5139 1.87624C10.5985 1.84283 10.6888 1.82652 10.7797 1.82825C10.8706 1.82998 10.9602 1.84972 11.0434 1.88632C11.1266 1.92292 11.2018 1.97567 11.2645 2.04149L19.5145 10.5207C19.6393 10.649 19.7092 10.821 19.7092 11.0001C19.7092 11.1791 19.6393 11.3511 19.5145 11.4795L11.2645 19.9587C11.2018 20.0245 11.1266 20.0772 11.0434 20.1138C10.9602 20.1504 10.8706 20.1702 10.7797 20.1719C10.6888 20.1736 10.5985 20.1573 10.5139 20.1239C10.4294 20.0905 10.3523 20.0407 10.2872 19.9773C10.222 19.9139 10.1701 19.8382 10.1344 19.7546C10.0987 19.671 10.0799 19.5811 10.0791 19.4902C10.0784 19.3993 10.0956 19.3092 10.13 19.225C10.1643 19.1408 10.2149 19.0643 10.279 18.9998L18.0625 11.0001Z" fill="black"/>
</svg>
