<svg width="16" height="15" viewBox="0 0 16 15" fill="none" xmlns="http://www.w3.org/2000/svg">
<path d="M9.59478 7.28052L14.8525 2.26689C15.0827 2.04683 15.2121 1.74835 15.2121 1.43713C15.2121 1.12591 15.0827 0.827437 14.8525 0.60737C14.6222 0.387304 14.31 0.263672 13.9843 0.263672C13.6587 0.263672 13.3465 0.387304 13.1162 0.60737L7.87075 5.63269L2.62528 0.60737C2.39504 0.387304 2.08276 0.263672 1.75715 0.263672C1.43154 0.263672 1.11926 0.387304 0.889022 0.60737C0.658779 0.827437 0.52943 1.12591 0.52943 1.43713C0.52943 1.74835 0.658779 2.04683 0.889022 2.26689L6.14671 7.28052L0.889022 12.2942C0.774418 12.4028 0.683455 12.5321 0.62138 12.6745C0.559304 12.8169 0.527344 12.9696 0.527344 13.1239C0.527344 13.2782 0.559304 13.4309 0.62138 13.5734C0.683455 13.7158 0.774418 13.845 0.889022 13.9537C1.00269 14.0632 1.13792 14.1502 1.28692 14.2095C1.43592 14.2688 1.59574 14.2994 1.75715 14.2994C1.91857 14.2994 2.07838 14.2688 2.22738 14.2095C2.37638 14.1502 2.51162 14.0632 2.62528 13.9537L7.87075 8.92836L13.1162 13.9537C13.2299 14.0632 13.3651 14.1502 13.5141 14.2095C13.6631 14.2688 13.8229 14.2994 13.9843 14.2994C14.1458 14.2994 14.3056 14.2688 14.4546 14.2095C14.6036 14.1502 14.7388 14.0632 14.8525 13.9537C14.9671 13.845 15.058 13.7158 15.1201 13.5734C15.1822 13.4309 15.2142 13.2782 15.2142 13.1239C15.2142 12.9696 15.1822 12.8169 15.1201 12.6745C15.058 12.5321 14.9671 12.4028 14.8525 12.2942L9.59478 7.28052Z" fill="black"/>
</svg>
