<svg width="48" height="48" viewBox="0 0 48 48" fill="none" xmlns="http://www.w3.org/2000/svg">
<circle cx="24" cy="24" r="24" fill="#D75378" fill-opacity="0.8"/>
<path d="M17.75 35.25C17.0625 35.25 16.4742 35.0054 15.985 34.5163C15.4958 34.0271 15.2508 33.4383 15.25 32.75V16.5H14V14H20.25V12.75H27.75V14H34V16.5H32.75V32.75C32.75 33.4375 32.5054 34.0263 32.0163 34.5163C31.5271 35.0063 30.9383 35.2508 30.25 35.25H17.75ZM30.25 16.5H17.75V32.75H30.25V16.5ZM20.25 30.25H22.75V19H20.25V30.25ZM25.25 30.25H27.75V19H25.25V30.25Z" fill="white"/>
</svg>
