<svg width="18" height="19" viewBox="0 0 18 19" fill="none" xmlns="http://www.w3.org/2000/svg">
<path d="M2.25 13.4374V16.2499H5.0625L13.3575 7.95488L10.545 5.14238L2.25 13.4374ZM15.5325 5.77988C15.602 5.7105 15.6572 5.62808 15.6948 5.53735C15.7325 5.44662 15.7518 5.34936 15.7518 5.25113C15.7518 5.1529 15.7325 5.05564 15.6948 4.96491C15.6572 4.87418 15.602 4.79177 15.5325 4.72238L13.7775 2.96738C13.7081 2.89785 13.6257 2.84269 13.535 2.80506C13.4442 2.76742 13.347 2.74805 13.2488 2.74805C13.1505 2.74805 13.0533 2.76742 12.9625 2.80506C12.8718 2.84269 12.7894 2.89785 12.72 2.96738L11.3475 4.33988L14.16 7.15238L15.5325 5.77988Z" fill="white"/>
</svg>
