<svg width="606" height="397" viewBox="0 0 606 397" fill="none" xmlns="http://www.w3.org/2000/svg">
<path d="M595.362 93.6024L585.887 139.492L579.788 133.542L569.412 140.948L561.481 131.097L543.7 144.027L528.502 118.612L511.552 128.542L504.829 119.275L483.305 131.403L476.83 117.533L491.919 44.4551L572.808 61.1576L595.362 93.6024Z" fill="#EBEBEB"/>
<path d="M572.808 61.1572L595.362 93.602L567.303 87.81L572.808 61.1572Z" fill="#DBDBDB"/>
<path d="M583.867 148.66L569.976 215.985L461.019 193.491L474.81 126.71L481.285 140.571L502.819 128.443L509.532 137.71L526.492 127.789L541.68 153.204L559.472 140.274L567.392 150.115L577.778 142.719L583.867 148.66Z" fill="#EBEBEB"/>
<path d="M427.92 140.769L316.883 147.64L308.062 5.10879L390.515 0L420.782 25.3954L427.92 140.769Z" fill="#EBEBEB"/>
<path d="M390.515 0L420.782 25.3954L392.188 27.1677L390.515 0Z" fill="#DBDBDB"/>
<path d="M359.773 95.9091L359.338 92.6914C358.219 86.0282 360.041 78.5729 365.833 70.781C371.06 63.8505 373.892 58.9001 373.575 53.2765C373.219 46.94 369.011 42.9401 361.179 43.2569C356.704 43.4894 352.404 45.0778 348.853 47.8113L345.437 40.158C349.397 36.9403 356.328 34.5641 362.912 34.2176C377.199 33.4255 384.149 41.8807 384.694 51.3162C385.169 59.7615 380.793 66.1079 375.228 73.5235C370.12 80.2857 368.446 85.8599 369.169 92.1666L369.476 95.3943L359.773 95.9091ZM358.011 113.443C357.754 108.849 360.674 105.444 365.021 105.206C369.367 104.968 372.535 108.018 372.793 112.622C373.03 116.968 370.367 120.473 365.773 120.73C361.387 120.978 358.219 117.79 357.971 113.443H358.011Z" fill="#DBDBDB"/>
<path d="M82.0376 71.6618L70.8696 66.6025L69.3152 70.0183C69.0857 70.5064 68.7275 70.9229 68.2793 71.2229C67.831 71.5229 67.3095 71.6952 66.7707 71.7212C66.157 71.7413 65.5452 71.8009 64.9391 71.8994C64.407 71.9784 63.8635 71.9115 63.3665 71.7057C62.8696 71.5 62.4378 71.1631 62.1173 70.7311L59.9293 67.6718L49.9592 74.8202L52.1473 77.8795C52.4516 78.3211 52.6307 78.8368 52.6656 79.3719C52.7005 79.9071 52.5898 80.4417 52.3453 80.919C52.063 81.4635 51.8086 82.0219 51.5829 82.5922C51.3868 83.0951 51.0574 83.535 50.63 83.8647C50.2026 84.1944 49.6935 84.4014 49.1573 84.4635L45.4247 84.8298L46.6227 97.0374L50.3751 96.6612C50.9132 96.6182 51.4529 96.7227 51.9361 96.9634C52.4193 97.2042 52.8278 97.572 53.1176 98.0275C53.276 98.2849 53.4443 98.5325 53.6225 98.78C53.8007 99.0275 53.9789 99.2651 54.167 99.5027C54.5087 99.9184 54.7284 100.421 54.8018 100.954C54.8752 101.487 54.7995 102.03 54.5829 102.522L53.0186 105.968L64.1965 111.037L65.7509 107.602C65.9826 107.114 66.3428 106.698 66.7929 106.4C67.243 106.102 67.7659 105.932 68.3053 105.909C68.9121 105.883 69.5171 105.824 70.1172 105.73C70.6492 105.651 71.1927 105.718 71.6897 105.924C72.1866 106.13 72.6184 106.467 72.9389 106.899L75.1269 109.958L85.1069 102.81L82.9188 99.7502C82.6051 99.3127 82.4203 98.796 82.3853 98.2588C82.3503 97.7215 82.4665 97.1853 82.7208 96.7107C82.9966 96.1693 83.2444 95.6142 83.4634 95.0474C83.6538 94.5408 83.9816 94.0974 84.4101 93.7668C84.8386 93.4363 85.3507 93.2317 85.889 93.1761L89.6414 92.7999L88.4335 80.5923L84.6811 80.9586C84.1464 81.0056 83.609 80.9038 83.1285 80.6644C82.648 80.425 82.2431 80.0574 81.9584 79.6022C81.7901 79.3448 81.6218 79.0973 81.4436 78.8498C81.2654 78.6022 81.0872 78.3547 80.8991 78.127C80.5597 77.7062 80.3416 77.2007 80.2684 76.6651C80.1951 76.1295 80.2694 75.584 80.4832 75.0875L82.0376 71.6618ZM75.7012 82.9586C76.859 84.5743 77.5116 86.497 77.5766 88.4836C77.6416 90.4702 77.1159 92.4315 76.0662 94.1194C75.0164 95.8073 73.4897 97.1459 71.6791 97.966C69.8685 98.7862 67.8553 99.051 65.8942 98.7269C63.9332 98.4028 62.1122 97.5044 60.6617 96.1454C59.2112 94.7863 58.1964 93.0277 57.7454 91.0918C57.2945 89.1559 57.4278 87.1298 58.1285 85.2697C58.8291 83.4096 60.0657 81.7991 61.6817 80.6418C63.8482 79.0903 66.5421 78.4628 69.1712 78.8973C71.8002 79.3318 74.149 80.7926 75.7012 82.9586Z" fill="#EBEBEB"/>
<path d="M586.877 233.638L579.431 237.935L580.748 240.212C580.945 240.539 581.043 240.915 581.03 241.296C581.018 241.677 580.896 242.047 580.679 242.36C580.451 242.717 580.233 243.083 580.035 243.469C579.873 243.811 579.616 244.098 579.294 244.299C578.973 244.499 578.602 244.602 578.223 244.598H575.61V253.202H578.243C578.621 253.197 578.993 253.301 579.314 253.501C579.635 253.701 579.892 253.989 580.055 254.33C580.253 254.716 580.471 255.083 580.699 255.439C580.916 255.753 581.038 256.122 581.05 256.503C581.062 256.884 580.964 257.261 580.768 257.588L579.451 259.865L586.896 264.162L588.223 261.875C588.415 261.55 588.694 261.286 589.028 261.111C589.362 260.936 589.738 260.858 590.114 260.885H591.382C591.757 260.859 592.133 260.938 592.467 261.112C592.801 261.287 593.08 261.551 593.273 261.875L594.599 264.172L602.035 259.875L600.718 257.588C600.531 257.259 600.439 256.885 600.453 256.507C600.467 256.129 600.586 255.763 600.797 255.449C601.025 255.093 601.243 254.716 601.441 254.34C601.603 253.999 601.86 253.711 602.182 253.511C602.503 253.311 602.874 253.207 603.252 253.211H605.886V244.608H603.233C602.854 244.612 602.483 244.508 602.162 244.308C601.841 244.108 601.584 243.821 601.421 243.479C601.223 243.103 601.005 242.727 600.777 242.37C600.566 242.056 600.447 241.69 600.433 241.312C600.419 240.934 600.511 240.56 600.698 240.232L602.015 237.945L594.579 233.648L593.253 235.905C593.061 236.229 592.782 236.494 592.448 236.669C592.114 236.844 591.738 236.922 591.362 236.895H590.728H590.094C589.717 236.92 589.34 236.841 589.005 236.667C588.67 236.492 588.389 236.229 588.193 235.905L586.877 233.638ZM590.728 241.855C592.123 241.853 593.487 242.265 594.648 243.039C595.809 243.813 596.714 244.914 597.249 246.202C597.784 247.491 597.924 248.909 597.652 250.277C597.381 251.646 596.709 252.903 595.723 253.889C594.736 254.876 593.479 255.547 592.111 255.819C590.742 256.091 589.324 255.95 588.036 255.416C586.747 254.881 585.646 253.976 584.873 252.815C584.099 251.654 583.687 250.29 583.689 248.895C583.687 247.969 583.868 247.053 584.222 246.198C584.575 245.343 585.093 244.565 585.747 243.911C586.401 243.256 587.177 242.737 588.032 242.382C588.887 242.028 589.803 241.845 590.728 241.845V241.855Z" fill="#EBEBEB"/>
<path d="M104.631 35.0783L97.8095 40.3059L99.3837 42.3949C99.6185 42.6926 99.7629 43.0514 99.7998 43.4288C99.8366 43.8061 99.7644 44.1861 99.5916 44.5236C99.4022 44.909 99.2368 45.3058 99.0966 45.7117C98.9745 46.0693 98.7551 46.3857 98.463 46.6253C98.1709 46.8649 97.8177 47.0183 97.4431 47.0681L94.8293 47.4047L95.9382 55.9292L98.552 55.5926C98.9325 55.5396 99.3202 55.5951 99.6706 55.7527C100.021 55.9104 100.32 56.1637 100.532 56.4837C100.771 56.8281 101.028 57.1587 101.304 57.4738C101.56 57.7543 101.729 58.1021 101.792 58.4759C101.855 58.8498 101.81 59.2339 101.661 59.5826L100.671 62.0182L108.591 65.3151L109.581 62.8796C109.729 62.5302 109.971 62.229 110.281 62.0103C110.591 61.7916 110.955 61.664 111.334 61.642L111.968 61.5727L112.591 61.4737C112.958 61.4046 113.336 61.4373 113.685 61.5682C114.034 61.6992 114.341 61.9233 114.571 62.2162L116.185 64.3251L123.007 59.0975L121.413 57.0084C121.183 56.7066 121.041 56.3466 121.004 55.9687C120.968 55.5909 121.037 55.2104 121.205 54.8699C121.393 54.487 121.558 54.0937 121.7 53.6917C121.822 53.3341 122.041 53.0177 122.334 52.778C122.626 52.5384 122.979 52.3851 123.353 52.3353L125.967 51.9986L124.858 43.4741L122.245 43.8107C121.865 43.8648 121.478 43.8108 121.128 43.6549C120.777 43.4991 120.478 43.2477 120.264 42.9296C120.017 42.5731 119.759 42.2365 119.482 41.9395C119.252 41.653 119.102 41.3097 119.05 40.9456C118.998 40.5815 119.044 40.2101 119.185 39.8702L120.175 37.4346L112.255 34.1377L111.265 36.5733C111.115 36.9213 110.873 37.2212 110.563 37.4397C110.254 37.6582 109.89 37.7866 109.512 37.8109L108.879 37.8703L108.294 37.8901C107.928 37.9591 107.55 37.9264 107.201 37.7955C106.851 37.6646 106.545 37.4405 106.314 37.1475L104.631 35.0783ZM109.512 42.7315C110.891 42.5543 112.292 42.7894 113.538 43.4073C114.783 44.0252 115.818 44.9981 116.512 46.2035C117.205 47.4088 117.526 48.7924 117.434 50.1799C117.342 51.5673 116.841 52.8964 115.994 53.9995C115.147 55.1025 113.993 55.9302 112.677 56.378C111.36 56.8257 109.941 56.8736 108.597 56.5156C107.253 56.1575 106.046 55.4096 105.127 54.366C104.208 53.3225 103.619 52.0302 103.433 50.6521C103.309 49.7325 103.369 48.7975 103.608 47.9009C103.847 47.0042 104.26 46.1637 104.825 45.4276C105.39 44.6915 106.095 44.0743 106.9 43.6116C107.704 43.149 108.592 42.8499 109.512 42.7315Z" fill="#EBEBEB"/>
<path d="M53.6621 258.459C54.0341 248.888 53.9019 239.304 53.2661 229.747C51.8495 210.012 48.8397 190.424 44.2663 171.174C41.7515 160.342 38.6625 149.689 35.4348 139.046C35.3358 138.719 34.821 138.808 34.9101 139.145C44.8801 176.669 53.0582 215.381 52.4938 254.39C52.3354 265.281 51.0681 276.023 50.0384 286.874C50.0384 287.161 50.484 287.28 50.5533 286.983C52.6027 277.666 53.276 267.944 53.6621 258.459Z" fill="#EBEBEB"/>
<path d="M34.91 139.115C34.91 139.115 19.8213 177.431 23.1974 186.401C26.5736 195.371 33.5437 197.292 33.5437 197.292C33.5437 197.292 24.3063 210.48 30.7616 222.846C37.2169 235.212 51.5532 234.628 52.5432 248.647C52.5135 248.717 53.3056 190.094 34.91 139.115Z" fill="#EBEBEB"/>
<path d="M50.8701 224.51C50.8945 224.446 50.8945 224.375 50.8701 224.312C48.8898 198.153 43.9813 172.299 36.2368 147.234C36.2368 147.165 36.0883 147.185 36.1081 147.234C39.0982 158.455 41.7384 169.722 44.0287 181.035C42.0002 179.114 39.522 177.732 36.821 177.016C36.821 177.016 36.7418 177.075 36.821 177.095C39.6585 178.135 42.2097 179.831 44.2663 182.045C44.702 184.273 45.1376 186.491 45.5435 188.718C42.1674 184.946 37.4942 183.075 32.8112 181.293C32.8006 181.297 32.7916 181.305 32.7852 181.315C32.7789 181.324 32.7755 181.336 32.7755 181.347C32.7755 181.359 32.7789 181.37 32.7852 181.38C32.7916 181.39 32.8006 181.397 32.8112 181.402C37.6923 183.382 42.5436 185.936 45.8505 190.144C46.999 196.5 48.0088 202.88 48.8801 209.282C46.4424 206.728 43.3161 204.937 39.8803 204.124C39.7714 204.124 39.712 204.253 39.8209 204.282C43.3503 205.322 46.5013 207.365 48.89 210.163H48.9494C49.2464 212.408 49.5302 214.662 49.8009 216.926C47.915 215.33 45.7858 214.046 43.4941 213.124C43.4347 213.124 43.3951 213.193 43.4941 213.213C45.8328 214.226 47.9745 215.644 49.8207 217.401C49.8207 217.401 49.8702 217.401 49.8999 217.401C50.1474 219.549 50.3949 221.698 50.6127 223.846C47.2129 219.736 42.8007 216.583 37.8111 214.698C37.79 214.698 37.7699 214.706 37.7551 214.721C37.7402 214.736 37.7319 214.756 37.7319 214.777C37.7319 214.798 37.7402 214.818 37.7551 214.833C37.7699 214.848 37.79 214.856 37.8111 214.856C42.7381 217.028 47.0659 220.361 50.4246 224.569C50.4616 224.615 50.5115 224.649 50.5679 224.667C50.6243 224.685 50.6848 224.685 50.7414 224.668C51.0682 227.965 51.3652 231.262 51.6028 234.569C51.6028 234.618 51.682 234.618 51.682 234.569C51.4246 231.249 51.154 227.896 50.8701 224.51Z" fill="white"/>
<path d="M38.7417 173.244C36.009 171.543 32.8874 170.568 29.6726 170.412C29.6568 170.412 29.6417 170.418 29.6306 170.429C29.6194 170.441 29.6132 170.456 29.6132 170.472C29.6132 170.487 29.6194 170.502 29.6306 170.514C29.6417 170.525 29.6568 170.531 29.6726 170.531C32.7807 171.12 35.797 172.119 38.6426 173.501C38.7615 173.531 38.8506 173.323 38.7417 173.244Z" fill="white"/>
<path d="M40.5732 213.807C38.473 212.602 36.1604 211.812 33.7615 211.48C33.6823 211.48 33.6724 211.589 33.7615 211.609C36.104 212.079 38.3698 212.872 40.494 213.966C40.5831 214.015 40.6624 213.857 40.5732 213.807Z" fill="white"/>
<path d="M93.3443 187.065C86.9612 191.477 81.0988 196.599 75.8695 202.332C70.4766 208.402 66.3168 215.464 63.6223 223.123C57.8876 239.081 54.804 255.871 54.4938 272.825C54.3015 282.214 55.2019 291.594 57.1769 300.775C57.1929 300.842 57.234 300.9 57.2916 300.937C57.3492 300.974 57.419 300.988 57.4864 300.975C57.5538 300.963 57.6138 300.924 57.6539 300.869C57.6939 300.813 57.711 300.744 57.7016 300.676C55.244 284.475 55.3376 267.988 57.9788 251.816C60.5728 235.975 64.642 218.727 74.721 205.847C80.206 198.827 87.0474 193.312 93.8097 187.609C94.1661 187.293 93.7106 186.807 93.3443 187.065Z" fill="#EBEBEB"/>
<path d="M56.7115 261.401C60.345 255.524 64.6148 250.065 69.4439 245.124C76.9982 237.57 83.3545 232.203 84.3445 227.213C85.3346 222.223 76.7804 218.54 76.7804 218.54C76.7804 218.54 87.2257 220.422 90.087 216.035C92.9483 211.649 94.3245 186.244 94.3245 186.244C94.3245 186.244 75.3151 199.818 66.4539 218.847C57.5927 237.877 56.7115 261.401 56.7115 261.401Z" fill="#EBEBEB"/>
<path d="M87.5028 210.075C86.2511 209.889 84.9822 209.846 83.7207 209.946C83.5722 209.946 83.5821 210.204 83.7207 210.214C84.9682 210.214 86.2256 210.154 87.4731 210.214C87.4874 210.21 87.5003 210.203 87.5105 210.192C87.5207 210.181 87.5278 210.168 87.5309 210.154C87.5339 210.139 87.533 210.124 87.528 210.11C87.5231 210.097 87.5143 210.084 87.5028 210.075Z" fill="white"/>
<path d="M73.8497 234.718C71.8423 234.759 69.858 235.154 67.9884 235.886C67.9884 235.886 67.9884 235.985 67.9884 235.975C69.9686 235.51 71.8794 235.322 73.8397 234.985C73.8653 234.974 73.8873 234.956 73.903 234.933C73.9187 234.91 73.9276 234.882 73.9286 234.855C73.9296 234.827 73.9228 234.799 73.9088 234.775C73.8949 234.751 73.8744 234.731 73.8497 234.718Z" fill="white"/>
<path d="M69.7507 226.203C68.9173 226.196 68.0852 226.269 67.2656 226.42C67.2505 226.426 67.2374 226.436 67.2282 226.449C67.2189 226.463 67.214 226.478 67.214 226.495C67.214 226.511 67.2189 226.527 67.2282 226.54C67.2374 226.553 67.2505 226.563 67.2656 226.569C68.0955 226.617 68.9282 226.58 69.7507 226.46C69.7849 226.46 69.8176 226.446 69.8417 226.422C69.8659 226.398 69.8794 226.365 69.8794 226.331C69.8794 226.297 69.8659 226.264 69.8417 226.24C69.8176 226.216 69.7849 226.203 69.7507 226.203Z" fill="white"/>
<path d="M0.98018 214.015C7.16735 216.113 13.0963 218.906 18.653 222.342C24.4186 226.005 29.4185 230.753 33.3754 236.321C41.7009 247.91 48.0753 260.783 52.2463 274.429C54.5724 281.985 56.0079 289.787 56.5234 297.676C56.5126 297.727 56.4845 297.773 56.444 297.806C56.4034 297.839 56.3528 297.857 56.3006 297.857C56.2484 297.857 56.1978 297.839 56.1573 297.806C56.1167 297.773 56.0887 297.727 56.0779 297.676C54.3302 283.998 50.4481 270.678 44.5732 258.202C38.801 245.975 31.524 232.965 20.3955 224.866C14.3363 220.46 7.52458 217.569 0.732661 214.52C0.376234 214.401 0.623753 213.896 0.98018 214.015Z" fill="#EBEBEB"/>
<path d="M47.8107 265.706C43.5093 261.793 38.7914 258.363 33.7417 255.479C25.8806 251.113 19.4946 248.241 17.5441 244.43C15.5937 240.618 21.6628 235.668 21.6628 235.668C21.6628 235.668 13.6432 239.628 10.3166 236.707C6.98993 233.786 0 213.589 0 213.589C0 213.589 18.5243 220.173 30.0785 233.529C41.6327 246.885 47.8107 265.706 47.8107 265.706Z" fill="#EBEBEB"/>
<path d="M32.435 247.113C30.6137 246.986 28.785 247.211 27.049 247.776C27.049 247.776 27.049 247.865 27.049 247.855C28.8201 247.551 30.6095 247.366 32.4053 247.301C32.534 247.301 32.5637 247.122 32.435 247.113Z" fill="white"/>
<path d="M16.2768 225.925C15.446 225.857 14.6098 225.904 13.7917 226.063C13.7026 226.063 13.7323 226.222 13.7917 226.212C14.6135 226.123 15.4154 226.152 16.2273 226.133C16.2525 226.134 16.2773 226.126 16.2974 226.111C16.3175 226.095 16.3317 226.074 16.3376 226.049C16.3434 226.024 16.3405 225.999 16.3295 225.976C16.3184 225.953 16.2998 225.935 16.2768 225.925Z" fill="white"/>
<path d="M71.7011 323.21H29.8903L35.8505 279.538L37.3752 268.34H64.2162L65.7409 279.538L71.7011 323.21Z" fill="#DBDBDB"/>
<path d="M65.7409 279.538H35.8506L37.3753 268.34H64.2162L65.7409 279.538Z" fill="#C7C7C7"/>
<path d="M68.0478 264.458H33.5338V273.943H68.0478V264.458Z" fill="#DBDBDB"/>
<path d="M3.30688 323.209L78.5625 322.971L153.818 322.882L304.329 322.714L454.84 322.882L530.096 322.971L605.352 323.209L530.096 323.456L454.84 323.536L304.329 323.704L153.818 323.536L78.5625 323.447L3.30688 323.209Z" fill="#263238"/>
<path d="M306.309 397C463.1 397 590.203 383.073 590.203 365.892C590.203 348.712 463.1 334.784 306.309 334.784C149.519 334.784 22.4153 348.712 22.4153 365.892C22.4153 383.073 149.519 397 306.309 397Z" fill="#EBEBEB"/>
<path d="M240.222 360.744C237.915 361.526 171.768 361.734 169.233 360.169C168.243 359.575 167.679 349.942 167.253 338.279C167.164 335.764 167.095 333.16 167.036 330.527L161.758 295.24L205.985 294.953L210.153 330.249L209.985 338.011C209.985 338.011 235.351 349.249 237.945 351.288C240.539 353.328 242.529 359.961 240.222 360.744Z" fill="#EB9481"/>
<path d="M240.222 360.744C237.915 361.526 171.768 361.734 169.233 360.17C168.065 359.437 167.432 345.368 167.075 330.527L210.104 330.25L209.935 338.012C209.935 338.012 235.301 349.25 237.895 351.289C240.489 353.329 242.529 359.962 240.222 360.744Z" fill="white"/>
<path d="M240.222 360.744C237.915 361.526 171.768 361.734 169.233 360.17C168.243 359.576 167.679 349.942 167.253 338.279L209.896 338.012C209.896 338.012 235.261 349.249 237.855 351.289C240.449 353.328 242.529 359.962 240.222 360.744Z" fill="#A6A6A6"/>
<path d="M239.261 358.1C228.173 357.862 183.421 357.971 172.441 358.585C172.352 358.585 172.352 358.644 172.441 358.654C183.431 359.12 228.182 358.654 239.261 358.278C239.499 358.268 239.499 358.1 239.261 358.1Z" fill="#263238"/>
<path d="M233.628 348.922C232.395 348.894 231.169 349.123 230.029 349.593C228.889 350.064 227.859 350.766 227.004 351.655C225.446 353.242 224.566 355.372 224.549 357.595C224.549 357.665 224.668 357.665 224.678 357.595C225.046 355.405 226.112 353.392 227.718 351.857C229.324 350.323 231.383 349.349 233.588 349.081C233.609 349.086 233.632 349.083 233.65 349.071C233.669 349.06 233.682 349.042 233.687 349.021C233.693 349 233.689 348.978 233.678 348.959C233.667 348.941 233.649 348.927 233.628 348.922Z" fill="#263238"/>
<path d="M214.232 339.101C209.797 339.051 204.658 340.635 201.906 344.279C201.807 344.417 202.005 344.566 202.134 344.497C206.009 342.451 210.091 340.825 214.311 339.645C214.377 339.627 214.433 339.586 214.47 339.53C214.507 339.473 214.522 339.405 214.513 339.338C214.503 339.271 214.469 339.21 214.417 339.166C214.366 339.123 214.3 339.099 214.232 339.101Z" fill="#263238"/>
<path d="M217.678 340.417C213.232 340.417 208.094 341.962 205.351 345.595C205.242 345.744 205.441 345.892 205.579 345.823C209.449 343.77 213.528 342.14 217.747 340.962C217.812 340.944 217.867 340.904 217.904 340.848C217.941 340.792 217.957 340.725 217.949 340.659C217.94 340.593 217.908 340.532 217.859 340.487C217.809 340.443 217.745 340.418 217.678 340.417Z" fill="#263238"/>
<path d="M221.103 341.744C216.668 341.744 211.529 343.279 208.777 346.922C208.678 347.061 208.876 347.209 209.005 347.14C212.88 345.095 216.962 343.468 221.183 342.289C221.248 342.271 221.304 342.23 221.341 342.173C221.378 342.117 221.394 342.048 221.384 341.981C221.374 341.915 221.34 341.853 221.289 341.81C221.237 341.766 221.171 341.743 221.103 341.744Z" fill="#263238"/>
<path d="M224.539 343.07C220.094 343.021 214.955 344.605 212.213 348.249C212.104 348.387 212.312 348.536 212.44 348.466C216.315 346.419 220.397 344.793 224.618 343.615C224.683 343.597 224.74 343.556 224.777 343.499C224.814 343.443 224.829 343.375 224.819 343.308C224.81 343.241 224.776 343.18 224.724 343.136C224.672 343.092 224.607 343.069 224.539 343.07Z" fill="#263238"/>
<path d="M175.233 348.041C170.283 348.041 170.283 355.813 175.233 355.783C180.184 355.754 180.223 348.011 175.233 348.041Z" fill="#263238"/>
<path d="M218.995 327.239C216.747 325.378 213.916 327.239 212.539 329.15C210.249 332.528 208.883 336.447 208.579 340.516C208.579 340.605 208.648 340.645 208.718 340.645C208.735 340.729 208.773 340.807 208.827 340.874C208.881 340.94 208.95 340.992 209.029 341.026C209.107 341.06 209.193 341.075 209.278 341.069C209.364 341.063 209.447 341.036 209.52 340.992C212.668 338.804 216.312 336.843 218.698 333.744C220.054 331.942 221.163 328.972 218.995 327.239ZM213.589 336.685C212.064 337.804 210.49 338.843 209.005 340.021C209.797 337.804 210.48 335.566 211.49 333.427C211.956 332.402 212.492 331.41 213.094 330.457C214.084 328.982 218.401 325.259 218.856 330.081C219.114 332.724 215.401 335.358 213.589 336.685Z" fill="#263238"/>
<path d="M197.53 342.199C201.391 342.773 205.381 341.664 209.173 341.06C209.255 341.039 209.332 340.998 209.395 340.942C209.459 340.886 209.509 340.816 209.541 340.737C209.573 340.658 209.586 340.572 209.578 340.488C209.571 340.403 209.544 340.321 209.5 340.248C209.514 340.237 209.526 340.223 209.534 340.207C209.542 340.191 209.546 340.173 209.546 340.154C209.546 340.136 209.542 340.118 209.534 340.102C209.526 340.086 209.514 340.071 209.5 340.06C206.453 337.343 202.745 335.475 198.748 334.645C196.411 334.199 193.104 334.843 192.807 337.744C192.451 340.476 195.272 341.842 197.53 342.199ZM194.837 339.684C191.867 335.882 197.54 335.556 199.243 335.952C200.347 336.228 201.432 336.579 202.49 337.001C204.656 337.899 206.774 338.907 208.836 340.021C206.955 340.209 205.104 340.546 203.233 340.803C200.995 341.1 196.5 341.773 194.837 339.684Z" fill="#263238"/>
<path d="M96.7302 132.146C96.7302 132.146 148.085 219.51 149.462 225.648C151.57 235.074 162.748 328.151 162.748 328.151L216.212 327.161C216.212 327.161 207.005 245.093 198.282 218.054C192.005 198.58 146.68 133.987 146.68 133.987L96.7302 132.146Z" fill="#37474F"/>
<path d="M211.351 319.003C203.678 318.943 176.481 318.636 166.263 319.587C166.184 319.587 166.194 319.725 166.263 319.735C169.778 320.24 203.668 319.458 211.341 319.21C211.357 319.216 211.374 319.218 211.391 319.216C211.408 319.214 211.425 319.208 211.439 319.199C211.453 319.189 211.465 319.177 211.473 319.162C211.481 319.147 211.486 319.13 211.487 319.113C211.488 319.096 211.485 319.079 211.478 319.064C211.471 319.048 211.46 319.034 211.447 319.024C211.434 319.013 211.418 319.005 211.402 319.002C211.385 318.998 211.368 318.998 211.351 319.003Z" fill="#263238"/>
<path d="M105.492 140.164C108.859 145.441 112.423 150.609 115.849 155.847C119.274 161.084 122.72 166.322 126.116 171.55C132.888 182.11 139.488 192.74 145.917 203.44C149.055 208.399 151.739 213.632 153.937 219.073C155.943 224.516 157.451 230.13 158.442 235.845C159.491 241.578 160.184 247.369 160.828 253.161C161.488 259.32 162.178 265.481 162.897 271.646C164.303 284.26 165.712 296.873 167.125 309.487C167.293 311.031 167.461 312.576 167.62 314.13C167.62 314.358 167.233 314.398 167.204 314.13C165.63 301.606 164.323 289.032 162.897 276.507C162.184 270.257 161.475 264.009 160.768 257.765C160.105 251.954 159.471 246.132 158.57 240.36C157.744 234.662 156.486 229.036 154.808 223.528C152.959 217.826 150.482 212.347 147.422 207.192C141.234 196.509 134.68 186.015 128.126 175.51C121.571 165.005 114.839 154.411 107.928 144.035C107.077 142.758 106.215 141.481 105.324 140.224C105.255 140.154 105.433 140.065 105.492 140.164Z" fill="#263238"/>
<path d="M113.561 365.893C111.126 365.744 48.2165 340.26 46.474 337.844C46.3964 337.702 46.362 337.54 46.375 337.378C46.375 335.21 50.7412 327.646 54.3847 317.706C54.6124 317.072 56.2362 314.122 58.4836 310.151C64.731 299.27 75.6218 280.528 75.6218 280.528L116.74 296.865L97.0569 326.319L93.9976 333.448C93.9976 333.448 113.294 353.398 114.918 356.22C116.542 359.041 115.987 366.031 113.561 365.893Z" fill="#EB9481"/>
<path d="M113.562 365.893C111.126 365.744 48.2165 340.26 46.474 337.844C46.3964 337.702 46.362 337.54 46.375 337.378C46.375 335.21 50.7412 327.646 54.3847 317.706C54.6124 317.072 56.2362 314.122 58.4836 310.151L97.0965 326.319L94.0372 333.448C94.0372 333.448 113.334 353.398 114.957 356.22C116.581 359.041 115.987 366.031 113.562 365.893Z" fill="white"/>
<path d="M113.561 365.892C111.126 365.744 48.2165 340.259 46.474 337.843C45.8007 336.922 48.6126 328.338 54.3946 317.705L93.9976 333.457C93.9976 333.457 113.294 353.387 114.928 356.229C116.561 359.07 115.987 366.031 113.561 365.892Z" fill="#A6A6A6"/>
<path d="M113.66 363.08C103.472 358.704 61.9488 342.011 51.5431 338.467C51.454 338.467 51.4342 338.467 51.5431 338.526C61.5527 343.081 103.205 359.437 113.621 363.278C113.819 363.328 113.878 363.169 113.66 363.08Z" fill="#263238"/>
<path d="M111.878 352.457C110.749 351.96 109.528 351.704 108.294 351.704C107.06 351.704 105.84 351.96 104.71 352.457C102.679 353.346 101.069 354.984 100.215 357.031C100.215 357.09 100.304 357.14 100.334 357.08C101.501 355.182 103.252 353.713 105.325 352.894C107.397 352.074 109.679 351.949 111.829 352.536C111.846 352.531 111.86 352.521 111.869 352.506C111.878 352.491 111.882 352.474 111.878 352.457Z" fill="#263238"/>
<path d="M97.5916 336.08C93.5026 334.368 88.1364 333.912 84.2256 336.259C84.0771 336.348 84.2256 336.556 84.3543 336.546C88.7139 336.103 93.1082 336.127 97.4629 336.615C97.5299 336.622 97.5973 336.605 97.6524 336.566C97.7075 336.527 97.7466 336.47 97.7624 336.404C97.7782 336.339 97.7695 336.27 97.7381 336.21C97.7067 336.151 97.6546 336.104 97.5916 336.08Z" fill="#263238"/>
<path d="M100.275 338.596C96.1857 336.883 90.8195 336.428 86.9087 338.774C86.7602 338.863 86.9087 339.071 87.0374 339.061C91.3968 338.614 95.7916 338.637 100.146 339.131C100.213 339.138 100.28 339.121 100.336 339.082C100.391 339.043 100.43 338.985 100.446 338.92C100.461 338.854 100.453 338.785 100.421 338.726C100.39 338.666 100.338 338.62 100.275 338.596Z" fill="#263238"/>
<path d="M102.968 341.111C98.8688 339.398 93.5026 338.942 89.6017 341.289C89.4433 341.378 89.6017 341.586 89.7205 341.576C94.0799 341.129 98.4747 341.152 102.829 341.645C102.897 341.657 102.968 341.642 103.026 341.604C103.084 341.567 103.126 341.509 103.143 341.441C103.161 341.374 103.152 341.303 103.12 341.242C103.087 341.181 103.033 341.134 102.968 341.111Z" fill="#263238"/>
<path d="M105.651 343.626C101.552 341.913 96.1955 341.457 92.2847 343.794C92.1263 343.893 92.2847 344.101 92.4035 344.091C96.7628 343.644 101.158 343.667 105.512 344.16C105.58 344.172 105.651 344.157 105.709 344.12C105.767 344.082 105.809 344.024 105.826 343.957C105.844 343.889 105.835 343.818 105.803 343.757C105.77 343.696 105.716 343.649 105.651 343.626Z" fill="#263238"/>
<path d="M58.0777 329.734C53.454 327.893 50.5828 335.091 55.2263 336.932C59.8697 338.774 62.7508 331.576 58.0777 329.734Z" fill="#263238"/>
<path d="M106.453 326.874C105.057 324.309 101.76 324.943 99.7499 326.22C96.3643 328.488 93.6331 331.605 91.8293 335.26C91.8214 335.276 91.8172 335.293 91.817 335.311C91.8168 335.329 91.8207 335.347 91.8283 335.363C91.836 335.379 91.8471 335.393 91.861 335.405C91.8749 335.416 91.8911 335.424 91.9085 335.428C91.9085 335.755 92.1264 336.141 92.5125 336.062C96.2649 335.2 100.374 334.755 103.74 332.775C105.671 331.626 107.77 329.299 106.453 326.874ZM97.8886 333.596C96.057 334.062 94.2154 334.438 92.4036 334.973C93.9022 333.167 95.4917 331.439 97.1658 329.794C97.99 329.01 98.8666 328.282 99.7895 327.616C101.225 326.626 106.651 324.795 105.265 329.438C104.502 332.002 100.077 333.042 97.8886 333.596Z" fill="#263238"/>
<path d="M80.9384 332.685C84.3047 334.665 88.4135 335.13 92.156 336.002C92.5421 336.091 92.7995 335.705 92.7698 335.368C92.7884 335.366 92.8061 335.359 92.8214 335.348C92.8366 335.337 92.8487 335.323 92.8567 335.306C92.8646 335.289 92.8681 335.27 92.8668 335.252C92.8654 335.233 92.8593 335.215 92.849 335.2C91.0481 331.538 88.3167 328.414 84.9284 326.14C82.9483 324.853 79.6315 324.21 78.2256 326.764C76.8197 329.319 78.9682 331.526 80.9384 332.685ZM79.3939 329.338C78.0177 324.695 83.4334 326.536 84.869 327.536C85.7909 328.203 86.6643 328.934 87.4828 329.724C89.1537 331.372 90.7399 333.104 92.2352 334.912C90.4233 334.378 88.5818 333.992 86.7502 333.526C84.5324 332.932 80.1464 331.942 79.3939 329.338Z" fill="#263238"/>
<path d="M100.255 324.675L54.2263 306.091C54.2263 306.091 111.294 222.182 111.71 215.935C112.086 210.41 87.0176 162.273 86.0374 148.243C84.9681 133.095 92.2551 121.383 100.275 114.105L147.749 134.293C147.749 134.293 142.739 142.303 134.878 146.768C134.878 146.768 159.224 202.41 157.838 219.519C156.452 236.627 100.255 324.675 100.255 324.675Z" fill="#37474F"/>
<path d="M102.294 315.923C95.6412 313.062 97.5916 313.785 90.8987 310.973C87.6314 309.607 66.1468 300.666 62.84 299.924C62.7707 299.924 62.7212 300.023 62.7905 300.062C65.6518 301.815 87.3146 310.379 90.6116 311.686C97.354 314.339 95.4431 313.508 102.215 316.082C102.225 316.095 102.239 316.106 102.254 316.113C102.27 316.12 102.287 316.123 102.303 316.121C102.32 316.12 102.336 316.114 102.35 316.104C102.364 316.095 102.375 316.082 102.383 316.067C102.391 316.052 102.394 316.035 102.393 316.018C102.393 316.001 102.388 315.985 102.379 315.97C102.37 315.956 102.357 315.944 102.343 315.936C102.328 315.928 102.311 315.923 102.294 315.923Z" fill="#263238"/>
<path d="M142.66 145.748C137.717 146.901 132.881 148.471 128.205 150.441C128.186 150.448 128.168 150.458 128.153 150.471C128.139 150.485 128.126 150.501 128.118 150.518C128.109 150.536 128.104 150.556 128.103 150.576C128.101 150.596 128.104 150.616 128.111 150.634C128.117 150.653 128.127 150.671 128.14 150.686C128.154 150.701 128.17 150.713 128.188 150.722C128.206 150.73 128.225 150.735 128.245 150.737C128.265 150.738 128.285 150.735 128.304 150.729C133.155 149.313 138.086 147.986 142.858 146.313C143.224 146.184 143.036 145.669 142.66 145.748Z" fill="#263238"/>
<path d="M137.006 143.828C136.545 144.649 136.138 145.499 135.789 146.373C135.447 147.036 135.235 147.759 135.165 148.502C135.165 148.65 135.363 148.68 135.452 148.591C135.949 147.996 136.35 147.328 136.64 146.61C137.046 145.828 137.462 145.056 137.848 144.254C138.115 143.67 137.313 143.294 137.006 143.828Z" fill="#263238"/>
<path d="M137.6 139.333C137.898 138.601 138.185 137.878 138.492 137.145C138.798 136.413 139.185 135.66 139.482 134.888C139.482 134.769 139.719 134.888 139.67 134.977C139.373 135.71 139.185 136.482 138.957 137.234C138.729 137.987 138.472 138.739 138.224 139.492C137.759 140.888 137.234 142.274 136.591 143.63C137.37 143.669 138.148 143.534 138.868 143.234C139.603 142.763 140.169 142.07 140.482 141.254C140.897 140.442 141.284 139.611 141.709 138.799C142.233 137.921 142.674 136.996 143.026 136.036C143.026 135.918 143.264 136.036 143.214 136.125C142.569 138.155 141.723 140.115 140.69 141.977C140.244 142.7 139.897 143.462 139.086 143.739C138.207 143.985 137.287 144.049 136.383 143.927C136.264 143.927 136.125 143.927 136.165 143.749C136.57 142.254 137.049 140.781 137.6 139.333Z" fill="#263238"/>
<path d="M135.581 148.58C137.274 152.155 138.759 155.719 140.333 159.283C141.907 162.847 143.303 166.293 144.719 169.837C147.551 176.986 150.085 184.273 152.313 191.619C153.412 195.262 154.432 198.936 155.343 202.638C156.346 206.33 157.081 210.089 157.541 213.886C157.938 217.677 157.602 221.509 156.551 225.173C155.459 228.794 154.057 232.315 152.363 235.697C151.323 237.836 150.976 237.549 151.471 236.469C152.887 233.4 156.6 224.103 156.333 216.292C156.116 212.552 155.539 208.842 154.61 205.213C153.745 201.47 152.772 197.757 151.689 194.074C149.58 186.807 147.076 179.689 144.501 172.58C143.056 168.62 141.531 164.659 140.046 160.699C138.561 156.739 137.076 153.095 135.412 148.719C135.363 148.541 135.531 148.472 135.581 148.58Z" fill="#263238"/>
<path d="M100.641 136.77C101.463 136.463 102.621 136.968 103.453 137.106C104.53 137.289 105.618 137.398 106.71 137.433C107.791 137.471 108.872 137.435 109.948 137.324C111.031 137.296 112.092 137.015 113.047 136.502C114.613 135.362 115.955 133.942 117.007 132.314C118.26 130.651 119.295 128.835 120.086 126.909C120.086 126.79 120.294 126.909 120.254 126.988C119.908 128.087 119.651 129.196 119.264 130.275C118.838 131.289 118.328 132.266 117.74 133.196C116.786 135.067 115.377 136.667 113.641 137.849C111.73 138.938 109.275 138.839 107.146 138.75C105.911 138.678 104.684 138.516 103.473 138.265C102.601 138.077 101.136 137.938 100.582 137.176C100.556 137.147 100.536 137.112 100.525 137.075C100.514 137.037 100.511 136.998 100.516 136.959C100.522 136.92 100.536 136.883 100.558 136.851C100.579 136.818 100.608 136.79 100.641 136.77Z" fill="#263238"/>
<path d="M67.3646 297.29C74.9288 285.832 82.3544 274.281 89.6413 262.638C96.9283 250.994 104.116 239.262 111.205 227.44C112.898 224.619 114.849 221.807 115.938 218.678C117.126 215.282 116.453 211.985 115.383 208.659C113.364 202.59 111.004 196.64 108.314 190.837C105.661 184.986 102.799 179.234 99.9876 173.461C97.1758 167.689 94.2353 161.987 92.067 155.967C90.0869 150.215 89.2849 144.254 90.8294 138.294C92.3739 132.334 95.7006 127.067 99.1757 122.106C100.087 120.799 101.027 119.502 101.948 118.146C102.017 118.047 102.166 118.146 102.096 118.265C98.2649 123.433 94.5323 128.908 92.2848 134.977C91.1361 137.969 90.4937 141.131 90.3839 144.333C90.3652 147.584 90.8699 150.817 91.8789 153.907C93.7402 159.927 96.6808 165.62 99.4233 171.283C102.166 176.947 105.096 182.808 107.799 188.639C110.588 194.508 113.066 200.52 115.225 206.649C116.146 209.371 117.205 212.223 117.126 215.144C117.056 218.342 115.532 221.223 113.948 223.916C107.017 235.648 99.9183 247.242 92.6908 258.766C85.4632 270.291 78.0278 281.815 70.5032 293.221L67.6518 297.528C67.5033 297.706 67.2458 297.498 67.3646 297.29Z" fill="#263238"/>
<path d="M150.382 80.929C154.669 90.3347 176.322 103.295 186.461 104.691C193.748 105.681 215.905 106.037 223.499 104.879C232.41 103.513 225.598 79.5033 220.341 80.127C205.886 81.8101 193.609 83.6913 189.748 83.6913C185.035 83.6913 159.541 75.5132 156.471 74.3549C148.947 71.5529 147.957 75.5925 150.382 80.929Z" fill="#EB9481"/>
<path d="M150.521 83.4336C155.947 91.4632 173.976 104.592 173.976 104.592L176.481 99.0471L184.768 80.7109C184.768 80.7109 168.204 75.5131 157.303 73.1369C156.02 72.8449 154.715 72.6595 153.402 72.5824C146.442 72.2062 145.838 76.5031 150.521 83.4336Z" fill="#2986CE"/>
<path d="M150.521 83.4338C155.947 91.4633 173.976 104.592 173.976 104.592L176.481 99.0473C169.758 91.2356 159.372 79.4042 153.402 72.6024C146.442 72.2063 145.838 76.5033 150.521 83.4338Z" fill="#263238"/>
<path d="M170.728 100.869C172.105 97.4933 178.223 83.8996 179.748 81.0679C179.847 80.8699 180.005 80.8897 179.916 81.0679C177.262 87.8281 174.241 94.4384 170.867 100.869C170.827 100.988 170.669 100.949 170.728 100.869Z" fill="#263238"/>
<path d="M217.688 80.3744C226.48 79.2259 237.361 77.2556 246.578 81.1664C247.613 81.5725 248.482 82.3154 249.043 83.2753C253.202 84.9584 253.657 87.4237 253.657 87.4237C257.053 90.1761 257.172 92.7701 257.172 92.7701C257.172 92.7701 262.043 94.7502 261.301 97.9383C260.489 101.463 253.816 97.9383 248.964 98.2254C237.826 98.9185 222.232 103.007 219.014 103.522L217.688 80.3744Z" fill="#EB9481"/>
<path d="M236.786 90.7505C240.043 90.5277 243.311 90.5277 246.568 90.7505C250.115 91.1955 253.623 91.907 257.063 92.8791C257.085 92.887 257.11 92.8857 257.131 92.8755C257.153 92.8653 257.169 92.847 257.177 92.8247C257.185 92.8024 257.183 92.7778 257.173 92.7565C257.163 92.7351 257.145 92.7187 257.122 92.7108C250.66 90.1754 243.626 89.4631 236.786 90.6515C236.628 90.6317 236.628 90.7604 236.786 90.7505Z" fill="#263238"/>
<path d="M234.717 80.4642C240.152 80.7414 243.548 81.6127 249.014 83.2562V83.1968C242.994 80.682 240.529 80.4444 234.687 80.2266C234.499 80.3058 234.509 80.4642 234.717 80.4642Z" fill="#263238"/>
<path d="M235.598 99.9092C234.182 100.573 234.529 101.315 237.232 101.939C239.935 102.563 251.172 102.751 250.776 106.671C250.38 110.592 234.529 110.097 230.103 108.711C225.678 107.325 219.014 103.523 219.014 103.523C222.153 102.998 229.519 101.008 235.598 99.9092Z" fill="#EB9481"/>
<path d="M162.154 95.9188C162.085 97.6118 161.927 99.3345 161.689 101.047C161.689 100.978 161.689 100.919 161.758 100.859C162.085 99.9682 162.412 99.0573 162.808 98.196C162.808 98.196 162.907 98.196 162.897 98.196C162.707 99.1398 162.421 100.062 162.045 100.948C161.867 101.374 161.699 101.79 161.511 102.206C161.392 102.968 161.253 103.721 161.105 104.473C160.808 105.889 159.471 111.908 159.125 112.928C159.065 113.136 158.808 113.087 158.828 112.849C158.897 111.74 160.016 105.473 160.244 104.047C160.686 101.295 161.277 98.5678 162.016 95.8792C162.065 95.8297 162.164 95.8693 162.154 95.9188Z" fill="#263238"/>
<path d="M151.858 140.937C149.214 142.293 145.808 144.402 130.462 141.383C129.472 141.185 128.541 140.947 127.571 140.66C113.185 136.343 95.8887 119.423 94.9481 118.225C94.9481 118.225 117.809 81.1662 147.046 69.513C150.66 68.0774 156.64 70.8496 159.917 74.305C161.095 75.5426 163.659 84.6414 162.679 92.0075C161.699 99.3737 154.491 139.581 151.858 140.937Z" fill="#2986CE"/>
<path d="M149.798 91.6709C149.909 93.2369 149.689 94.8086 149.155 96.2846C149.029 94.7182 149.249 93.1432 149.798 91.6709Z" fill="white"/>
<path d="M139.828 116.908C139.891 117.688 139.865 118.472 139.749 119.245C139.654 120.024 139.464 120.789 139.185 121.522C139.116 120.739 139.143 119.952 139.264 119.175C139.365 118.401 139.554 117.64 139.828 116.908Z" fill="white"/>
<path d="M122.888 97.8301C122.999 99.3994 122.78 100.975 122.244 102.454C122.12 100.884 122.339 99.3061 122.888 97.8301Z" fill="white"/>
<path d="M156.323 115.621C156.386 116.404 156.359 117.191 156.244 117.968C156.148 118.747 155.959 119.511 155.679 120.245C155.611 119.462 155.638 118.674 155.758 117.898C155.859 117.12 156.048 116.356 156.323 115.621Z" fill="white"/>
<path d="M134.571 94.5612C135.35 94.495 136.134 94.5182 136.907 94.6305C137.687 94.7293 138.451 94.9221 139.185 95.2048C137.618 95.3173 136.046 95.098 134.571 94.5612Z" fill="white"/>
<path d="M115.344 112.79C116.91 112.679 118.481 112.898 119.957 113.433C118.391 113.559 116.816 113.339 115.344 112.79Z" fill="white"/>
<path d="M137.997 132.521C139.563 132.408 141.135 132.628 142.61 133.164C141.044 133.288 139.469 133.068 137.997 132.521Z" fill="white"/>
<path d="M109.413 125.354C110.979 125.244 112.551 125.463 114.027 125.998C112.46 126.121 110.886 125.902 109.413 125.354Z" fill="white"/>
<path d="M149.65 73.9282C151.216 73.8178 152.787 74.037 154.263 74.5717C152.697 74.6821 151.126 74.4629 149.65 73.9282Z" fill="white"/>
<path d="M144.056 80.2461C143.555 80.8478 142.984 81.3864 142.353 81.85C141.739 82.3244 141.075 82.7295 140.373 83.0579C140.87 82.4601 141.435 81.9218 142.056 81.454C142.675 80.9778 143.346 80.5726 144.056 80.2461Z" fill="white"/>
<path d="M113.571 98.1953C113.065 98.7918 112.49 99.3268 111.859 99.7893C111.251 100.273 110.586 100.678 109.878 100.997C110.388 100.403 110.962 99.8686 111.591 99.4032C112.2 98.9219 112.865 98.5163 113.571 98.1953Z" fill="white"/>
<path d="M151.64 106.295C151.133 106.894 150.559 107.433 149.927 107.899C149.318 108.38 148.653 108.786 147.947 109.107C148.453 108.507 149.028 107.969 149.66 107.503C150.272 107.026 150.936 106.621 151.64 106.295Z" fill="white"/>
<path d="M126.987 121.819C126.48 122.419 125.906 122.957 125.274 123.423C124.664 123.903 124 124.309 123.294 124.631C123.8 124.032 124.375 123.493 125.007 123.027C125.619 122.551 126.283 122.145 126.987 121.819Z" fill="white"/>
<path d="M161.085 85.0869C160.579 85.6865 160.004 86.2248 159.372 86.6908C158.759 87.1653 158.095 87.5703 157.392 87.8987C157.899 87.2992 158.473 86.7609 159.105 86.2948C159.715 85.8149 160.379 85.4094 161.085 85.0869Z" fill="white"/>
<path d="M160.57 103.077C159.971 102.57 159.432 101.995 158.966 101.364C158.484 100.756 158.079 100.091 157.758 99.3838C158.36 99.8843 158.899 100.456 159.362 101.087C159.835 101.705 160.24 102.372 160.57 103.077Z" fill="white"/>
<path d="M105.621 115.472C105.022 114.966 104.483 114.391 104.017 113.759C103.541 113.147 103.135 112.483 102.809 111.779C103.409 112.286 103.947 112.861 104.413 113.492C104.893 114.102 105.299 114.767 105.621 115.472Z" fill="white"/>
<path d="M153.887 130.214C153.285 129.714 152.747 129.142 152.283 128.511C151.809 127.898 151.404 127.234 151.075 126.531C151.675 127.038 152.213 127.613 152.679 128.244C153.157 128.852 153.562 129.513 153.887 130.214Z" fill="white"/>
<path d="M129.7 88.186C129.1 87.683 128.562 87.1115 128.096 86.4831C127.623 85.8682 127.218 85.2043 126.888 84.5029C127.49 85.0035 128.028 85.5753 128.492 86.2059C128.964 86.8207 129.369 87.4846 129.7 88.186Z" fill="white"/>
<path d="M130.125 138.61C129.526 138.103 128.988 137.529 128.521 136.897C128.047 136.284 127.641 135.62 127.314 134.917C127.915 135.418 128.454 135.989 128.918 136.62C129.394 137.236 129.799 137.903 130.125 138.61Z" fill="white"/>
<path d="M134.234 108.869C133.64 108.359 133.106 107.785 132.64 107.156C132.157 106.549 131.751 105.883 131.432 105.176C132.029 105.682 132.564 106.257 133.026 106.889C133.508 107.497 133.913 108.162 134.234 108.869Z" fill="white"/>
<path d="M154.561 84.1767C150.828 83.4836 147.323 75.7709 146.878 70.5829C146.878 70.2265 148.62 67.4048 150.61 63.8702C151.818 61.7218 153.095 59.2961 154.115 56.9991C154.323 56.5338 155.541 58.108 155.541 58.108L158.194 60.0881L166.956 66.8107C164.87 69.3145 163.098 72.0643 161.679 74.9987C161.539 75.3167 161.433 75.6485 161.362 75.9887C161.358 76.0448 161.358 76.101 161.362 76.157C160.818 78.1174 158.155 84.84 154.561 84.1767Z" fill="#EB9481"/>
<path d="M161.362 76.0383C161.358 76.0943 161.358 76.1506 161.362 76.2066C160.842 76.0541 160.335 75.8587 159.847 75.6225C150.254 71.1275 154.481 58.2764 154.481 58.2764L158.244 60.1377L167.006 66.8603C164.919 69.3641 163.147 72.1138 161.729 75.0482C161.572 75.3643 161.449 75.6962 161.362 76.0383Z" fill="#263238"/>
<path d="M177.025 39.4551C177.025 39.4551 181.411 42.2372 181.431 47.1876C181.451 52.1379 179.451 56.9794 179.035 57.1576C178.619 57.3358 177.025 39.4551 177.025 39.4551Z" fill="#263238"/>
<path d="M155.263 42.0284C152.63 47.2263 152.768 63.612 156.055 67.8298C160.828 73.9484 170.015 76.0573 175.57 70.0079C180.946 64.1467 180.391 42.8007 176.56 38.8206C170.986 32.9395 159.164 34.3355 155.263 42.0284Z" fill="#EB9481"/>
<path d="M169.243 55.1475C169.243 55.1475 169.154 55.2069 169.164 55.2465C169.224 56.3653 169.105 57.6524 168.105 58.0484C168.105 58.0484 168.105 58.1177 168.105 58.1078C169.342 57.9098 169.481 56.1969 169.243 55.1475Z" fill="#263238"/>
<path d="M168.223 54.0088C166.422 53.9098 166.362 57.5137 168.035 57.6028C169.709 57.6919 169.728 54.088 168.223 54.0088Z" fill="#263238"/>
<path d="M175.352 55.1074C175.352 55.1074 175.441 55.1074 175.441 55.2064C175.382 56.3252 175.51 57.6123 176.52 57.9984C176.52 57.9984 176.52 58.0677 176.52 58.0578C175.273 57.8697 175.124 56.1569 175.352 55.1074Z" fill="#263238"/>
<path d="M176.372 53.9585C178.164 53.8496 178.253 57.4534 176.59 57.5524C174.926 57.6515 174.867 54.0476 176.372 53.9585Z" fill="#263238"/>
<path d="M167.095 51.2665C167.568 51.1319 168.034 50.9733 168.491 50.7913C169.011 50.6972 169.485 50.4324 169.837 50.0388C169.923 49.8947 169.959 49.7264 169.939 49.56C169.919 49.3935 169.845 49.2382 169.728 49.118C169.46 48.9144 169.143 48.7859 168.809 48.7458C168.475 48.7058 168.136 48.7557 167.827 48.8903C167.159 49.0692 166.581 49.4889 166.204 50.0685C166.128 50.2064 166.094 50.363 166.105 50.5198C166.116 50.6765 166.172 50.8269 166.266 50.9529C166.359 51.079 166.487 51.1756 166.634 51.2312C166.781 51.2867 166.941 51.299 167.095 51.2665Z" fill="#263238"/>
<path d="M177.6 52.86C177.118 52.7524 176.642 52.6202 176.174 52.464C175.652 52.395 175.168 52.1547 174.798 51.7808C174.702 51.6432 174.656 51.4773 174.667 51.3101C174.678 51.143 174.745 50.9844 174.857 50.8601C175.112 50.6418 175.422 50.4962 175.753 50.4387C176.084 50.3812 176.424 50.4139 176.738 50.5333C177.415 50.6737 178.016 51.0622 178.421 51.6224C178.506 51.755 178.551 51.9094 178.549 52.0669C178.548 52.2243 178.501 52.3779 178.414 52.509C178.327 52.6402 178.203 52.7432 178.059 52.8055C177.914 52.8678 177.755 52.8868 177.6 52.86Z" fill="#263238"/>
<path d="M166.709 65.7307C166.976 65.998 167.233 66.3544 167.639 66.394C168.056 66.3938 168.467 66.3061 168.847 66.1366C168.847 66.1366 168.917 66.1366 168.847 66.196C168.685 66.4136 168.467 66.583 168.215 66.6859C167.964 66.7888 167.69 66.8214 167.422 66.7802C167.195 66.7185 166.992 66.5918 166.837 66.4158C166.683 66.2398 166.583 66.0222 166.55 65.7901C166.542 65.7691 166.543 65.7458 166.553 65.7254C166.562 65.7049 166.579 65.689 166.6 65.6812C166.621 65.6733 166.644 65.6741 166.665 65.6834C166.685 65.6926 166.701 65.7097 166.709 65.7307Z" fill="#263238"/>
<path d="M173.184 60.9584C173.184 60.9584 173.233 62.6218 173.184 63.4039C171.663 63.2425 170.126 63.2958 168.62 63.5623C168.263 63.6415 168.303 63.3544 168.709 63.1663C169.922 62.6117 171.274 62.4324 172.59 62.6515C172.669 62.4435 172.461 60.0773 172.59 60.0872C173.189 60.2047 173.768 60.4046 174.313 60.6812C174.313 57.1961 173.758 53.7507 173.808 50.2656C173.808 50.1468 173.996 50.127 174.016 50.2656C174.719 53.9524 175.051 57.7005 175.006 61.4535C175.015 61.8792 173.481 61.1168 173.184 60.9584Z" fill="#263238"/>
<path d="M170.956 62.8105C170.561 63.8486 169.829 64.7239 168.877 65.2956C167.382 65.8995 166.897 64.5431 168.402 63.3154C169.191 62.9165 170.074 62.7419 170.956 62.8105Z" fill="#263238"/>
<path d="M169.402 64.9881C169.244 65.1168 169.067 65.2203 168.877 65.295C167.501 65.8495 166.956 64.7505 168.065 63.6416C168.818 63.701 169.679 63.9782 169.402 64.9881Z" fill="#FF99BA"/>
<path d="M154.511 56.0383C156.323 56.5928 158.402 51.1474 158.996 49.1078C159.511 47.2663 160.105 41.4149 160.194 41.009C160.283 40.6031 168.115 46.1871 172.649 44.8604C177.184 43.5337 180.263 39.4249 180.332 37.514C180.401 35.6032 174.728 30.7518 169.827 30.5043C164.927 30.2568 158.283 36.4448 158.283 36.4448C159.086 35.5341 159.814 34.5607 160.461 33.5339C160.382 33.3161 157.214 34.5834 156.63 36.8408C156.63 36.8408 157.263 33.9993 157.026 33.9498C156.788 33.9003 154.323 36.3259 154.877 38.1675C154.877 38.1675 152.026 40.6328 151.768 43.3357C151.511 46.0386 152.382 55.3849 154.511 56.0383Z" fill="#263238"/>
<path d="M175.897 43.8312C174.548 44.5624 173.096 45.0833 171.59 45.3757C169.899 45.5265 168.198 45.2543 166.639 44.5837C165.069 43.977 163.61 43.1138 162.323 42.0293C161.184 41.0986 160.164 39.96 158.947 39.1284C158.64 38.9105 158.293 39.3561 158.481 39.6333C160.513 42.5031 163.415 44.6417 166.758 45.7322C168.311 46.2384 169.968 46.333 171.568 46.0067C173.168 45.6804 174.656 44.9445 175.887 43.8708C175.887 43.8708 175.916 43.8312 175.897 43.8312Z" fill="#263238"/>
<path d="M156.402 55.5536C156.402 55.5536 153.59 49.8507 151.056 50.7715C148.521 51.6923 150.066 59.5832 152.669 61.0287C152.988 61.235 153.346 61.3749 153.72 61.4398C154.094 61.5047 154.478 61.4933 154.848 61.4064C155.218 61.3195 155.566 61.1588 155.872 60.934C156.178 60.7092 156.436 60.4248 156.63 60.098L156.402 55.5536Z" fill="#EB9481"/>
<path d="M151.561 53.0186C151.561 53.0186 151.501 53.0186 151.561 53.0978C153.363 54.167 154.095 56.068 154.531 58.0481C154.449 57.8385 154.322 57.6492 154.16 57.4933C153.997 57.3374 153.803 57.2186 153.59 57.1452C153.378 57.0718 153.151 57.0454 152.927 57.068C152.703 57.0905 152.487 57.1615 152.293 57.2759C152.234 57.2759 152.293 57.3848 152.293 57.3848C152.647 57.3297 153.01 57.3858 153.331 57.5454C153.652 57.705 153.915 57.9602 154.085 58.2758C154.369 58.8046 154.594 59.3622 154.759 59.9392C154.818 60.1273 155.145 60.0778 155.115 59.8699C155.541 57.4046 154.155 53.672 151.561 53.0186Z" fill="#263238"/>
<path d="M137.838 81.0183C135.858 92.2358 148.016 130.027 155.808 137.086C167.402 147.581 188.837 154.482 196.609 156.729C199.995 157.719 209.361 133.888 205.935 132.314C198.599 128.978 175.807 121.849 173.639 120.067C171.471 118.285 158.402 99.404 152.58 88.533C144.788 73.8996 138.818 75.3452 137.838 81.0183Z" fill="#EB9481"/>
<path d="M200.163 130.215C200.163 130.215 210.282 132.799 216.806 134.789C220.45 135.908 226.529 138.373 228.836 140.413C232.281 143.472 244.736 158.442 241.172 161.541C237.945 164.353 228.875 150.125 228.875 150.125C228.875 150.125 239.291 163.669 234.816 166.333C230.341 168.996 222.153 151.561 222.153 151.561C222.153 151.561 232.539 165.719 227.46 167.729C223.618 169.244 215.381 153.868 215.381 153.868C215.381 153.868 224.232 166.095 220.331 167.828C216.034 169.749 207.549 156.026 207.549 156.026C196.936 158.769 190.718 155.729 186.629 153.056C185.669 152.402 200.163 130.215 200.163 130.215Z" fill="#EB9481"/>
<path d="M225.569 145.205C226.856 146.749 228.163 148.314 229.301 149.967C230.44 151.621 231.519 153.323 232.499 155.076C233.827 157.343 234.89 159.754 235.667 162.264C233.965 157.908 229.975 151.918 228.836 150.264C227.697 148.611 226.638 146.898 225.509 145.244C225.48 145.205 225.539 145.165 225.569 145.205Z" fill="#263238"/>
<path d="M219.519 149.214C221.717 150.957 226.321 157.432 228.093 161.779C228.173 161.957 228.093 161.947 227.965 161.779C226.579 159.63 220.955 151.313 219.47 149.244C219.44 149.214 219.49 149.185 219.519 149.214Z" fill="#263238"/>
<path d="M213.707 151.749C216.438 154.613 218.596 157.974 220.064 161.65C220.133 161.828 219.994 161.798 219.886 161.65C217.836 158.313 216.252 155.709 213.599 151.838C213.559 151.749 213.648 151.66 213.707 151.749Z" fill="#263238"/>
<path d="M148.887 81.8394C139.848 69.0576 134.442 73.7901 136.254 87.671C137.957 100.651 142.501 116.116 142.501 116.116L165.273 105.067C165.273 105.067 154.64 90.0274 148.887 81.8394Z" fill="#2986CE"/>
<path d="M154.382 86.8691C154.682 87.5911 154.898 88.3452 155.026 89.1166C155.165 89.8905 155.215 90.6778 155.174 91.4631C154.877 90.7374 154.665 89.98 154.541 89.2057C154.393 88.4361 154.34 87.6515 154.382 86.8691Z" fill="white"/>
<path d="M140.888 94.6415C142.341 94.0504 143.904 93.7803 145.472 93.8495C144.749 94.1464 143.995 94.359 143.224 94.4831C142.455 94.6301 141.67 94.6833 140.888 94.6415Z" fill="white"/>
<path d="M141.472 74.7607C140.859 76.2077 139.944 77.5072 138.789 78.5725C139.402 77.1256 140.316 75.8261 141.472 74.7607Z" fill="white"/>
<path d="M160.768 100.612C160.468 101.336 160.086 102.024 159.63 102.662C159.186 103.308 158.667 103.899 158.085 104.424C158.698 102.977 159.613 101.678 160.768 100.612Z" fill="white"/>
<path d="M144.927 108.364C144.201 108.067 143.513 107.685 142.878 107.225C142.231 106.781 141.64 106.263 141.115 105.681C142.562 106.294 143.862 107.209 144.927 108.364Z" fill="white"/>
<path d="M151.858 85.6904C153.075 87.3637 154.333 88.9973 155.58 90.6408C155.263 89.8091 154.986 88.9676 154.749 88.1161H154.808C155.055 88.7696 155.343 89.4131 155.58 90.0963L155.937 91.0863C155.967 91.1539 155.994 91.2234 156.016 91.2943C157.006 92.5715 157.996 93.8486 158.907 95.1555C160.026 96.7199 161.105 98.304 162.194 99.8881C163.283 101.472 164.382 103.442 165.56 105.037C165.669 105.175 163.58 106.027 163.352 106.135C163.125 106.244 163.006 106.056 163.224 105.987C163.441 105.918 165.105 104.898 165.125 104.878C164.035 103.274 162.778 101.799 161.639 100.245C160.501 98.6901 159.372 97.1357 158.273 95.5615C156.046 92.3536 154.006 89.027 151.788 85.8092L151.858 85.6904Z" fill="#263238"/>
<path d="M136.789 96.8586C137.135 97.5319 137.511 98.1952 137.779 98.8883L138.155 99.7496C137.63 97.2843 137.165 94.7993 136.62 92.334C137.67 96.2943 138.729 100.344 139.699 104.363C140.62 108.205 141.739 112.086 142.274 116.007C142.964 115.704 143.68 115.462 144.412 115.284C143.677 115.76 142.886 116.142 142.056 116.423C140.862 112.436 139.871 108.391 139.086 104.304C138.838 103.195 138.61 102.086 138.373 100.977C138.115 100.304 137.808 99.6605 137.502 98.9972C137.195 98.3338 136.917 97.5913 136.64 96.8883C136.7 96.8487 136.769 96.8091 136.789 96.8586Z" fill="#263238"/>
<path d="M142.838 112.295C146.006 110.513 159.243 103.661 162.204 102.394C162.412 102.305 162.521 102.394 162.313 102.533C156.029 106.184 149.551 109.489 142.907 112.434C142.828 112.453 142.749 112.344 142.838 112.295Z" fill="#263238"/>
<path d="M505.631 372.584H203.975L247.588 125.214H549.244L505.631 372.584Z" fill="#2986CE"/>
<path d="M350.833 99.5908H252.113L247.588 125.214H353.239L350.833 99.5908Z" fill="#2986CE"/>
<g opacity="0.1">
<path d="M505.631 372.584H203.975L247.588 125.214H549.244L505.631 372.584Z" fill="black"/>
<path d="M350.833 99.5908H252.113L247.588 125.214H353.239L350.833 99.5908Z" fill="black"/>
</g>
<path d="M241.459 110.046C240.799 107.213 240.799 104.266 241.459 101.433C242.12 104.266 242.12 107.213 241.459 110.046Z" fill="#263238"/>
<path d="M232.687 112.581C231.679 111.536 230.811 110.364 230.103 109.096C229.361 107.854 228.779 106.524 228.371 105.136C229.382 106.175 230.251 107.343 230.955 108.611C231.695 109.857 232.277 111.191 232.687 112.581Z" fill="#263238"/>
<path d="M226.351 119.165C223.569 118.319 221.018 116.846 218.896 114.858C220.284 115.262 221.615 115.841 222.856 116.581C224.124 117.293 225.299 118.161 226.351 119.165Z" fill="#263238"/>
<path d="M224.133 128.035C221.3 128.695 218.353 128.695 215.52 128.035C218.353 127.375 221.3 127.375 224.133 128.035Z" fill="#263238"/>
<path d="M226.707 136.809C225.658 137.811 224.487 138.68 223.222 139.393C221.981 140.133 220.65 140.712 219.262 141.115C220.307 140.107 221.479 139.239 222.747 138.531C223.987 137.787 225.318 137.208 226.707 136.809Z" fill="#263238"/>
<path d="M233.282 143.135C232.439 145.921 230.965 148.476 228.975 150.6C229.378 149.21 229.96 147.879 230.707 146.64C231.413 145.367 232.278 144.189 233.282 143.135Z" fill="#263238"/>
<path d="M242.153 145.323C242.498 146.732 242.664 148.179 242.648 149.63C242.669 151.081 242.503 152.529 242.153 153.937C241.798 152.53 241.631 151.081 241.658 149.63C241.641 148.179 241.807 146.732 242.153 145.323Z" fill="#263238"/>
<path d="M250.925 142.838C251.933 143.884 252.801 145.055 253.509 146.323C254.253 147.563 254.832 148.894 255.232 150.284C253.241 148.159 251.768 145.605 250.925 142.818V142.838Z" fill="#263238"/>
<path d="M257.251 136.204C258.641 136.604 259.972 137.183 261.212 137.927C262.48 138.634 263.651 139.503 264.697 140.511C263.307 140.111 261.976 139.532 260.736 138.788C259.468 138.081 258.297 137.212 257.251 136.204Z" fill="#263238"/>
<path d="M259.439 127.333C262.276 126.673 265.226 126.673 268.063 127.333C265.226 127.993 262.276 127.993 259.439 127.333Z" fill="#263238"/>
<path d="M256.905 118.562C257.953 117.56 259.124 116.695 260.39 115.988C261.627 115.236 262.959 114.654 264.35 114.255C262.226 116.245 259.671 117.719 256.885 118.562H256.905Z" fill="#263238"/>
<path d="M250.321 112.235C250.728 110.849 251.307 109.519 252.043 108.275C252.751 107.007 253.619 105.835 254.627 104.79C254.228 106.179 253.649 107.511 252.905 108.75C252.197 110.019 251.329 111.19 250.321 112.235Z" fill="#263238"/>
<path d="M505.186 372.586H202.886L159.957 134.195H462.266L505.186 372.586Z" fill="#2986CE"/>
<path d="M264.716 279.924C271.655 279.924 277.28 274.299 277.28 267.36C277.28 260.421 271.655 254.796 264.716 254.796C257.777 254.796 252.152 260.421 252.152 267.36C252.152 274.299 257.777 279.924 264.716 279.924Z" fill="white"/>
<path d="M364.041 279.924C370.98 279.924 376.605 274.299 376.605 267.36C376.605 260.421 370.98 254.796 364.041 254.796C357.102 254.796 351.477 260.421 351.477 267.36C351.477 274.299 357.102 279.924 364.041 279.924Z" fill="white"/>
<path d="M332.428 281.933L331.735 280.616C331.675 280.497 325.18 268.498 312.121 268.498C300.24 268.498 297.27 279.794 297.191 280.279L296.834 281.715L293.953 281.022L294.3 279.576C294.3 279.438 297.844 265.527 312.121 265.527C326.972 265.527 334.071 278.676 334.368 279.24L335.061 280.547L332.428 281.933Z" fill="white"/>
<path d="M485.226 266.4L485.018 265.41C485.662 265.271 486.295 265.122 486.929 264.954L487.176 265.944C486.503 266.112 485.879 266.261 485.226 266.4Z" fill="#263238"/>
<path d="M491.008 264.806L490.691 263.875C491.929 263.449 493.166 262.984 494.364 262.479L494.75 263.39C493.533 263.905 492.275 264.38 491.008 264.806ZM498.384 261.648L497.939 260.776C499.097 260.172 500.255 259.519 501.354 258.796L501.869 259.638C500.74 260.42 499.562 261.083 498.384 261.648ZM505.196 257.46L504.612 256.658C505.681 255.875 506.711 255.054 507.681 254.212L508.334 254.955C507.295 255.856 506.305 256.697 505.186 257.499L505.196 257.46ZM511.235 252.192L510.512 251.509C511.423 250.519 512.285 249.529 513.077 248.539L513.859 249.143C513.037 250.232 512.156 251.252 511.255 252.232L511.235 252.192ZM516.136 245.856L515.295 245.331C515.979 244.225 516.588 243.074 517.116 241.886L518.027 242.292C517.467 243.53 516.833 244.734 516.126 245.895L516.136 245.856ZM519.413 238.51L518.423 238.232C518.785 236.99 519.053 235.723 519.225 234.44L520.215 234.569C520.051 235.915 519.78 237.246 519.403 238.549L519.413 238.51ZM520.512 230.589H519.522V230.302C519.522 229.104 519.453 227.886 519.334 226.688L520.324 226.589C520.454 227.822 520.52 229.062 520.522 230.302L520.512 230.589ZM518.73 222.837C518.464 221.56 518.133 220.298 517.74 219.055L518.73 218.758C519.136 220.045 519.483 221.352 519.72 222.629L518.73 222.837ZM516.384 215.381C515.908 214.213 515.394 213.015 514.76 211.807L515.651 211.362C516.255 212.589 516.809 213.817 517.294 215.005L516.384 215.381ZM512.918 208.322C512.304 207.243 511.631 206.104 510.938 204.936L511.78 204.411C512.503 205.59 513.186 206.738 513.76 207.837L512.918 208.322ZM508.78 201.6C508.057 200.51 507.324 199.411 506.572 198.312L507.394 197.758C508.146 198.857 508.879 199.956 509.602 201.065L508.78 201.6ZM504.325 195.045C503.582 193.956 502.829 192.857 502.097 191.768L502.919 191.214C503.651 192.303 504.394 193.402 505.136 194.481L504.325 195.045ZM499.899 188.451C499.176 187.342 498.473 186.214 497.78 185.085L498.622 184.57C499.315 185.699 500.018 186.808 500.731 187.917L499.899 188.451ZM495.77 181.65C495.097 180.452 494.473 179.263 493.909 178.125L494.8 177.679C495.354 178.808 495.978 179.976 496.632 181.164L495.77 181.65ZM492.255 174.521C491.731 173.283 491.265 172.026 490.83 170.798L491.82 170.481C492.236 171.679 492.701 172.917 493.216 174.135L492.255 174.521ZM489.681 166.967C489.355 165.68 489.067 164.363 488.85 163.006L489.84 162.848C490.058 164.115 490.325 165.402 490.652 166.67L489.681 166.967ZM488.355 159.046C488.256 157.828 488.206 156.601 488.206 155.373V155.046H489.196V155.363C489.196 156.561 489.196 157.769 489.345 158.957L488.355 159.046ZM489.345 151.126L488.355 151.027C488.355 150.759 488.404 150.482 488.434 150.195C488.553 149.135 488.701 148.076 488.879 147.066L489.869 147.235C489.701 148.225 489.553 149.264 489.434 150.304C489.473 150.611 489.473 150.878 489.394 151.155L489.345 151.126ZM490.721 143.423L489.731 143.155C490.097 141.849 490.523 140.571 490.998 139.354L491.919 139.71C491.469 140.936 491.085 142.185 490.77 143.452L490.721 143.423ZM540.056 137.651C539.502 137.651 538.928 137.571 538.363 137.492C537.591 137.383 536.819 137.255 536.056 137.106L536.254 136.116C536.987 136.255 537.749 136.383 538.502 136.492C539.037 136.562 539.581 136.611 540.106 136.641L540.056 137.651ZM544.126 137.344L543.918 136.354C545.16 136.097 546.351 135.635 547.442 134.987L547.957 135.829C546.791 136.55 545.513 137.072 544.175 137.373L544.126 137.344ZM493.572 136.165L492.691 135.7C493.322 134.519 494.019 133.376 494.78 132.274L495.592 132.839C494.868 133.917 494.211 135.038 493.622 136.195L493.572 136.165ZM532.185 136.106C530.907 135.701 529.651 135.228 528.423 134.69L528.829 133.779C530.019 134.308 531.239 134.768 532.482 135.156L532.185 136.106ZM550.997 133.017L550.175 132.463C550.88 131.44 551.297 130.246 551.383 129.007L552.373 129.077C552.289 130.497 551.824 131.868 551.026 133.047L550.997 133.017ZM524.859 132.869C523.7 132.195 522.579 131.458 521.502 130.661L522.086 129.869C523.135 130.642 524.226 131.356 525.354 132.007L524.859 132.869ZM498.028 129.779L497.295 129.116C498.191 128.119 499.147 127.177 500.156 126.294L500.81 127.037C499.838 127.906 498.919 128.832 498.057 129.809L498.028 129.779ZM518.413 128.106C517.427 127.198 516.492 126.236 515.611 125.225L516.354 124.572C517.211 125.554 518.12 126.489 519.077 127.374L518.413 128.106ZM550.64 125.423C550.073 124.292 549.289 123.283 548.333 122.453L548.987 121.71C550.039 122.62 550.903 123.727 551.531 124.968L550.64 125.423ZM503.889 124.641L503.325 123.829C504.432 123.073 505.579 122.376 506.76 121.74L507.225 122.611C506.088 123.24 504.984 123.927 503.919 124.671L503.889 124.641ZM513.136 122.067C512.76 121.532 512.394 120.988 512.047 120.423L510.76 120.928L510.384 120.017L511.522 119.562C511.344 119.265 511.166 118.968 510.998 118.671L511.859 118.186C512.057 118.532 512.255 118.879 512.463 119.176C513.017 118.978 513.582 118.79 514.156 118.611L514.443 119.602C513.958 119.75 513.453 119.908 512.998 120.077C513.304 120.562 513.621 121.067 513.988 121.493L513.136 122.067ZM545.145 120.364C544.187 119.886 543.194 119.483 542.175 119.156L541.522 118.948L541.809 117.958L542.482 118.176C543.543 118.514 544.576 118.934 545.571 119.433L545.145 120.364ZM518.235 118.592L518.027 117.602C519.304 117.314 520.631 117.077 521.987 116.889L522.136 117.879C520.829 118.087 519.532 118.334 518.265 118.621L518.235 118.592ZM537.74 118.057C536.502 117.839 535.195 117.671 533.858 117.552L533.938 116.562C535.314 116.681 536.65 116.849 537.898 117.077L537.74 118.057ZM526.007 117.483L525.938 116.493C527.116 116.423 528.294 116.384 529.463 116.384H529.948V117.374H529.472C528.354 117.404 527.185 117.433 526.037 117.512L526.007 117.483ZM509.275 115.116C508.74 113.909 508.285 112.651 507.839 111.374L508.829 111.067C509.245 112.315 509.711 113.542 510.225 114.72L509.275 115.116ZM506.77 107.513C506.473 106.236 506.225 104.909 506.037 103.552L507.027 103.414C507.216 104.721 507.453 106.018 507.74 107.275L506.77 107.513ZM505.661 99.5921C505.612 98.7011 505.582 97.7902 505.582 96.8793C505.582 96.4536 505.582 96.0179 505.582 95.5922H506.572C506.572 96.0179 506.572 96.4338 506.572 96.8595C506.572 97.7506 506.572 98.6516 506.641 99.5129L505.661 99.5921ZM506.839 91.6715L505.849 91.5725C505.988 90.2656 506.176 88.929 506.404 87.6122L507.394 87.7805C507.126 89.0973 506.938 90.3646 506.81 91.6913L506.839 91.6715ZM508.196 83.939L507.206 83.7014C507.522 82.4242 507.889 81.1371 508.295 79.85L509.285 80.157C508.839 81.4539 508.473 82.7113 508.166 83.9588L508.196 83.939ZM510.572 76.4442L509.651 76.0877C510.136 74.8502 510.641 73.6126 511.245 72.4146L512.136 72.8502C511.542 74.0383 511.017 75.2462 510.542 76.5036L510.572 76.4442ZM513.978 69.3849L513.116 68.88C513.79 67.7414 514.512 66.6028 515.265 65.5137L516.077 66.0781C515.304 67.1672 514.601 68.2761 513.948 69.4047L513.978 69.3849ZM518.443 62.9396L517.671 62.3158C518.502 61.3257 519.393 60.2762 520.314 59.3456L521.027 60.0287C520.096 60.9594 519.225 61.9495 518.413 62.9594L518.443 62.9396ZM523.829 57.2367L523.166 56.5041C524.156 55.6229 525.146 54.7516 526.205 53.9101L526.819 54.6922C525.76 55.5338 524.75 56.3952 523.799 57.2565L523.829 57.2367ZM529.977 52.3457L529.413 51.524C530.492 50.7814 531.621 50.0488 532.769 49.3557L533.274 50.1973C532.126 50.9002 531.057 51.623 529.948 52.3656L529.977 52.3457ZM536.7 48.2567L536.235 47.3855C537.403 46.7617 538.611 46.1677 539.819 45.6132L540.235 46.5142C538.977 47.0786 537.819 47.6726 536.67 48.2765L536.7 48.2567ZM543.858 44.9697L543.492 44.039C544.739 43.5539 545.997 43.0489 547.244 42.6826L547.561 43.6727C546.304 44.0489 545.056 44.5044 543.829 44.9895L543.858 44.9697Z" fill="#263238"/>
<path d="M551.492 42.465L551.244 41.475C552.472 41.1581 553.224 41.0195 553.224 41.0195L553.402 42.0096C553.402 42.0096 552.69 42.1581 551.492 42.465Z" fill="#263238"/>
<path d="M568.996 36.0683C566.472 28.2467 549.561 31.0585 552.858 41.286C556.155 51.5134 571.521 43.8998 568.996 36.0683Z" fill="#263238"/>
<path d="M543.66 32.94C543.789 29.5044 548.561 26.8609 555.313 28.0787C562.065 29.2965 568.412 33.8509 568.412 33.8509C568.412 33.8509 561.749 37.8904 554.927 38.6329C548.105 39.3755 543.531 36.3657 543.66 32.94Z" fill="#EBEBEB"/>
<path d="M568.412 33.8318C564.907 33.8318 561.412 33.7328 557.917 33.6239C554.422 33.515 550.918 33.3368 547.423 33.0596C550.927 33.0596 554.432 33.1487 557.927 33.2576C561.422 33.3665 564.927 33.5447 568.412 33.8318Z" fill="#263238"/>
<path d="M550.442 29.8809C552.432 30.8327 554.308 32.0051 556.036 33.3758C555.04 32.9086 554.075 32.3795 553.145 31.7917C552.208 31.2079 551.305 30.5699 550.442 29.8809Z" fill="#263238"/>
<path d="M559.62 33.5049C557.829 34.9564 555.888 36.2111 553.828 37.2474C555.629 35.794 557.58 34.5393 559.65 33.5049H559.62Z" fill="#263238"/>
<path d="M560.64 31.5732C561.639 32.053 562.514 32.7579 563.195 33.6326C562.695 33.3968 562.226 33.1009 561.799 32.7514C561.369 32.4041 560.98 32.0088 560.64 31.5732Z" fill="#263238"/>
<path d="M550.096 53.2858C552.205 55.9986 557.621 55.3452 562.383 50.4146C567.145 45.484 569.67 38.0684 569.67 38.0684C569.67 38.0684 561.868 38.6624 555.918 42.0287C549.967 45.3949 547.977 50.5631 550.096 53.2858Z" fill="#EBEBEB"/>
<path d="M569.669 38.0684C566.818 40.0485 564.046 42.2465 561.264 44.3751C558.481 46.5038 555.759 48.7018 553.095 50.969C555.947 48.9889 558.719 46.8008 561.491 44.6722C564.263 42.5435 566.966 40.3455 569.669 38.0684Z" fill="#263238"/>
<path d="M557.373 51.7512C557.902 50.7895 558.375 49.7977 558.789 48.781C559.21 47.7614 559.567 46.7165 559.858 45.6523C559.327 46.6133 558.854 47.6051 558.442 48.6226C558.025 49.6437 557.668 50.6883 557.373 51.7512Z" fill="#263238"/>
<path d="M562.739 43.4734C560.422 43.3496 558.099 43.4724 555.809 43.8398C556.963 43.909 558.12 43.909 559.274 43.8398C560.435 43.7831 561.592 43.6608 562.739 43.4734Z" fill="#263238"/>
<path d="M564.65 44.4545C564.914 43.9656 565.12 43.4471 565.264 42.91C565.41 42.3768 565.497 41.8288 565.521 41.2764C564.995 42.2565 564.697 43.343 564.65 44.4545Z" fill="#263238"/>
<path d="M568.996 36.0687C568.437 36.2503 567.837 36.2618 567.271 36.1019C566.705 35.9419 566.2 35.6177 565.818 35.1703C565.437 34.7229 565.197 34.1723 565.129 33.5884C565.06 33.0045 565.167 32.4135 565.435 31.8902C565.703 31.3668 566.12 30.9348 566.634 30.6488C567.147 30.3627 567.734 30.2355 568.32 30.2833C568.906 30.331 569.465 30.5516 569.925 30.917C570.386 31.2824 570.727 31.7763 570.907 32.3361C571.147 33.0845 571.081 33.8975 570.723 34.5972C570.365 35.2968 569.744 35.8259 568.996 36.0687Z" fill="#455A64"/>
<path d="M570.818 41.722C570.259 41.9028 569.659 41.9139 569.094 41.7538C568.529 41.5937 568.024 41.2697 567.643 40.8227C567.262 40.3757 567.022 39.8257 566.954 39.2424C566.885 38.659 566.991 38.0685 567.258 37.5453C567.525 37.0222 567.942 36.59 568.454 36.3034C568.967 36.0168 569.553 35.8886 570.139 35.9351C570.724 35.9816 571.283 36.2006 571.744 36.5645C572.205 36.9284 572.548 37.4208 572.729 37.9795C572.849 38.3507 572.895 38.742 572.865 39.131C572.834 39.52 572.726 39.8991 572.549 40.2467C572.371 40.5942 572.127 40.9034 571.83 41.1566C571.533 41.4097 571.189 41.6018 570.818 41.722Z" fill="#455A64"/>
<path d="M246.222 39.1973C245.747 43.7449 244.019 48.0711 241.228 51.6934C238.438 55.3156 234.697 58.0913 230.421 59.7106C226.145 61.33 221.503 61.7294 217.013 60.8641C212.524 59.9989 208.363 57.9032 204.995 54.8108L192.649 56.6226L198.827 45.9496C197.414 42.4768 196.811 38.7277 197.064 34.987C197.317 31.2464 198.42 27.6126 200.287 24.3617C202.155 21.1108 204.739 18.3283 207.843 16.2255C210.947 14.1227 214.489 12.7549 218.201 12.2261C221.912 11.6973 225.696 12.0214 229.264 13.1737C232.831 14.3259 236.09 16.2761 238.791 18.8761C241.492 21.4761 243.565 24.6575 244.853 28.1787C246.14 31.6998 246.608 35.4681 246.222 39.1973Z" fill="white"/>
<path d="M246.222 39.1971C245.757 43.7423 244.044 48.0703 241.271 51.7017C239.917 53.5383 238.283 55.1519 236.43 56.4838C234.617 57.8656 232.617 58.9824 230.489 59.8005C228.361 60.6388 226.124 61.1722 223.846 61.3846C222.707 61.4868 221.562 61.51 220.42 61.4539C219.274 61.4245 218.132 61.3053 217.005 61.0975C212.454 60.2603 208.227 58.1725 204.797 55.068L205.084 55.1571L192.758 57.0481L191.857 57.1867L192.312 56.3947L198.451 45.7019V46.1276C197.002 42.5906 196.386 38.768 196.651 34.9551C196.915 31.1423 198.053 27.4412 199.975 24.138C201.896 20.8452 204.536 18.0292 207.698 15.9006C210.855 13.8002 214.447 12.4419 218.204 11.9275C221.96 11.4131 225.785 11.756 229.39 12.9304C232.958 14.144 236.209 16.1398 238.905 18.7718C241.596 21.3972 243.653 24.601 244.921 28.1401C246.188 31.6791 246.633 35.4604 246.222 39.1971ZM246.222 39.1971C246.622 35.4788 246.162 31.7184 244.878 28.206C243.594 24.6937 241.52 21.5234 238.816 18.94C236.112 16.3566 232.85 14.4292 229.283 13.3065C225.716 12.1838 221.938 11.8959 218.242 12.465C214.583 13.0066 211.097 14.3819 208.054 16.4847C205.037 18.6041 202.517 21.354 200.668 24.544C198.848 27.741 197.775 31.3086 197.53 34.9793C197.289 38.6749 197.884 42.3773 199.272 45.8108L199.361 46.0286L199.243 46.2365L193.025 56.8897L192.589 56.2362L204.945 54.5036H205.114L205.233 54.6125C208.536 57.6867 212.629 59.7813 217.054 60.6619C218.157 60.8866 219.276 61.0223 220.401 61.0678C221.525 61.147 222.653 61.147 223.777 61.0678C226.031 60.8862 228.249 60.3965 230.371 59.6124C232.497 58.8384 234.498 57.7577 236.311 56.4046C238.157 55.0834 239.792 53.4913 241.162 51.6819C243.971 48.0681 245.722 43.7464 246.222 39.1971Z" fill="#263238"/>
<path d="M209.619 48.138C209.6 47.8102 209.648 47.482 209.761 47.1738C209.874 46.8655 210.05 46.5838 210.276 46.3462C210.503 46.1085 210.776 45.9199 211.078 45.7921C211.381 45.6644 211.706 45.6001 212.034 45.6034C212.707 45.6034 213.351 45.8704 213.827 46.3458C214.302 46.8211 214.569 47.4658 214.569 48.138C214.569 48.8102 214.302 49.4549 213.827 49.9302C213.351 50.4055 212.707 50.6726 212.034 50.6726C211.706 50.6758 211.381 50.6116 211.078 50.4838C210.776 50.356 210.503 50.1675 210.276 49.9298C210.05 49.6921 209.874 49.4104 209.761 49.1022C209.648 48.794 209.6 48.4658 209.619 48.138ZM210.609 42.2866L210.034 22.6436H213.995L213.421 42.2866H210.609Z" fill="#2986CE"/>
<path d="M219.034 48.138C219.015 47.811 219.064 47.4837 219.176 47.1761C219.289 46.8686 219.463 46.5873 219.688 46.3498C219.914 46.1123 220.186 45.9235 220.487 45.7951C220.788 45.6667 221.113 45.6015 221.44 45.6034C222.112 45.6034 222.757 45.8704 223.232 46.3458C223.708 46.8211 223.975 47.4658 223.975 48.138C223.975 48.8102 223.708 49.4549 223.232 49.9302C222.757 50.4055 222.112 50.6726 221.44 50.6726C221.113 50.6745 220.788 50.6092 220.487 50.4808C220.186 50.3525 219.914 50.1637 219.688 49.9262C219.463 49.6886 219.289 49.4074 219.176 49.0998C219.064 48.7923 219.015 48.4649 219.034 48.138ZM220.024 42.2866L219.48 22.6436H223.44L222.866 42.2866H220.024Z" fill="#2986CE"/>
<path d="M228.44 48.138C228.421 47.8102 228.47 47.482 228.583 47.1738C228.696 46.8655 228.871 46.5838 229.098 46.3462C229.324 46.1085 229.597 45.9199 229.9 45.7921C230.202 45.6644 230.528 45.6001 230.856 45.6034C231.528 45.6034 232.173 45.8704 232.648 46.3458C233.123 46.8211 233.39 47.4658 233.39 48.138C233.39 48.8102 233.123 49.4549 232.648 49.9302C232.173 50.4055 231.528 50.6726 230.856 50.6726C230.528 50.6758 230.202 50.6116 229.9 50.4838C229.597 50.356 229.324 50.1675 229.098 49.9298C228.871 49.6921 228.696 49.4104 228.583 49.1022C228.47 48.794 228.421 48.4658 228.44 48.138ZM229.43 42.2866L228.856 22.6436H232.816L232.252 42.2866H229.43Z" fill="#2986CE"/>
</svg>
