<svg width="20" height="14" viewBox="0 0 20 14" fill="none" xmlns="http://www.w3.org/2000/svg">
<path d="M12.5 7C12.5 7.66304 12.2366 8.29893 11.7678 8.76777C11.2989 9.23661 10.663 9.5 10 9.5C9.33696 9.5 8.70107 9.23661 8.23223 8.76777C7.76339 8.29893 7.5 7.66304 7.5 7C7.5 6.33696 7.76339 5.70107 8.23223 5.23223C8.70107 4.76339 9.33696 4.5 10 4.5C10.663 4.5 11.2989 4.76339 11.7678 5.23223C12.2366 5.70107 12.5 6.33696 12.5 7Z" stroke="#2986CE" stroke-width="1.5" stroke-linecap="round" stroke-linejoin="round"/>
<path d="M1.6665 7.00033C2.99984 3.58616 6.11317 1.16699 9.99984 1.16699C13.8865 1.16699 16.9998 3.58616 18.3332 7.00033C16.9998 10.4145 13.8865 12.8337 9.99984 12.8337C6.11317 12.8337 2.99984 10.4145 1.6665 7.00033Z" stroke="#2986CE" stroke-width="1.5" stroke-linecap="round" stroke-linejoin="round"/>
</svg>
