<svg width="24" height="24" viewBox="0 0 24 24" fill="none" xmlns="http://www.w3.org/2000/svg">
<path d="M11.8289 4.84993C11.8289 4.70075 11.8882 4.55767 11.9937 4.45218C12.0992 4.34669 12.2423 4.28743 12.3914 4.28743H19.4677C19.6169 4.28743 19.7599 4.34669 19.8654 4.45218C19.9709 4.55767 20.0302 4.70075 20.0302 4.84993C20.0302 4.99911 19.9709 5.14219 19.8654 5.24768C19.7599 5.35317 19.6169 5.41243 19.4677 5.41243H12.3914C12.2423 5.41243 12.0992 5.35317 11.9937 5.24768C11.8882 5.14219 11.8289 4.99911 11.8289 4.84993ZM19.4677 6.6653H10.8914C10.7423 6.6653 10.5992 6.72457 10.4937 6.83006C10.3882 6.93555 10.3289 7.07862 10.3289 7.2278C10.3289 7.37699 10.3882 7.52006 10.4937 7.62555C10.5992 7.73104 10.7423 7.79031 10.8914 7.79031H19.4677C19.6169 7.79031 19.7599 7.73104 19.8654 7.62555C19.9709 7.52006 20.0302 7.37699 20.0302 7.2278C20.0302 7.07862 19.9709 6.93555 19.8654 6.83006C19.7599 6.72457 19.6169 6.6653 19.4677 6.6653ZM19.4677 10.6879H12.3914C12.2423 10.6879 12.0992 10.7472 11.9937 10.8527C11.8882 10.9582 11.8289 11.1012 11.8289 11.2504C11.8289 11.3996 11.8882 11.5427 11.9937 11.6482C12.0992 11.7537 12.2423 11.8129 12.3914 11.8129H19.4677C19.6169 11.8129 19.7599 11.7537 19.8654 11.6482C19.9709 11.5427 20.0302 11.3996 20.0302 11.2504C20.0302 11.1012 19.9709 10.9582 19.8654 10.8527C19.7599 10.7472 19.6169 10.6879 19.4677 10.6879ZM19.4677 13.0666H10.8914C10.7423 13.0666 10.5992 13.1258 10.4937 13.2313C10.3882 13.3368 10.3289 13.4799 10.3289 13.6291C10.3289 13.7782 10.3882 13.9213 10.4937 14.0268C10.5992 14.1323 10.7423 14.1916 10.8914 14.1916H19.4677C19.6169 14.1916 19.7599 14.1323 19.8654 14.0268C19.9709 13.9213 20.0302 13.7782 20.0302 13.6291C20.0302 13.4799 19.9709 13.3368 19.8654 13.2313C19.7599 13.1258 19.6169 13.0666 19.4677 13.0666ZM7.78869 9.81043H4.53369C4.38451 9.81043 4.24143 9.86969 4.13594 9.97518C4.03045 10.0807 3.97119 10.2237 3.97119 10.3729V13.6279C3.97119 13.7771 4.03045 13.9202 4.13594 14.0257C4.24143 14.1312 4.38451 14.1904 4.53369 14.1904H7.78869C7.93788 14.1904 8.08095 14.1312 8.18644 14.0257C8.29193 13.9202 8.35119 13.7771 8.35119 13.6279V10.3729C8.35119 10.2237 8.29193 10.0807 8.18644 9.97518C8.08095 9.86969 7.93788 9.81043 7.78869 9.81043ZM7.78869 3.40918H4.53369C4.38451 3.40918 4.24143 3.46844 4.13594 3.57393C4.03045 3.67942 3.97119 3.8225 3.97119 3.97168V7.22668C3.97119 7.37586 4.03045 7.51894 4.13594 7.62443C4.24143 7.72992 4.38451 7.78918 4.53369 7.78918H7.78869C7.93788 7.78918 8.08095 7.72992 8.18644 7.62443C8.29193 7.51894 8.35119 7.37586 8.35119 7.22668V3.97168C8.35119 3.8225 8.29193 3.67942 8.18644 3.57393C8.08095 3.46844 7.93788 3.40918 7.78869 3.40918ZM7.78869 16.2117H4.53369C4.38451 16.2117 4.24143 16.2709 4.13594 16.3764C4.03045 16.4819 3.97119 16.625 3.97119 16.7742V20.0292C3.97119 20.1784 4.03045 20.3214 4.13594 20.4269C4.24143 20.5324 4.38451 20.5917 4.53369 20.5917H7.78869C7.93788 20.5917 8.08095 20.5324 8.18644 20.4269C8.29193 20.3214 8.35119 20.1784 8.35119 20.0292V16.7742C8.35119 16.625 8.29193 16.4819 8.18644 16.3764C8.08095 16.2709 7.93788 16.2117 7.78869 16.2117ZM19.4677 17.0884H12.3914C12.2423 17.0884 12.0992 17.1477 11.9937 17.2532C11.8882 17.3587 11.8289 17.5017 11.8289 17.6509C11.8289 17.8001 11.8882 17.9432 11.9937 18.0487C12.0992 18.1542 12.2423 18.2134 12.3914 18.2134H19.4677C19.6169 18.2134 19.7599 18.1542 19.8654 18.0487C19.9709 17.9432 20.0302 17.8001 20.0302 17.6509C20.0302 17.5017 19.9709 17.3587 19.8654 17.2532C19.7599 17.1477 19.6169 17.0884 19.4677 17.0884ZM19.4677 19.4671H10.8914C10.7423 19.4671 10.5992 19.5263 10.4937 19.6318C10.3882 19.7373 10.3289 19.8804 10.3289 20.0296C10.3289 20.1787 10.3882 20.3218 10.4937 20.4273C10.5992 20.5328 10.7423 20.5921 10.8914 20.5921H19.4677C19.6169 20.5921 19.7599 20.5328 19.8654 20.4273C19.9709 20.3218 20.0302 20.1787 20.0302 20.0296C20.0302 19.8804 19.9709 19.7373 19.8654 19.6318C19.7599 19.5263 19.6169 19.4671 19.4677 19.4671Z" fill="#222222"/>
</svg>
