<svg width="36" height="36" viewBox="0 0 36 36" fill="none" xmlns="http://www.w3.org/2000/svg">
<path d="M29.1135 18.2396V18.2373L29.1072 18.2297C29.0798 18.1645 29.0404 18.105 28.991 18.0544L22.2051 11.3148C22.1527 11.2628 22.0905 11.2215 22.0221 11.1935C21.9537 11.1654 21.8805 11.1511 21.8066 11.1514C21.7327 11.1516 21.6595 11.1664 21.5913 11.195C21.5231 11.2235 21.4612 11.2652 21.4091 11.3176C21.3571 11.3701 21.3158 11.4322 21.2878 11.5006C21.2597 11.569 21.2454 11.6423 21.2457 11.7162C21.2459 11.7901 21.2607 11.8632 21.2893 11.9314C21.3178 11.9996 21.3595 12.0615 21.4119 12.1136L27.2292 17.8914H8.34424C8.19505 17.8914 8.05198 17.9506 7.94649 18.0561C7.841 18.1616 7.78174 18.3047 7.78174 18.4539C7.78174 18.6031 7.841 18.7461 7.94649 18.8516C8.05198 18.9571 8.19505 19.0164 8.34424 19.0164H27.2435L21.4092 24.8929C21.304 24.9988 21.2452 25.1422 21.2457 25.2915C21.2462 25.4408 21.306 25.5837 21.412 25.6889C21.5179 25.7941 21.6612 25.8529 21.8105 25.8524C21.9598 25.8519 22.1028 25.7921 22.208 25.6862L28.9917 18.8516L28.9934 18.8504C29.0612 18.7786 29.1082 18.6896 29.1293 18.593C29.1348 18.5714 29.139 18.5495 29.1418 18.5273C29.1578 18.4306 29.1481 18.3313 29.1135 18.2396Z" fill="white"/>
<path d="M6.72863 18.4537C6.72863 18.0061 6.90642 17.5769 7.22288 17.2605C7.53935 16.944 7.96857 16.7662 8.41613 16.7662H15.693V3.92578C15.693 3.7766 15.6337 3.63352 15.5282 3.52803C15.4227 3.42254 15.2796 3.36328 15.1305 3.36328H4.96924C4.52183 3.36376 4.09289 3.5417 3.77652 3.85806C3.46016 4.17443 3.28221 4.60337 3.28174 5.05078V32.0508C3.28221 32.4982 3.46016 32.9271 3.77652 33.2435C4.09289 33.5599 4.52183 33.7378 4.96924 33.7383H15.1305C15.2796 33.7383 15.4227 33.679 15.5282 33.5735C15.6337 33.468 15.693 33.325 15.693 33.1758V20.1412H8.41613C7.96857 20.1412 7.53935 19.9634 7.22288 19.6469C6.90642 19.3305 6.72863 18.9012 6.72863 18.4537Z" fill="white"/>
</svg>
