<svg width="24" height="24" viewBox="0 0 24 24" fill="none" xmlns="http://www.w3.org/2000/svg">
<path d="M19.0885 6.5762C19.0117 6.28796 18.8554 5.981 18.74 5.71219C17.3578 2.3906 14.3379 1.2002 11.8995 1.2002C8.63526 1.2002 5.04006 3.38899 4.56006 7.90075V8.82259C4.56006 8.86099 4.57326 9.2066 4.59222 9.3794C4.86126 11.5296 6.55782 13.8146 7.82502 15.9648C9.18822 18.2685 10.6028 20.5346 12.0046 22.7997C12.8686 21.3216 13.7297 19.824 14.5743 18.384C14.8045 17.9613 15.0713 17.5389 15.3017 17.1357C15.4553 16.8672 15.7486 16.5986 15.8828 16.3488C17.2457 13.8535 19.4401 11.3378 19.4401 8.86099V7.8434C19.4401 7.57484 19.1072 6.63404 19.0885 6.5762ZM11.9593 11.2034C10.9997 11.2034 9.9495 10.7236 9.4311 9.39859C9.35382 9.18763 9.36006 8.765 9.36006 8.72636V8.13116C9.36006 6.44204 10.7943 5.6738 12.0421 5.6738C13.5781 5.6738 14.7663 6.90283 14.7663 8.43884C14.7663 9.97484 13.4953 11.2034 11.9593 11.2034Z" fill="#222222"/>
</svg>
