<svg width="262" height="203" viewBox="0 0 262 203" fill="none" xmlns="http://www.w3.org/2000/svg">
<path d="M232.614 144.1H137.922C137.108 144.098 136.328 143.774 135.752 143.199C135.177 142.623 134.853 141.843 134.852 141.029V3.07028C134.854 2.25723 135.179 1.47835 135.754 0.903925C136.33 0.329499 137.109 0.0062632 137.922 0.00488281H232.614C233.427 0.0062632 234.207 0.329499 234.782 0.903925C235.358 1.47835 235.682 2.25723 235.685 3.07028V141.029C235.683 141.843 235.36 142.623 234.784 143.199C234.208 143.774 233.428 144.098 232.614 144.1ZM137.922 0.135883C137.535 0.13312 137.151 0.206942 136.792 0.353107C136.433 0.499273 136.107 0.7149 135.832 0.987591C135.557 1.26028 135.338 1.58466 135.189 1.94208C135.04 2.2995 134.962 2.68291 134.962 3.07028V141.029C134.962 141.809 135.271 142.556 135.823 143.108C136.374 143.659 137.122 143.969 137.901 143.969H232.614C233.394 143.969 234.142 143.659 234.693 143.108C235.244 142.556 235.554 141.809 235.554 141.029V3.07028C235.554 2.29064 235.244 1.54293 234.693 0.991645C234.142 0.440355 233.394 0.130642 232.614 0.130642L137.922 0.135883Z" fill="#F0F0F0"/>
<path d="M123.397 144.1H28.6839C27.87 144.099 27.0897 143.775 26.5142 143.199C25.9386 142.624 25.6147 141.843 25.6133 141.029V3.07064C25.6147 2.25668 25.9386 1.47646 26.5142 0.900901C27.0897 0.325344 27.87 0.00138546 28.6839 0H123.397C124.211 0.00138546 124.991 0.325344 125.567 0.900901C126.142 1.47646 126.466 2.25668 126.468 3.07064V141.029C126.466 141.843 126.142 142.624 125.567 143.199C124.991 143.775 124.211 144.099 123.397 144.1ZM28.6839 0.136241C27.9052 0.13624 27.1583 0.445232 26.6071 0.995389C26.056 1.54555 25.7457 2.29191 25.7443 3.07064V141.029C25.7443 141.809 26.054 142.557 26.6053 143.108C27.1566 143.659 27.9043 143.969 28.6839 143.969H123.397C124.177 143.969 124.924 143.659 125.476 143.108C126.027 142.557 126.337 141.809 126.337 141.029V3.07064C126.337 2.291 126.027 1.54329 125.476 0.992003C124.924 0.440713 124.177 0.131 123.397 0.131L28.6839 0.136241Z" fill="#F0F0F0"/>
<path d="M262 176.101H0V176.232H262V176.101Z" fill="#E0E0E0"/>
<path d="M246.076 113.859H146.516C146.516 114.668 146.837 115.444 147.409 116.016C147.981 116.588 148.756 116.909 149.565 116.909H243.021C243.83 116.909 244.606 116.588 245.179 116.016C245.752 115.444 246.074 114.669 246.076 113.859Z" fill="#E0E0E0"/>
<path d="M226.52 142.722H166.968V145.546H226.52V142.722Z" fill="#E0E0E0"/>
<path d="M224.414 176.137L232.531 116.909H229.68L221.563 176.137H224.414Z" fill="#E6E6E6"/>
<path d="M231.085 176.137L222.837 116.909H225.687L233.935 176.137H231.085Z" fill="#E6E6E6"/>
<path d="M162.414 176.137L170.877 116.909H168.026L159.563 176.137H162.414Z" fill="#E6E6E6"/>
<path d="M169.084 176.137L160.967 116.909H163.817L171.934 176.137H169.084Z" fill="#E6E6E6"/>
<path d="M249.414 108.961H143.173V113.876H249.414V108.961Z" fill="#E6E6E6"/>
<path d="M181.462 108.977H227.574L228.051 107.871C228.365 107.164 227.527 106.451 226.405 106.451H183.883C183.561 106.423 183.238 106.483 182.948 106.625C182.658 106.768 182.412 106.986 182.237 107.258L181.462 108.977Z" fill="#E0E0E0"/>
<path d="M240.207 76.8863L234.307 101.844C234.231 102.168 234.047 102.456 233.787 102.662C233.526 102.869 233.204 102.981 232.871 102.981H196.516C196.294 102.981 196.075 102.93 195.875 102.833C195.675 102.736 195.499 102.595 195.361 102.421C195.223 102.247 195.126 102.044 195.078 101.827C195.029 101.61 195.03 101.385 195.081 101.168L200.981 76.2051C201.058 75.8827 201.242 75.5958 201.503 75.3905C201.763 75.1852 202.085 75.0734 202.417 75.0732H238.772C238.994 75.0728 239.214 75.1227 239.415 75.2194C239.615 75.3161 239.791 75.4571 239.929 75.6316C240.067 75.8061 240.164 76.0096 240.212 76.227C240.261 76.4443 240.259 76.6697 240.207 76.8863Z" fill="#F0F0F0"/>
<path d="M222.543 90.0022C222.444 90.7735 222.073 91.4842 221.497 92.006C220.92 92.5278 220.176 92.8263 219.399 92.8475C219.037 92.8556 218.677 92.7848 218.345 92.6402C218.013 92.4955 217.716 92.2805 217.476 92.0098C217.235 91.7392 217.056 91.4195 216.951 91.0729C216.846 90.7262 216.818 90.3609 216.868 90.0022C216.966 89.2308 217.337 88.5201 217.914 87.9983C218.49 87.4766 219.235 87.1781 220.012 87.1569C220.374 87.1488 220.734 87.2196 221.066 87.3642C221.398 87.5088 221.694 87.7239 221.935 87.9945C222.176 88.2652 222.355 88.5849 222.46 88.9315C222.565 89.2782 222.593 89.6435 222.543 90.0022Z" fill="#E0E0E0"/>
<path d="M203.857 75.0732L197.569 102.981H196.521C196.299 102.981 196.08 102.93 195.88 102.833C195.68 102.736 195.504 102.595 195.366 102.421C195.228 102.247 195.131 102.044 195.083 101.827C195.034 101.61 195.035 101.385 195.085 101.168L200.986 76.2051C201.063 75.8827 201.247 75.5958 201.508 75.3905C201.768 75.1852 202.09 75.0734 202.421 75.0732H203.857Z" fill="#E0E0E0"/>
<path d="M214.389 102.981L213.147 108.908H216.789L218.031 102.981H214.389Z" fill="#E0E0E0"/>
<path d="M207.833 107.907L208.577 106.859C208.708 106.674 208.882 106.523 209.084 106.419C209.285 106.315 209.509 106.261 209.735 106.262H219.723C219.982 106.262 220.236 106.332 220.458 106.466C220.679 106.6 220.86 106.792 220.98 107.022L221.504 107.986C221.557 108.088 221.583 108.203 221.579 108.319C221.575 108.434 221.541 108.547 221.481 108.645C221.421 108.744 221.337 108.826 221.237 108.883C221.136 108.94 221.023 108.97 220.907 108.971H208.383C208.259 108.972 208.137 108.939 208.031 108.875C207.925 108.811 207.838 108.719 207.781 108.608C207.724 108.498 207.699 108.374 207.708 108.25C207.717 108.126 207.761 108.008 207.833 107.907Z" fill="#E0E0E0"/>
<path d="M192.989 28.6416L192.69 28.1648L210.234 17.1084L227.353 28.4111L227.039 28.8827L210.229 17.7791L192.989 28.6416Z" fill="#F0F0F0"/>
<path d="M227.725 28.1914H192.387V50.2937H227.725V28.1914Z" fill="#E0E0E0"/>
<path d="M226.745 49.3144V29.1719L193.366 29.1719V49.3144H226.745Z" fill="white"/>
<path d="M198.109 35.4854H195.977V37.618H198.109V35.4854Z" fill="#F0F0F0"/>
<path d="M201.399 35.4854H199.267V37.618H201.399V35.4854Z" fill="#F0F0F0"/>
<path d="M204.685 35.4854H202.553V37.618H204.685V35.4854Z" fill="#F0F0F0"/>
<path d="M207.975 35.4854H205.843V37.618H207.975V35.4854Z" fill="#F0F0F0"/>
<path d="M211.261 35.4854H209.128V37.618H211.261V35.4854Z" fill="#F0F0F0"/>
<path d="M214.552 35.4854H212.419V37.618H214.552V35.4854Z" fill="#F0F0F0"/>
<path d="M217.837 35.4854H215.704V37.618H217.837V35.4854Z" fill="#F0F0F0"/>
<path d="M221.128 35.4854H218.995V37.618H221.128V35.4854Z" fill="#F0F0F0"/>
<path d="M224.413 35.4854H222.28V37.618H224.413V35.4854Z" fill="#F0F0F0"/>
<path d="M198.109 38.4199H195.977V40.5526H198.109V38.4199Z" fill="#F0F0F0"/>
<path d="M201.399 38.4199H199.267V40.5526H201.399V38.4199Z" fill="#F0F0F0"/>
<path d="M204.685 38.4199H202.553V40.5526H204.685V38.4199Z" fill="#F0F0F0"/>
<path d="M207.975 38.4199H205.843V40.5526H207.975V38.4199Z" fill="#F0F0F0"/>
<path d="M211.261 38.4199H209.128V40.5526H211.261V38.4199Z" fill="#F0F0F0"/>
<path d="M214.552 38.4199H212.419V40.5526H214.552V38.4199Z" fill="#F0F0F0"/>
<path d="M217.837 38.4199H215.704V40.5526H217.837V38.4199Z" fill="#F0F0F0"/>
<path d="M221.128 38.4199H218.995V40.5526H221.128V38.4199Z" fill="#F0F0F0"/>
<path d="M224.413 38.4199H222.28V40.5526H224.413V38.4199Z" fill="#F0F0F0"/>
<path d="M198.109 41.3545H195.977V43.4872H198.109V41.3545Z" fill="#F0F0F0"/>
<path d="M201.399 41.3545H199.267V43.4872H201.399V41.3545Z" fill="#F0F0F0"/>
<path d="M204.685 41.3545H202.553V43.4872H204.685V41.3545Z" fill="#F0F0F0"/>
<path d="M207.975 41.3545H205.843V43.4872H207.975V41.3545Z" fill="#F0F0F0"/>
<path d="M211.261 41.3545H209.128V43.4872H211.261V41.3545Z" fill="#F0F0F0"/>
<path d="M214.552 41.3545H212.419V43.4872H214.552V41.3545Z" fill="#F0F0F0"/>
<path d="M217.837 41.3545H215.704V43.4872H217.837V41.3545Z" fill="#F0F0F0"/>
<path d="M221.128 41.3545H218.995V43.4872H221.128V41.3545Z" fill="#F0F0F0"/>
<path d="M224.413 41.3545H222.28V43.4872H224.413V41.3545Z" fill="#F0F0F0"/>
<path d="M198.109 44.5137H195.977V46.6464H198.109V44.5137Z" fill="#F0F0F0"/>
<path d="M201.399 44.5137H199.267V46.6464H201.399V44.5137Z" fill="#F0F0F0"/>
<path d="M204.685 44.5137H202.553V46.6464H204.685V44.5137Z" fill="#F0F0F0"/>
<path d="M207.975 44.5137H205.843V46.6464H207.975V44.5137Z" fill="#F0F0F0"/>
<path d="M219.681 31.1416H200.707V32.9861H219.681V31.1416Z" fill="#E0E0E0"/>
<path d="M211.362 17.3078C211.362 17.515 211.3 17.7177 211.185 17.89C211.07 18.0623 210.906 18.1967 210.715 18.276C210.523 18.3553 210.312 18.3761 210.109 18.3356C209.906 18.2952 209.719 18.1954 209.573 18.0488C209.426 17.9022 209.326 17.7155 209.286 17.5122C209.245 17.3089 209.266 17.0982 209.345 16.9067C209.425 16.7152 209.559 16.5515 209.731 16.4364C209.904 16.3212 210.106 16.2598 210.314 16.2598C210.592 16.2598 210.858 16.3702 211.055 16.5667C211.251 16.7633 211.362 17.0298 211.362 17.3078Z" fill="#E0E0E0"/>
<path d="M179.392 6.42969H142.544V95.9551H179.392V6.42969Z" fill="#F0F0F0"/>
<path d="M177.143 8.68262H144.791V93.7121H177.143V8.68262Z" fill="#FAFAFA"/>
<path d="M177.143 12.3242V18.7432L144.791 51.1002V44.676L177.143 12.3242Z" fill="white"/>
<path d="M177.143 34.5264V43.5811L144.791 75.9276V66.8677L177.143 34.5264Z" fill="white"/>
<path d="M162.084 6.42969H159.857V95.9551H162.084V6.42969Z" fill="#F0F0F0"/>
<path d="M114.625 6.42969H77.7773V95.9551H114.625V6.42969Z" fill="#F0F0F0"/>
<path d="M112.377 8.68262H80.0254V93.7121H112.377V8.68262Z" fill="#FAFAFA"/>
<path d="M112.377 12.3242V18.7432L80.0254 51.1002V44.676L112.377 12.3242Z" fill="white"/>
<path d="M112.377 34.5264V43.5811L80.0254 75.9276V66.8677L112.377 34.5264Z" fill="white"/>
<path d="M97.312 6.42969H95.085V95.9551H97.312V6.42969Z" fill="#F0F0F0"/>
<path d="M89.2637 164.143C89.2637 164.143 84.8096 165.133 85.4699 162.047C86.1301 158.96 86.083 157.792 84.2752 156.382C82.4674 154.973 80.6439 154.286 82.0272 152.033C83.4106 149.78 80.7853 148.061 79.4072 146.856C78.0291 145.651 79.5854 144.76 79.9312 142.47C80.2771 140.18 77.8352 140.536 77.6466 137.67C77.4579 134.804 80.3661 131.455 77.8666 127.51C77.8666 127.51 81.2255 129.255 82.3311 132.315C83.4368 135.375 82.546 137.743 84.5319 138.907C86.5179 140.07 87.7598 142.087 87.0838 144.147C86.4078 146.206 87.3668 147.291 88.9964 148.816C90.6261 150.34 90.1911 150.912 89.992 152.767C89.7929 154.622 90.1964 154.176 92.0566 156.691C93.9168 159.207 94.0006 163.32 89.2637 164.143Z" fill="#F0F0F0"/>
<path d="M89.8974 164.007C89.8957 163.991 89.8957 163.975 89.8974 163.959L80.9894 136.911C80.9804 136.883 80.9769 136.854 80.9792 136.825C80.9814 136.796 80.9894 136.768 81.0025 136.742C81.0156 136.716 81.0337 136.694 81.0558 136.675C81.0778 136.656 81.1033 136.642 81.1309 136.633C81.158 136.624 81.1867 136.62 81.2152 136.623C81.2437 136.625 81.2715 136.633 81.2968 136.646C81.3222 136.659 81.3447 136.678 81.363 136.7C81.3813 136.721 81.395 136.747 81.4033 136.774L90.3113 163.818C90.3135 163.841 90.3135 163.863 90.3113 163.886L89.8974 164.007Z" fill="#E0E0E0"/>
<path d="M97.2963 164.09C97.2963 164.09 101.729 165.07 101.069 161.994C100.409 158.918 100.461 157.765 102.259 156.361C104.056 154.957 105.874 154.265 104.491 152.038C103.107 149.811 105.733 148.082 107.111 146.887C108.489 145.692 106.933 144.791 106.587 142.522C106.241 140.253 108.683 140.599 108.856 137.749C109.029 134.898 106.152 131.565 108.641 127.641C108.641 127.641 105.298 129.375 104.197 132.425C103.097 135.474 103.983 137.822 102.007 138.98C100.032 140.138 98.7949 142.124 99.4709 144.22C100.147 146.316 99.1879 147.364 97.5688 148.863C95.9496 150.361 96.3793 150.959 96.5784 152.793C96.7775 154.627 96.374 154.192 94.5243 156.696C92.6746 159.201 92.5855 163.267 97.2963 164.09Z" fill="#F0F0F0"/>
<path d="M96.259 163.833C96.2561 163.811 96.2561 163.788 96.259 163.765L105.125 136.863C105.133 136.836 105.147 136.81 105.165 136.788C105.184 136.766 105.206 136.748 105.232 136.735C105.257 136.722 105.285 136.714 105.313 136.712C105.342 136.709 105.37 136.713 105.398 136.722C105.425 136.731 105.451 136.745 105.473 136.764C105.495 136.782 105.513 136.805 105.526 136.831C105.539 136.857 105.547 136.885 105.549 136.914C105.552 136.943 105.548 136.972 105.539 136.999L96.673 163.902C96.6759 163.919 96.6759 163.937 96.673 163.954L96.259 163.833Z" fill="#E0E0E0"/>
<path d="M92.3806 163.524C92.3806 163.524 87.2821 163.105 89.0218 159.998C90.7615 156.89 91.0916 155.643 89.6191 153.531C88.1467 151.42 86.4332 150.062 88.6602 148.129C90.8872 146.195 88.6602 143.46 87.6122 141.72C86.5642 139.981 88.503 139.514 89.6401 137.198C90.7772 134.882 88.0681 134.437 88.7912 131.303C89.5143 128.17 93.7692 125.539 92.4016 120.493C92.4016 120.493 95.4198 123.475 95.5875 127.122C95.7552 130.769 94.0155 133.006 95.7552 134.914C97.4949 136.821 98.1551 139.389 96.7455 141.38C95.336 143.371 96.0015 144.859 97.2695 147.013C98.5376 149.166 97.8512 149.669 97.0233 151.572C96.1953 153.474 96.7717 153.144 97.935 156.466C99.0983 159.788 97.7254 164.216 92.3806 163.524Z" fill="#F5F5F5"/>
<path d="M93.1037 163.587C93.1008 163.568 93.1008 163.549 93.1037 163.529L92.543 131.602C92.5423 131.569 92.5482 131.537 92.5602 131.506C92.5723 131.476 92.5903 131.448 92.6133 131.425C92.6362 131.401 92.6636 131.383 92.6938 131.37C92.7241 131.357 92.7565 131.351 92.7893 131.351C92.8537 131.351 92.9156 131.376 92.9616 131.421C93.0077 131.466 93.0342 131.527 93.0356 131.592L93.5963 163.519C93.6014 163.545 93.6014 163.572 93.5963 163.598L93.1037 163.587Z" fill="#E0E0E0"/>
<path d="M106.257 161.062H81.3299C81.166 161.066 81.0054 161.109 80.861 161.187C80.7166 161.265 80.5926 161.375 80.4988 161.51C80.405 161.644 80.3441 161.799 80.321 161.962C80.2979 162.124 80.3132 162.289 80.3658 162.445L80.7378 163.425L80.9684 164.048L81.6391 165.825L81.8749 166.443L82.5613 168.267L82.7919 168.885L85.5377 176.168H102.049L104.795 168.885L105.025 168.267L105.712 166.443L105.947 165.825L106.618 164.048L106.849 163.425L107.221 162.445C107.273 162.289 107.289 162.124 107.266 161.962C107.242 161.799 107.182 161.644 107.088 161.51C106.994 161.375 106.87 161.265 106.726 161.187C106.581 161.109 106.421 161.066 106.257 161.062Z" fill="#E6E6E6"/>
<path d="M46.6985 28.4273C51.6617 28.4273 55.6851 24.4039 55.6851 19.4407C55.6851 14.4775 51.6617 10.4541 46.6985 10.4541C41.7354 10.4541 37.7119 14.4775 37.7119 19.4407C37.7119 24.4039 41.7354 28.4273 46.6985 28.4273Z" fill="#E0E0E0"/>
<path d="M54.8696 20.8207C55.6266 16.3113 52.5847 12.042 48.0754 11.285C43.566 10.528 39.2967 13.5698 38.5397 18.0792C37.7826 22.5886 40.8245 26.8578 45.3339 27.6149C49.8433 28.3719 54.1125 25.33 54.8696 20.8207Z" fill="#FAFAFA"/>
<path d="M46.7252 11.9102H46.416V13.6394H46.7252V11.9102Z" fill="#E0E0E0"/>
<path d="M46.7252 25.1943H46.416V26.9235H46.7252V25.1943Z" fill="#E0E0E0"/>
<path d="M40.7937 19.2617H39.0645V19.5709H40.7937V19.2617Z" fill="#E0E0E0"/>
<path d="M54.0769 19.2617H52.3477V19.5709H54.0769V19.2617Z" fill="#E0E0E0"/>
<path d="M51.7723 13.9948L50.5498 15.2178L50.7685 15.4363L51.991 14.2134L51.7723 13.9948Z" fill="#E0E0E0"/>
<path d="M42.3749 23.3845L41.1523 24.6074L41.371 24.826L42.5935 23.6031L42.3749 23.3845Z" fill="#E0E0E0"/>
<path d="M41.3729 14.007L41.1543 14.2256L42.377 15.4483L42.5956 15.2297L41.3729 14.007Z" fill="#E0E0E0"/>
<path d="M50.7645 23.3888L50.5459 23.6074L51.7688 24.8299L51.9874 24.6113L50.7645 23.3888Z" fill="#E0E0E0"/>
<path d="M46.512 19.2064L46.4141 19.4551L49.3395 20.6068L49.4374 20.3582L46.512 19.2064Z" fill="#E0E0E0"/>
<path d="M46.7034 19.5509H41.8721V19.2837H46.4361V15.5371H46.7034V19.5509Z" fill="#E0E0E0"/>
<path d="M244.682 199.97C244.682 201.358 193.781 202.48 131 202.48C68.2197 202.48 17.3184 201.358 17.3184 199.97C17.3184 198.581 68.2302 197.476 131 197.476C193.77 197.476 244.682 198.586 244.682 199.97Z" fill="#F5F5F5"/>
<path d="M110.601 20.0325C113.88 16.7542 113.88 11.4391 110.601 8.16088C107.323 4.88263 102.008 4.88263 98.7297 8.16088C95.4515 11.4391 95.4515 16.7542 98.7297 20.0325C102.008 23.3107 107.323 23.3107 110.601 20.0325Z" fill="#2986CE"/>
<path d="M108.873 14.0745C108.871 14.2617 108.796 14.4409 108.664 14.5732C108.532 14.7056 108.353 14.7806 108.165 14.7819H105.367V17.5801C105.352 17.7565 105.271 17.9208 105.141 18.0405C105.01 18.1603 104.84 18.2267 104.662 18.2267C104.485 18.2267 104.315 18.1603 104.184 18.0405C104.054 17.9208 103.973 17.7565 103.958 17.5801V14.7819H101.16C100.972 14.7806 100.793 14.7056 100.661 14.5732C100.528 14.4409 100.454 14.2617 100.452 14.0745C100.454 13.8873 100.528 13.7082 100.661 13.5758C100.793 13.4435 100.972 13.3685 101.16 13.3671H103.958V10.5899C103.973 10.4135 104.054 10.2492 104.184 10.1295C104.315 10.0098 104.485 9.94336 104.662 9.94336C104.84 9.94336 105.01 10.0098 105.141 10.1295C105.271 10.2492 105.352 10.4135 105.367 10.5899V13.3881H108.165C108.349 13.3893 108.525 13.4614 108.657 13.5893C108.789 13.7172 108.866 13.891 108.873 14.0745Z" fill="white"/>
<path d="M104.665 24.6179C104.632 24.6187 104.599 24.6126 104.568 24.6002C104.537 24.5879 104.509 24.5694 104.486 24.5459C104.462 24.5224 104.444 24.4943 104.431 24.4635C104.419 24.4327 104.413 24.3996 104.414 24.3664V23.8424C104.409 23.8067 104.411 23.7703 104.421 23.7356C104.431 23.701 104.449 23.669 104.472 23.6417C104.496 23.6144 104.525 23.5925 104.558 23.5775C104.591 23.5625 104.627 23.5547 104.663 23.5547C104.699 23.5547 104.734 23.5625 104.767 23.5775C104.8 23.5925 104.829 23.6144 104.853 23.6417C104.876 23.669 104.894 23.701 104.904 23.7356C104.914 23.7703 104.917 23.8067 104.912 23.8424V24.3664C104.912 24.3992 104.906 24.4318 104.894 24.4623C104.882 24.4928 104.864 24.5205 104.841 24.544C104.818 24.5674 104.791 24.586 104.761 24.5987C104.731 24.6114 104.698 24.6179 104.665 24.6179ZM104.912 36.3817V35.3809C104.917 35.3452 104.914 35.3088 104.904 35.2741C104.894 35.2395 104.876 35.2074 104.853 35.1801C104.829 35.1528 104.8 35.1309 104.767 35.1159C104.734 35.1009 104.699 35.0932 104.663 35.0932C104.627 35.0932 104.591 35.1009 104.558 35.1159C104.525 35.1309 104.496 35.1528 104.472 35.1801C104.449 35.2074 104.431 35.2395 104.421 35.2741C104.411 35.3088 104.409 35.3452 104.414 35.3809V36.3817C104.422 36.4415 104.452 36.4962 104.498 36.5358C104.544 36.5753 104.602 36.597 104.663 36.597C104.723 36.597 104.782 36.5753 104.827 36.5358C104.873 36.4962 104.903 36.4415 104.912 36.3817ZM104.912 33.3792V32.3784C104.917 32.3427 104.914 32.3063 104.904 32.2716C104.894 32.237 104.876 32.2049 104.853 32.1776C104.829 32.1503 104.8 32.1284 104.767 32.1134C104.734 32.0984 104.699 32.0907 104.663 32.0907C104.627 32.0907 104.591 32.0984 104.558 32.1134C104.525 32.1284 104.496 32.1503 104.472 32.1776C104.449 32.2049 104.431 32.237 104.421 32.2716C104.411 32.3063 104.409 32.3427 104.414 32.3784V33.3792C104.422 33.439 104.452 33.4937 104.498 33.5332C104.544 33.5728 104.602 33.5945 104.663 33.5945C104.723 33.5945 104.782 33.5728 104.827 33.5332C104.873 33.4937 104.903 33.439 104.912 33.3792ZM104.912 30.3767V29.3759C104.917 29.3401 104.914 29.3037 104.904 29.2691C104.894 29.2345 104.876 29.2024 104.853 29.1751C104.829 29.1478 104.8 29.1259 104.767 29.1109C104.734 29.0959 104.699 29.0881 104.663 29.0881C104.627 29.0881 104.591 29.0959 104.558 29.1109C104.525 29.1259 104.496 29.1478 104.472 29.1751C104.449 29.2024 104.431 29.2345 104.421 29.2691C104.411 29.3037 104.409 29.3401 104.414 29.3759V30.3767C104.422 30.4365 104.452 30.4912 104.498 30.5307C104.544 30.5702 104.602 30.592 104.663 30.592C104.723 30.592 104.782 30.5702 104.827 30.5307C104.873 30.4912 104.903 30.4365 104.912 30.3767ZM104.912 27.3742V26.3681C104.903 26.3083 104.873 26.2536 104.827 26.2141C104.782 26.1745 104.723 26.1528 104.663 26.1528C104.602 26.1528 104.544 26.1745 104.498 26.2141C104.452 26.2536 104.422 26.3083 104.414 26.3681V27.3742C104.422 27.434 104.452 27.4887 104.498 27.5282C104.544 27.5677 104.602 27.5895 104.663 27.5895C104.723 27.5895 104.782 27.5677 104.827 27.5282C104.873 27.4887 104.903 27.434 104.912 27.3742ZM105.436 38.9022C105.436 38.8355 105.409 38.7715 105.362 38.7243C105.315 38.6772 105.251 38.6507 105.184 38.6507H104.912V38.4044C104.917 38.3687 104.914 38.3323 104.904 38.2976C104.894 38.263 104.876 38.2309 104.853 38.2036C104.829 38.1763 104.8 38.1544 104.767 38.1394C104.734 38.1244 104.699 38.1167 104.663 38.1167C104.627 38.1167 104.591 38.1244 104.558 38.1394C104.525 38.1544 104.496 38.1763 104.472 38.2036C104.449 38.2309 104.431 38.263 104.421 38.2976C104.411 38.3323 104.409 38.3687 104.414 38.4044V38.9284C104.413 38.9616 104.419 38.9946 104.431 39.0255C104.444 39.0563 104.462 39.0843 104.486 39.1078C104.509 39.1313 104.537 39.1498 104.568 39.1622C104.599 39.1746 104.632 39.1806 104.665 39.1799H105.163C105.202 39.1851 105.242 39.1807 105.28 39.1671C105.317 39.1535 105.351 39.1311 105.377 39.1017C105.404 39.0724 105.423 39.037 105.434 38.9986C105.444 38.9602 105.444 38.9199 105.436 38.8812V38.9022ZM116.817 38.9022C116.817 38.8355 116.79 38.7715 116.743 38.7243C116.696 38.6772 116.632 38.6507 116.565 38.6507H115.617C115.551 38.652 115.487 38.6789 115.441 38.7258C115.394 38.7727 115.367 38.8359 115.365 38.9022C115.365 38.9689 115.392 39.0329 115.439 39.08C115.486 39.1272 115.55 39.1537 115.617 39.1537H116.565C116.599 39.1518 116.631 39.1431 116.661 39.1282C116.691 39.1132 116.717 39.0924 116.739 39.0669C116.761 39.0414 116.777 39.0118 116.787 38.9799C116.796 38.948 116.799 38.9144 116.796 38.8812L116.817 38.9022ZM113.972 38.9022C113.972 38.8355 113.945 38.7715 113.898 38.7243C113.851 38.6772 113.787 38.6507 113.72 38.6507H112.772C112.705 38.652 112.642 38.6789 112.595 38.7258C112.548 38.7727 112.521 38.8359 112.52 38.9022C112.52 38.9689 112.547 39.0329 112.594 39.08C112.641 39.1272 112.705 39.1537 112.772 39.1537H113.72C113.753 39.1518 113.786 39.1431 113.816 39.1282C113.846 39.1132 113.872 39.0924 113.894 39.0669C113.915 39.0414 113.931 39.0118 113.941 38.9799C113.951 38.948 113.954 38.9144 113.951 38.8812L113.972 38.9022ZM111.126 38.9022C111.126 38.8355 111.1 38.7715 111.053 38.7243C111.005 38.6772 110.941 38.6507 110.875 38.6507H109.926C109.86 38.652 109.797 38.6789 109.75 38.7258C109.703 38.7727 109.676 38.8359 109.675 38.9022C109.675 38.9689 109.701 39.0329 109.748 39.08C109.796 39.1272 109.86 39.1537 109.926 39.1537H110.875C110.908 39.1518 110.941 39.1431 110.97 39.1282C111 39.1132 111.027 39.0924 111.048 39.0669C111.07 39.0414 111.086 39.0118 111.096 38.9799C111.106 38.948 111.109 38.9144 111.105 38.8812L111.126 38.9022ZM108.281 38.9022C108.281 38.8355 108.254 38.7715 108.207 38.7243C108.16 38.6772 108.096 38.6507 108.029 38.6507H107.06C106.994 38.652 106.93 38.6789 106.884 38.7258C106.837 38.7727 106.81 38.8359 106.808 38.9022C106.808 38.9689 106.835 39.0329 106.882 39.08C106.929 39.1272 106.993 39.1537 107.06 39.1537H108.008C108.044 39.1546 108.078 39.1481 108.111 39.1344C108.143 39.1208 108.172 39.1004 108.196 39.0746C108.22 39.0488 108.238 39.0181 108.249 38.9848C108.26 38.9515 108.264 38.9161 108.26 38.8812L108.281 38.9022ZM119.217 38.9022C119.215 38.8359 119.188 38.7727 119.142 38.7258C119.095 38.6789 119.032 38.652 118.965 38.6507H118.441C118.375 38.652 118.313 38.6791 118.267 38.7262C118.221 38.7732 118.195 38.8364 118.195 38.9022C118.194 38.935 118.2 38.9675 118.212 38.998C118.224 39.0285 118.242 39.0563 118.265 39.0797C118.288 39.1032 118.316 39.1218 118.346 39.1345C118.376 39.1472 118.408 39.1537 118.441 39.1537H118.965C118.998 39.1511 119.031 39.1419 119.06 39.1268C119.09 39.1116 119.116 39.0908 119.137 39.0654C119.159 39.0401 119.175 39.0108 119.185 38.9792C119.195 38.9476 119.199 38.9143 119.196 38.8812L119.217 38.9022Z" fill="#2986CE"/>
<path d="M213.592 187.519L214.121 195.939L210.527 196.222L208.116 187.943L213.592 187.519Z" fill="#CE7A63"/>
<path d="M211.367 195.38C211.222 195.196 211.028 195.057 210.807 194.978C210.587 194.899 210.348 194.884 210.12 194.934C209.423 195.165 208.506 196.307 208.506 196.307C208.506 196.307 204.722 197.523 203.701 197.586C202.679 197.649 202.003 198.304 201.919 200.206H214.794C214.794 200.206 214.794 195.741 214.359 194.966C213.981 194.295 213.222 195.16 213.222 195.16L211.367 195.38Z" fill="#263238"/>
<path d="M202.211 199.623L204.449 199.597L214.216 199.498C214.238 199.493 214.257 199.48 214.271 199.463C214.285 199.445 214.293 199.423 214.293 199.401C214.293 199.378 214.285 199.356 214.271 199.339C214.257 199.321 214.238 199.309 214.216 199.304H213.551C213.35 198.822 213.343 198.282 213.529 197.794C213.715 197.307 214.081 196.909 214.551 196.684C214.563 196.678 214.574 196.67 214.583 196.661C214.591 196.651 214.598 196.639 214.602 196.627C214.606 196.614 214.607 196.601 214.606 196.588C214.604 196.575 214.6 196.562 214.593 196.551C214.587 196.54 214.578 196.53 214.567 196.522C214.557 196.514 214.545 196.509 214.532 196.506C214.519 196.503 214.506 196.503 214.493 196.506C214.48 196.508 214.468 196.514 214.457 196.521C213.954 196.765 213.561 197.19 213.357 197.71C213.153 198.231 213.153 198.809 213.357 199.33H211.979L202.211 199.435C202.192 199.441 202.174 199.454 202.162 199.471C202.15 199.488 202.144 199.508 202.144 199.529C202.144 199.55 202.15 199.57 202.162 199.587C202.174 199.604 202.192 199.617 202.211 199.623Z" fill="white"/>
<path d="M208.945 197.092C208.857 196.947 208.739 196.822 208.598 196.725C208.458 196.629 208.299 196.563 208.131 196.533C207.964 196.503 207.792 196.508 207.627 196.55C207.462 196.591 207.307 196.667 207.174 196.773C207.074 196.846 206.98 196.678 207.079 196.605C207.235 196.487 207.413 196.403 207.603 196.359C207.793 196.314 207.991 196.31 208.182 196.347C208.374 196.383 208.556 196.46 208.716 196.571C208.876 196.682 209.011 196.826 209.113 196.993C209.181 197.092 209.018 197.192 208.945 197.092Z" fill="white"/>
<path d="M207.877 197.412C207.788 197.267 207.669 197.142 207.529 197.047C207.389 196.951 207.23 196.885 207.063 196.855C206.895 196.825 206.724 196.83 206.559 196.871C206.394 196.912 206.239 196.988 206.105 197.092C206.006 197.166 205.912 196.998 206.011 196.925C206.167 196.807 206.346 196.724 206.536 196.68C206.726 196.635 206.923 196.632 207.115 196.669C207.307 196.706 207.489 196.783 207.649 196.895C207.809 197.006 207.943 197.151 208.044 197.318C208.112 197.417 207.95 197.512 207.877 197.412Z" fill="white"/>
<path d="M206.776 197.737C206.688 197.591 206.57 197.466 206.429 197.37C206.289 197.273 206.13 197.208 205.962 197.177C205.795 197.147 205.623 197.153 205.458 197.194C205.293 197.236 205.138 197.312 205.005 197.417C204.905 197.491 204.811 197.323 204.905 197.25C205.061 197.132 205.239 197.048 205.429 197.003C205.619 196.959 205.816 196.955 206.008 196.991C206.2 197.028 206.381 197.104 206.542 197.216C206.702 197.327 206.837 197.471 206.938 197.637C207.012 197.737 206.844 197.836 206.776 197.737Z" fill="white"/>
<path d="M186.067 187.43L185.569 195.934L181.943 196.222L180.539 187.859L186.067 187.43Z" fill="#CE7A63"/>
<path d="M182.776 195.379C182.631 195.195 182.437 195.056 182.216 194.977C181.996 194.898 181.758 194.883 181.529 194.934C180.832 195.164 179.915 196.307 179.915 196.307C179.915 196.307 176.132 197.522 175.11 197.585C174.088 197.648 173.192 198.224 172.81 200.205H185.207C185.207 200.205 185.695 195.73 185.768 194.965C185.841 194.2 184.631 195.159 184.631 195.159L182.776 195.379Z" fill="#263238"/>
<path d="M173.177 199.623L175.409 199.597L185.176 199.498C185.198 199.493 185.217 199.48 185.231 199.463C185.245 199.445 185.253 199.423 185.253 199.401C185.253 199.378 185.245 199.356 185.231 199.339C185.217 199.321 185.198 199.309 185.176 199.304H184.516C184.316 198.821 184.309 198.281 184.496 197.793C184.683 197.306 185.051 196.909 185.522 196.684C185.534 196.678 185.544 196.67 185.553 196.661C185.562 196.651 185.568 196.639 185.572 196.627C185.576 196.614 185.577 196.601 185.576 196.588C185.575 196.575 185.57 196.562 185.564 196.551C185.557 196.54 185.548 196.53 185.538 196.522C185.527 196.514 185.515 196.509 185.502 196.506C185.489 196.503 185.476 196.503 185.463 196.506C185.45 196.508 185.438 196.514 185.428 196.521C184.924 196.765 184.532 197.19 184.328 197.71C184.124 198.231 184.124 198.809 184.327 199.33H182.949L173.182 199.435C173.162 199.441 173.144 199.453 173.132 199.47C173.119 199.486 173.112 199.506 173.111 199.527C173.111 199.548 173.117 199.569 173.128 199.586C173.14 199.603 173.157 199.616 173.177 199.623Z" fill="white"/>
<path d="M180.366 197.092C180.278 196.947 180.16 196.822 180.019 196.725C179.879 196.629 179.72 196.563 179.552 196.533C179.385 196.503 179.213 196.508 179.048 196.55C178.883 196.591 178.728 196.667 178.595 196.773C178.495 196.846 178.401 196.678 178.5 196.605C178.656 196.487 178.834 196.403 179.024 196.359C179.214 196.314 179.411 196.31 179.603 196.347C179.795 196.383 179.977 196.46 180.137 196.571C180.297 196.682 180.432 196.826 180.533 196.993C180.607 197.092 180.439 197.192 180.366 197.092Z" fill="white"/>
<path d="M179.287 197.412C179.198 197.267 179.08 197.143 178.941 197.047C178.801 196.951 178.642 196.886 178.475 196.855C178.309 196.825 178.137 196.831 177.973 196.872C177.808 196.912 177.654 196.988 177.521 197.092C177.421 197.166 177.322 196.998 177.421 196.925C177.577 196.807 177.756 196.724 177.946 196.68C178.136 196.635 178.333 196.632 178.525 196.669C178.717 196.706 178.899 196.783 179.059 196.895C179.219 197.006 179.353 197.151 179.454 197.318C179.528 197.417 179.36 197.512 179.287 197.412Z" fill="white"/>
<path d="M178.186 197.737C178.098 197.591 177.98 197.466 177.84 197.37C177.699 197.273 177.54 197.208 177.373 197.177C177.205 197.147 177.033 197.153 176.868 197.194C176.703 197.236 176.548 197.312 176.415 197.417C176.315 197.491 176.221 197.323 176.321 197.25C176.476 197.132 176.655 197.048 176.845 197.003C177.035 196.959 177.232 196.955 177.423 196.991C177.615 197.028 177.797 197.104 177.957 197.216C178.117 197.327 178.253 197.471 178.354 197.637C178.422 197.737 178.259 197.836 178.186 197.737Z" fill="white"/>
<path d="M177.62 98.7853C177.62 98.7853 175.524 127.212 175.645 139.699C175.791 152.684 180.025 190.48 180.025 190.48H186.963C186.963 190.48 188.242 153.349 188.86 140.595C189.536 126.688 193.691 96.5059 193.691 96.5059L177.62 98.7853Z" fill="#263238"/>
<path opacity="0.2" d="M190.186 125.126C190.71 120.022 191.355 114.751 191.921 110.145L191.109 105.282C191.109 105.282 188.389 112.87 190.186 125.126Z" fill="black"/>
<path d="M187.482 188.379C187.482 189.128 187.414 190.622 187.414 190.622H179.423L179.182 188.379H187.482Z" fill="#2986CE"/>
<path d="M189.457 96.5059C189.457 96.5059 191.553 127.815 193.827 139.542C196.306 152.375 207.556 190.48 207.556 190.48H215.054C215.054 190.48 210.234 153.512 208.955 140.8C207.561 127.008 206.959 99.1521 206.959 99.1521L189.457 96.5059Z" fill="#263238"/>
<path d="M215.39 188.326C215.463 189.091 215.579 190.621 215.579 190.621H206.796L206.272 188.326H215.39Z" fill="#2986CE"/>
<path d="M208.232 101.819C193.241 102.841 181.969 102.92 175.996 100.667C175.582 74.2675 176.52 57.8453 177.746 53.8315C177.91 53.2961 178.179 52.7992 178.54 52.3706C178.9 51.9421 179.343 51.5906 179.842 51.3372C181.323 50.593 182.916 50.0973 184.558 49.87C187.702 49.4037 192.895 49.2674 196.495 49.2779C198.47 49.2779 200.498 49.4351 202.17 49.6028C204.266 49.8176 205.602 51.6726 205.513 53.7581C205.335 57.7719 205.319 61.8329 205.413 65.8101C205.471 68.1052 205.56 70.3689 205.675 72.5854C206.414 86.7439 208.206 98.733 208.232 101.819Z" fill="#2986CE"/>
<path opacity="0.2" d="M205.665 72.5904L199.23 58.4424L205.403 65.8203C205.461 68.1102 205.55 70.3739 205.665 72.5904Z" fill="black"/>
<path d="M186.717 28.7471C185.926 27.8877 183.269 27.8143 182.001 29.4702C180.649 31.2413 178.936 34.5111 177.846 33.6622C178.008 34.1517 178.314 34.5806 178.725 34.8921C179.136 35.2037 179.631 35.3833 180.146 35.4071C180.146 35.4071 179.041 36.6175 177.615 36.1721C177.864 36.8738 178.305 37.4915 178.887 37.9548C179.47 38.418 180.171 38.7082 180.911 38.7921C183.348 39.1485 186.743 32.1635 187.283 31.0212C187.283 29.7165 187.178 29.7951 186.717 28.7471Z" fill="#263238"/>
<path d="M188.226 29.0353C189.301 28.9054 190.391 28.9989 191.428 29.31C192.465 29.6211 193.426 30.143 194.252 30.8431C195.331 31.7758 196.17 33.002 195.798 34.4692C194.928 37.8857 192.622 43.3772 192.622 43.3772L182.279 35.4176C182.279 35.4176 182.226 32.1007 183.887 30.4553C184.757 29.6012 186.654 29.2135 188.226 29.0353Z" fill="#263238"/>
<path d="M186.334 28.8467C186.334 28.8467 189.897 26.3053 194.639 29.8319C199.382 33.3584 194.639 39.7407 194.639 39.7407C194.639 39.7407 193.12 42.5651 194.461 43.262C193.99 43.4442 193.488 43.5315 192.984 43.5187C192.984 43.5187 193.445 44.3781 194.032 44.2995C194.032 44.2995 193.209 44.6296 191.752 43.9799C190.295 43.3301 186.334 28.8467 186.334 28.8467Z" fill="#263238"/>
<path d="M186.56 46.4532C186.56 46.4532 186.56 46.4532 186.56 46.5003L186.843 48.5649C186.837 48.9733 186.793 49.3803 186.712 49.7806C186.646 50.1045 186.557 50.4232 186.445 50.7343C185.921 51.2845 185.549 52.6259 187.116 52.8303C189.091 53.087 193.068 50.6452 193.309 49.7911C192.728 46.9772 192.35 43.7284 192.817 41.166L190.265 43.3249L186.56 46.4532Z" fill="#CE7A63"/>
<path opacity="0.2" d="M186.569 46.5062L186.852 48.5708C188.157 48.162 189.603 47.1035 190.059 45.825C190.384 44.9027 190.059 43.9596 189.692 43.8652L186.569 46.5062Z" fill="black"/>
<path d="M182.09 41.6898C182.153 42.1405 182.231 42.5859 182.315 43.026C183.101 46.9193 187.671 47.8259 190.877 45.4259C191.168 45.2083 191.442 44.9683 191.695 44.7081C193.817 42.5335 193.587 40.6366 193.828 36.4184C193.892 35.4398 193.706 34.461 193.286 33.5745C192.867 32.688 192.228 31.9232 191.431 31.3524C190.634 30.7816 189.704 30.4237 188.729 30.3125C187.755 30.2014 186.768 30.3407 185.863 30.7173C182.132 32.2473 181.451 37.1887 182.09 41.6898Z" fill="#CE7A63"/>
<path d="M187.135 38.2568C187.135 38.5972 186.968 38.8747 186.743 38.8799C186.517 38.8851 186.339 38.6076 186.334 38.2673C186.329 37.9269 186.507 37.6494 186.727 37.6494C186.947 37.6494 187.135 37.9165 187.135 38.2568Z" fill="#263238"/>
<path d="M183.435 38.2939C183.435 38.6343 183.263 38.9118 183.043 38.917C182.823 38.9223 182.634 38.6447 182.629 38.3044C182.624 37.964 182.802 37.6865 183.027 37.6865C183.252 37.6865 183.43 37.9536 183.435 38.2939Z" fill="#263238"/>
<path d="M185.801 42.8951H185.68C185.648 42.8865 185.62 42.8662 185.601 42.8382C185.583 42.8101 185.576 42.7763 185.581 42.7432C185.584 42.7263 185.591 42.7103 185.601 42.6961C185.611 42.682 185.624 42.6699 185.638 42.6606C185.653 42.6514 185.669 42.6451 185.686 42.6422C185.703 42.6393 185.721 42.6398 185.738 42.6436C185.988 42.6924 186.245 42.69 186.493 42.6366C186.742 42.5833 186.977 42.48 187.185 42.333C187.393 42.1861 187.568 41.9985 187.702 41.7817C187.835 41.5649 187.922 41.3233 187.96 41.0716C187.963 41.0547 187.97 41.0387 187.98 41.0246C187.99 41.0104 188.003 40.9983 188.017 40.9891C188.032 40.9798 188.048 40.9736 188.065 40.9706C188.082 40.9677 188.1 40.9682 188.117 40.9721C188.149 40.9818 188.177 41.0034 188.194 41.0324C188.212 41.0615 188.218 41.096 188.211 41.1293C188.122 41.6813 187.819 42.1761 187.368 42.5066C186.917 42.8371 186.354 42.9767 185.801 42.8951Z" fill="#263238"/>
<path d="M193.833 36.8059C193.224 37.2725 192.78 37.9202 192.564 38.6556C192.558 38.7359 192.528 38.8124 192.477 38.8751C192.427 38.9377 192.359 38.9836 192.281 39.0067L190.751 39.1325C190.751 39.1325 191.684 35.0662 190.594 34.9824C189.504 34.8985 190.909 33.1955 190.29 32.8445C188.834 32.0218 184.642 31.4506 182.708 33.7772C182.708 33.7772 183.452 31.3353 185.611 30.2454C187.77 29.1555 191.81 29.3756 193.178 31.5449C194.545 33.7143 193.833 36.8059 193.833 36.8059Z" fill="#263238"/>
<path d="M195.656 39.2275C195.361 40.2461 194.675 41.1069 193.748 41.6222C192.512 42.2929 191.579 41.2659 191.652 39.9349C191.726 38.735 192.454 36.9429 193.822 36.8224C195.189 36.7019 195.996 37.9752 195.645 39.2275" fill="#CE7A63"/>
<path d="M182.425 36.8851C182.454 36.8856 182.482 36.878 182.507 36.8632C182.532 36.8484 182.553 36.827 182.566 36.8013C182.618 36.6938 182.691 36.5979 182.781 36.5195C182.872 36.4411 182.977 36.3819 183.09 36.3454C183.322 36.301 183.562 36.336 183.772 36.445C183.79 36.4571 183.811 36.4653 183.833 36.4689C183.855 36.4726 183.878 36.4717 183.899 36.4663C183.921 36.4609 183.941 36.4511 183.959 36.4375C183.977 36.4239 183.991 36.4069 184.002 36.3873C184.014 36.3684 184.021 36.3475 184.024 36.3256C184.028 36.3038 184.027 36.2815 184.021 36.2601C184.016 36.2387 184.006 36.2185 183.993 36.2008C183.98 36.1831 183.963 36.1681 183.944 36.1568C183.658 36.001 183.325 35.9544 183.007 36.0258C182.85 36.0712 182.704 36.1493 182.579 36.2549C182.455 36.3606 182.354 36.4914 182.283 36.6389C182.272 36.6575 182.264 36.6784 182.26 36.7002C182.257 36.722 182.259 36.7443 182.265 36.7655C182.271 36.7868 182.281 36.8066 182.295 36.8236C182.309 36.8406 182.326 36.8544 182.346 36.8642C182.37 36.8782 182.397 36.8854 182.425 36.8851Z" fill="#263238"/>
<path d="M188.855 36.7537C188.88 36.7496 188.903 36.7407 188.923 36.7275C188.943 36.7177 188.961 36.7038 188.975 36.6868C188.989 36.6698 188.999 36.6501 189.005 36.6288C189.011 36.6076 189.012 36.5853 189.009 36.5635C189.006 36.5416 188.998 36.5208 188.986 36.5021C188.816 36.2228 188.55 36.0158 188.237 35.9205C188.078 35.8835 187.913 35.8797 187.753 35.9095C187.592 35.9392 187.439 36.0019 187.304 36.0934C187.266 36.1164 187.238 36.1535 187.228 36.1968C187.217 36.24 187.224 36.2858 187.247 36.324C187.27 36.3622 187.307 36.3897 187.35 36.4005C187.393 36.4114 187.439 36.4046 187.477 36.3816C187.574 36.3129 187.684 36.2652 187.801 36.2418C187.917 36.2183 188.037 36.2195 188.153 36.2454C188.372 36.3208 188.558 36.4711 188.677 36.6698C188.694 36.7014 188.72 36.7267 188.752 36.7418C188.784 36.757 188.821 36.7611 188.855 36.7537Z" fill="#263238"/>
<path d="M185.108 37.9697C184.924 38.6676 184.542 39.2972 184.008 39.7828C183.149 40.5111 184.852 41.1452 184.852 41.1452L185.108 37.9697Z" fill="#BA4D3C"/>
<path d="M192.417 37.619C191.099 37.4402 189.758 37.7116 188.613 38.3892C188.514 37.4565 187.906 36.7334 187.162 36.7334C186.418 36.7334 185.747 37.5351 185.705 38.5464C185.485 38.3879 185.221 38.3025 184.95 38.3025C184.679 38.3025 184.415 38.3879 184.196 38.5464C184.143 37.5508 183.509 36.7596 182.734 36.7596C181.958 36.7596 181.267 37.619 181.267 38.6827C181.267 39.7464 181.927 40.6058 182.734 40.6058C183.541 40.6058 184.191 39.7569 184.201 38.7089C184.274 38.6408 184.809 38.1587 185.7 38.7089C185.7 39.7569 186.365 40.5953 187.162 40.5953C187.958 40.5953 188.634 39.7307 188.634 38.6722C188.637 38.6321 188.637 38.5918 188.634 38.5517C189.764 37.8531 191.103 37.5748 192.417 37.7657C192.426 37.7672 192.435 37.7668 192.443 37.7647C192.452 37.7625 192.46 37.7586 192.467 37.7531C192.474 37.7477 192.479 37.7409 192.484 37.7331C192.488 37.7254 192.49 37.7168 192.491 37.708C192.493 37.6972 192.493 37.6859 192.49 37.6751C192.488 37.6643 192.483 37.6542 192.476 37.6457C192.469 37.6371 192.46 37.6302 192.45 37.6256C192.439 37.621 192.428 37.6187 192.417 37.619ZM182.734 40.4486C181.995 40.4486 181.398 39.6416 181.398 38.6565C181.398 37.6714 181.995 36.8644 182.734 36.8644C183.473 36.8644 184.075 37.6661 184.075 38.6565C184.075 39.6468 183.457 40.4486 182.718 40.4486H182.734ZM187.162 40.4486C186.428 40.4486 185.825 39.6416 185.825 38.6565C185.825 37.6714 186.428 36.8644 187.162 36.8644C187.895 36.8644 188.503 37.6661 188.503 38.6565C188.503 39.6468 187.885 40.4486 187.146 40.4486H187.162Z" fill="white"/>
<path d="M177.479 54.8838L172.983 65.6467C172.228 67.4283 171.458 69.1995 170.677 70.9339C170.289 71.7985 169.886 72.6526 169.482 73.4753C169.079 74.298 168.665 75.1049 168.272 75.7652C168.166 75.9459 168.051 76.1208 167.926 76.2892L167.345 76.5669L166.705 76.8551L165.395 77.4263L160.003 79.7109C156.382 81.2462 152.756 82.8287 149.167 84.5003L150.435 88.4512C154.349 87.7072 158.216 86.8321 162.073 85.8312C163.996 85.3072 165.919 84.8252 167.837 84.2592L169.304 83.8138L170.048 83.578L170.84 83.3055L171.138 83.1955L171.275 83.1379L171.799 82.9021L172.082 82.7711C172.197 82.703 172.307 82.6401 172.412 82.5667C172.516 82.4934 172.632 82.42 172.695 82.3728C172.948 82.1798 173.188 81.9697 173.412 81.744C173.648 81.503 173.842 81.2829 174.01 81.0785C174.329 80.696 174.56 80.3659 174.796 80.0306C175.194 79.4541 175.54 78.8987 175.844 78.359C176.085 77.966 176.305 77.5835 176.525 77.201C177.049 76.2787 177.521 75.367 177.987 74.4604C178.925 72.6422 179.779 70.7924 180.607 68.9951C182.268 65.3271 183.814 61.6905 185.223 57.923L177.479 54.8838ZM168.167 76.1896H168.136L168.188 76.153L168.235 76.1267L168.167 76.1896Z" fill="#2986CE"/>
<path opacity="0.2" d="M177.076 61.4707C176.641 64.6147 175.896 78.354 175.896 78.354C175.898 78.3662 175.898 78.3785 175.896 78.3907C175.572 78.9147 175.226 79.4858 174.849 80.0622C174.613 80.3923 174.382 80.7225 174.062 81.1102C174.324 74.4973 177.076 61.4707 177.076 61.4707Z" fill="black"/>
<path d="M150.755 87.23C150.64 86.4535 150.437 85.6924 150.152 84.9611C149.516 84.2954 148.667 83.8744 147.752 83.7716C146.442 83.7401 145.4 83.3681 144.42 83.4153C143.44 83.4624 144.483 84.2746 145.122 84.5995C145.761 84.9244 146.489 85.2912 146.17 85.7366C145.85 86.182 141.574 88.1051 141.197 88.7705C140.82 89.436 141.616 89.3365 141.616 89.3365C141.616 89.3365 140.657 89.7766 140.673 90.2954C140.689 90.8141 141.375 90.7198 141.375 90.7198C141.375 90.7198 140.741 91.0342 141.019 91.4534C141.16 91.6735 142.25 91.5006 143.277 91.291C143.062 91.3958 142.916 91.5215 142.89 91.6787C142.795 92.318 144.21 92.1084 145.342 91.9617C146.51 91.8285 147.596 91.2931 148.413 90.4473C149.193 89.588 150.964 88.5609 150.755 87.23ZM145.069 90.898C145.102 90.8942 145.136 90.8942 145.169 90.898H145.069Z" fill="#CE7A63"/>
<path d="M141.554 90.7515C142.649 90.2589 143.76 89.7978 144.876 89.3838C144.994 89.6734 145.135 89.9537 145.295 90.2222C145.374 90.3585 145.547 90.1856 145.468 90.0546C144.98 89.2084 144.681 88.2661 144.593 87.2931C144.593 87.1306 144.362 87.183 144.378 87.3455C144.403 87.592 144.441 87.8369 144.493 88.0791C144.473 88.0714 144.451 88.0714 144.43 88.0791C143.516 88.3406 142.636 88.7118 141.81 89.1847C141.685 89.2581 141.769 89.4886 141.9 89.4153C142.702 88.9524 143.557 88.5882 144.446 88.3306C144.461 88.3254 144.475 88.3171 144.487 88.3063C144.499 88.2955 144.508 88.2823 144.514 88.2677C144.579 88.5725 144.667 88.872 144.776 89.1638C143.655 89.5777 142.549 90.0336 141.449 90.5314C141.334 90.5786 141.417 90.8144 141.554 90.7515Z" fill="#BA4D3C"/>
<path d="M145.751 88.2156C146.098 87.6827 146.612 87.2808 147.213 87.0738C147.814 86.8668 148.467 86.8666 149.068 87.0733C149.199 87.1257 149.283 86.8847 149.152 86.8323C147.863 86.3554 146.495 86.8323 145.573 88.0741C145.561 88.0854 145.551 88.0992 145.544 88.1146C145.538 88.13 145.535 88.1466 145.535 88.1633C145.536 88.18 145.54 88.1964 145.547 88.2114C145.555 88.2263 145.566 88.2394 145.579 88.2498C145.592 88.2602 145.607 88.2676 145.623 88.2716C145.64 88.2755 145.656 88.2759 145.673 88.2726C145.689 88.2694 145.705 88.2626 145.718 88.2527C145.732 88.2429 145.743 88.2302 145.751 88.2156Z" fill="#BA4D3C"/>
<path d="M204.79 51.1953C207.352 54.5227 209.8 57.9182 212.215 61.3504C213.431 63.0587 214.62 64.7879 215.805 66.5276C216.989 68.2672 218.147 69.9964 219.336 71.8566L219.567 72.213L219.845 72.6688L219.981 72.8994L220.018 72.957L220.138 73.1824L220.269 73.4548C220.311 73.5492 220.348 73.6435 220.363 73.6906C220.439 73.9002 220.504 74.1136 220.557 74.3299L220.615 74.5814L220.652 74.7858C220.717 75.1967 220.754 75.6116 220.762 76.0277C220.762 76.3735 220.762 76.6984 220.762 77.0023C220.73 78.218 220.636 79.3079 220.531 80.4031C220.316 82.5777 220.007 84.6842 219.693 86.7854C219.038 90.9774 218.215 95.1222 217.246 99.2566L212.849 98.7326C212.849 94.5406 212.896 90.3486 212.959 86.2195C212.959 84.1235 212.996 82.0851 212.959 80.073C212.959 79.0774 212.912 78.0765 212.834 77.2014C212.834 76.9814 212.792 76.7822 212.765 76.6041C212.756 76.498 212.732 76.3938 212.692 76.2949V76.3578C212.709 76.4493 212.736 76.5388 212.771 76.625L212.828 76.7665C212.853 76.8291 212.881 76.8903 212.912 76.9499L212.991 77.0914V77.0652L212.912 76.9656L212.551 76.4731C211.366 74.9011 210.056 73.219 208.809 71.5632C207.562 69.9074 206.278 68.2515 205.026 66.58C202.511 63.2421 200.016 59.8885 197.611 56.4668L204.79 51.1953Z" fill="#2986CE"/>
<path d="M217.161 98.9896C216.202 96.5058 214.059 97.1399 213.43 97.7687C213.43 97.7687 211.858 99.3826 211.518 100.305C211.177 101.227 210.721 102.128 210.884 102.548C210.962 102.747 211.24 102.548 211.512 102.265C211.376 102.599 211.291 102.953 211.261 103.313C211.261 103.313 211.502 105.859 212.492 106.656C213.483 107.452 213.294 105.162 213.294 105.162C213.294 105.162 213.414 107.431 215.809 106.698C216.731 106.42 217.748 103.7 217.905 102.186C218.33 100.907 217.161 98.9896 217.161 98.9896Z" fill="#CE7A63"/>
<path d="M186.895 48.9838C186.895 48.9838 184.856 48.7637 183.751 50.0056C183.311 51.5305 184.275 53.3435 185.323 55.1775L187.581 52.8457C187.744 52.8509 186.57 50.8545 186.895 48.9838Z" fill="#2986CE"/>
<path opacity="0.2" d="M186.895 48.9838C186.895 48.9838 184.856 48.7637 183.751 50.0056C183.311 51.5305 184.275 53.3435 185.323 55.1775L187.581 52.8457C187.744 52.8509 186.57 50.8545 186.895 48.9838Z" fill="black"/>
<path d="M192.968 47.873C192.004 50.1 189.939 51.5725 187.592 52.8458L188.865 55.1776L196.725 49.2773C196.725 49.2773 194.472 47.2757 192.968 47.873Z" fill="#2986CE"/>
<path opacity="0.2" d="M192.968 47.873C192.004 50.1 189.939 51.5725 187.592 52.8458L188.865 55.1776L196.725 49.2773C196.725 49.2773 194.472 47.2757 192.968 47.873Z" fill="black"/>
<path opacity="0.2" d="M187.602 56.2099C187.602 56.2898 187.578 56.368 187.534 56.4344C187.489 56.5008 187.426 56.5525 187.352 56.5828C187.278 56.6132 187.197 56.6209 187.118 56.6049C187.04 56.5889 186.968 56.55 186.912 56.4931C186.856 56.4361 186.818 56.3638 186.803 56.2853C186.788 56.2067 186.797 56.1255 186.828 56.0519C186.859 55.9783 186.912 55.9157 186.979 55.8721C187.046 55.8284 187.124 55.8056 187.204 55.8067C187.31 55.8081 187.412 55.8511 187.486 55.9266C187.561 56.0021 187.602 56.1038 187.602 56.2099Z" fill="black"/>
<path opacity="0.2" d="M187.602 58.8407C187.602 58.9207 187.578 58.9988 187.534 59.0652C187.489 59.1317 187.426 59.1833 187.352 59.2137C187.278 59.244 187.197 59.2517 187.118 59.2357C187.04 59.2197 186.968 59.1808 186.912 59.1239C186.856 59.067 186.818 58.9947 186.803 58.9161C186.788 58.8376 186.797 58.7563 186.828 58.6828C186.859 58.6092 186.912 58.5466 186.979 58.5029C187.046 58.4593 187.124 58.4365 187.204 58.4375C187.31 58.4389 187.412 58.482 187.486 58.5575C187.561 58.6329 187.602 58.7347 187.602 58.8407Z" fill="black"/>
<path opacity="0.2" d="M187.602 61.4706C187.602 61.5506 187.578 61.6287 187.534 61.6951C187.489 61.7616 187.426 61.8132 187.352 61.8436C187.278 61.8739 187.197 61.8816 187.118 61.8656C187.04 61.8496 186.968 61.8107 186.912 61.7538C186.856 61.6969 186.818 61.6246 186.803 61.546C186.788 61.4675 186.797 61.3862 186.828 61.3127C186.859 61.2391 186.912 61.1765 186.979 61.1328C187.046 61.0891 187.124 61.0664 187.204 61.0674C187.31 61.0688 187.412 61.1119 187.486 61.1873C187.561 61.2628 187.602 61.3646 187.602 61.4706Z" fill="black"/>
<path d="M137.439 190.684L138.519 196.123H141.39L141.773 190.684H137.439Z" fill="#FFC3BD"/>
<path d="M141.012 195.43C141.156 195.248 141.348 195.109 141.567 195.031C141.786 194.952 142.022 194.936 142.249 194.985C142.941 195.215 143.821 196.347 143.821 196.347C143.821 196.347 147.573 197.553 148.584 197.615C149.596 197.678 150.486 198.249 150.864 200.235H138.607C138.607 200.235 138.125 195.808 138.047 195.048C137.968 194.288 139.178 195.236 139.178 195.236L141.012 195.43Z" fill="#263238"/>
<path d="M150.497 199.624H148.286L138.613 199.524C138.493 199.524 138.493 199.33 138.613 199.335H139.268C139.474 198.855 139.485 198.313 139.3 197.824C139.114 197.336 138.746 196.938 138.273 196.715C138.163 196.658 138.273 196.49 138.367 196.553C138.865 196.795 139.253 197.216 139.455 197.732C139.657 198.247 139.657 198.819 139.457 199.335C139.913 199.335 140.369 199.335 140.824 199.335L150.492 199.435C150.505 199.435 150.517 199.437 150.529 199.441C150.54 199.446 150.551 199.452 150.56 199.461C150.569 199.469 150.576 199.479 150.581 199.491C150.586 199.502 150.589 199.514 150.589 199.527C150.589 199.539 150.587 199.551 150.583 199.563C150.579 199.575 150.572 199.585 150.563 199.594C150.555 199.603 150.545 199.61 150.533 199.615C150.522 199.62 150.51 199.623 150.497 199.624Z" fill="#2986CE"/>
<path d="M143.407 197.118C143.495 196.974 143.613 196.851 143.752 196.756C143.891 196.661 144.049 196.597 144.215 196.567C144.38 196.538 144.55 196.543 144.714 196.584C144.877 196.625 145.03 196.699 145.163 196.803C145.262 196.877 145.357 196.709 145.257 196.636C145.103 196.519 144.926 196.436 144.738 196.392C144.55 196.349 144.354 196.345 144.165 196.381C143.975 196.418 143.795 196.494 143.636 196.605C143.478 196.715 143.345 196.858 143.245 197.023C143.177 197.123 143.339 197.217 143.407 197.118Z" fill="white"/>
<path d="M144.466 197.438C144.554 197.295 144.671 197.171 144.811 197.077C144.95 196.982 145.107 196.917 145.273 196.888C145.439 196.858 145.609 196.864 145.772 196.904C145.936 196.945 146.089 197.02 146.221 197.124C146.321 197.197 146.415 197.029 146.316 196.956C146.161 196.839 145.985 196.756 145.796 196.713C145.608 196.669 145.413 196.665 145.223 196.702C145.033 196.738 144.853 196.814 144.695 196.925C144.536 197.036 144.403 197.178 144.303 197.344C144.23 197.443 144.398 197.538 144.466 197.438Z" fill="white"/>
<path d="M145.562 197.758C145.65 197.614 145.767 197.49 145.906 197.394C146.045 197.299 146.203 197.234 146.369 197.205C146.535 197.175 146.705 197.181 146.869 197.222C147.032 197.263 147.185 197.339 147.317 197.443C147.412 197.517 147.506 197.349 147.412 197.276C147.257 197.159 147.08 197.076 146.891 197.032C146.703 196.988 146.507 196.984 146.317 197.021C146.127 197.058 145.946 197.134 145.787 197.244C145.628 197.355 145.494 197.498 145.394 197.663C145.326 197.763 145.489 197.857 145.562 197.758Z" fill="white"/>
<path d="M111.728 190.72L112.325 196.122H115.196L116.056 190.72H111.728Z" fill="#FFC3BD"/>
<path d="M114.818 195.43C114.962 195.248 115.154 195.109 115.373 195.031C115.591 194.952 115.828 194.936 116.055 194.985C116.746 195.215 117.627 196.347 117.627 196.347C117.627 196.347 121.379 197.553 122.39 197.615C123.401 197.678 124.287 198.249 124.669 200.235H112.413C112.413 200.235 111.931 195.808 111.852 195.048C111.774 194.288 112.984 195.236 112.984 195.236L114.818 195.43Z" fill="#263238"/>
<path d="M124.324 199.624H122.112L112.439 199.524C112.414 199.524 112.39 199.514 112.373 199.496C112.355 199.479 112.345 199.455 112.345 199.43C112.345 199.405 112.355 199.381 112.373 199.363C112.39 199.345 112.414 199.335 112.439 199.335H113.094C113.3 198.855 113.312 198.313 113.126 197.824C112.94 197.336 112.572 196.938 112.099 196.715C111.989 196.658 112.099 196.49 112.193 196.553C112.691 196.795 113.079 197.216 113.281 197.732C113.483 198.247 113.484 198.819 113.283 199.335C113.739 199.335 114.195 199.335 114.651 199.335L124.318 199.435C124.331 199.435 124.343 199.437 124.355 199.441C124.366 199.446 124.377 199.452 124.386 199.461C124.395 199.469 124.402 199.479 124.407 199.491C124.412 199.502 124.415 199.514 124.415 199.527C124.416 199.539 124.414 199.551 124.409 199.563C124.405 199.575 124.398 199.585 124.39 199.594C124.381 199.603 124.371 199.61 124.36 199.615C124.348 199.62 124.336 199.623 124.324 199.624Z" fill="#2986CE"/>
<path d="M117.213 197.118C117.301 196.974 117.419 196.851 117.558 196.756C117.697 196.661 117.854 196.597 118.02 196.567C118.186 196.538 118.356 196.543 118.52 196.584C118.683 196.625 118.836 196.699 118.968 196.803C119.068 196.877 119.162 196.709 119.063 196.636C118.909 196.519 118.732 196.436 118.544 196.392C118.355 196.349 118.16 196.345 117.97 196.381C117.78 196.418 117.601 196.494 117.442 196.605C117.284 196.715 117.15 196.858 117.051 197.023C116.982 197.123 117.145 197.217 117.213 197.118Z" fill="white"/>
<path d="M118.27 197.438C118.359 197.295 118.476 197.171 118.615 197.077C118.754 196.982 118.912 196.917 119.078 196.888C119.243 196.858 119.414 196.864 119.577 196.904C119.74 196.945 119.893 197.02 120.026 197.124C120.125 197.197 120.22 197.029 120.12 196.956C119.966 196.839 119.789 196.756 119.601 196.713C119.413 196.669 119.217 196.665 119.028 196.702C118.838 196.738 118.658 196.814 118.5 196.925C118.341 197.036 118.208 197.178 118.108 197.344C118.035 197.443 118.202 197.538 118.27 197.438Z" fill="white"/>
<path d="M119.367 197.758C119.454 197.614 119.571 197.491 119.71 197.396C119.849 197.302 120.006 197.237 120.171 197.207C120.336 197.178 120.506 197.183 120.669 197.224C120.832 197.265 120.985 197.339 121.117 197.443C121.216 197.517 121.311 197.349 121.216 197.276C121.062 197.159 120.885 197.076 120.696 197.032C120.507 196.988 120.312 196.984 120.121 197.021C119.931 197.058 119.751 197.134 119.592 197.244C119.433 197.355 119.299 197.498 119.199 197.663C119.131 197.763 119.293 197.857 119.367 197.758Z" fill="white"/>
<path d="M136.486 190.872H142.826C143.377 182.708 144.922 155.639 143.701 142.245C144.587 123.664 141.747 98.9941 141.747 98.9941H121.678C121.678 98.9941 123.15 115.505 129.763 141.962C129.69 162.959 134.809 183.929 136.486 190.872Z" fill="#2986CE"/>
<path opacity="0.2" d="M136.486 190.872H142.826C143.377 182.708 144.922 155.639 143.701 142.245C144.587 123.664 141.747 98.9941 141.747 98.9941H121.678C121.678 98.9941 123.15 115.505 129.763 141.962C129.69 162.959 134.809 183.929 136.486 190.872Z" fill="white"/>
<path opacity="0.2" d="M128.651 137.529C132.282 122.694 129.091 103.469 129.091 103.469L125.947 125.445L128.651 137.529Z" fill="black"/>
<path d="M135.731 190.715L136.198 193.125L143.471 193.094L143.476 190.684L135.731 190.715Z" fill="#263238"/>
<path d="M110.82 191.108H117.166C119.424 182.724 123.978 155.691 124.69 142.298C128.285 123.711 130.004 98.9941 130.004 98.9941H109.908C109.908 98.9941 108.038 115.694 110.789 142.167C110.254 165.254 110.673 183.929 110.82 191.108Z" fill="#2986CE"/>
<path opacity="0.2" d="M110.82 191.108H117.166C119.424 182.724 123.978 155.691 124.69 142.298C128.285 123.711 130.004 98.9941 130.004 98.9941H109.908C109.908 98.9941 108.038 115.694 110.789 142.167C110.254 165.254 110.673 183.929 110.82 191.108Z" fill="white"/>
<path d="M110.264 190.709L110.254 193.098H117.585L117.967 190.709H110.264Z" fill="#263238"/>
<path d="M144.372 102.028C130.433 107.384 107.729 103.501 107.729 103.501C107.88 99.6809 108.022 93.7701 108.101 87.3302C108.101 85.601 108.137 83.8351 108.148 82.0587C108.148 78.6527 108.148 75.2153 108.148 71.9717C108.148 71.7097 108.148 71.4477 108.148 71.191C108.148 69.619 108.106 68.047 108.074 66.6007C108.074 66.4226 108.074 66.2444 108.074 66.0767C108.011 63.2105 107.907 60.6743 107.776 58.6464C107.519 54.8265 109.599 51.2685 113.377 50.6345C114.525 50.4406 115.767 50.2677 117.045 50.1105C117.349 50.0738 117.664 50.0476 117.978 50.0161C121.664 49.654 125.369 49.5193 129.071 49.6127H129.595H129.878H130.344C131.916 49.6755 133.457 49.796 134.814 49.9742C137.895 50.3724 140.63 52.8038 140.683 55.9164C140.73 58.7669 141.008 64.7877 141.411 71.5787C141.568 74.1463 141.741 76.8187 141.935 79.4964C142.637 90.055 143.586 100.194 144.372 102.028Z" fill="#263238"/>
<path opacity="0.2" d="M115.914 61.4707C115.914 61.4707 115.615 76.2685 116.6 78.0658C117.585 79.8631 136.622 85.297 136.622 85.297C127.091 84.0027 117.874 82.5512 112.995 78.9199L115.914 61.4707Z" fill="black"/>
<path opacity="0.2" d="M137.251 89.6461C126.158 92.2661 113.183 88.902 108.101 87.33C108.101 85.6008 108.137 83.835 108.148 82.0586C115.961 87.8383 137.251 89.6461 137.251 89.6461Z" fill="black"/>
<path d="M127.824 58.6768L125.953 79.401L129.694 86.9256L132.613 78.6988L129.59 58.6768H127.824Z" fill="#2986CE"/>
<path d="M128.268 54.2227L126.251 57.2147L128.625 59.9552L130.993 56.4235L128.268 54.2227Z" fill="#2986CE"/>
<path d="M132.372 29.3912C131.297 28.9959 130.151 28.8264 129.007 28.8931C127.863 28.9598 126.745 29.2613 125.723 29.7789C124.381 30.4759 123.218 31.5448 123.25 33.1483C123.313 36.8844 124.355 43.1357 124.355 43.1357L136.973 37.4346C136.973 37.4346 137.89 34.2906 136.413 32.3046C135.403 30.9353 133.99 29.9165 132.372 29.3912Z" fill="#263238"/>
<path d="M127.661 29.0766C127.661 29.0766 125.953 28.1282 124.245 29.8941C122.814 31.3665 123.438 36.1821 123.438 36.1821L127.661 29.0766Z" fill="#263238"/>
<path d="M126.394 29.4696C126.394 29.4696 126.886 26.619 132.089 27.4732C137.293 28.3273 141.422 32.6241 139.525 34.872C137.628 37.12 132.089 33.431 132.089 33.431L126.394 29.4696Z" fill="#263238"/>
<path d="M129.867 47.7831C129.869 47.797 129.869 47.8111 129.867 47.825L129.076 49.8896C128.984 50.3136 128.929 50.745 128.913 51.1786C128.905 51.5286 128.921 51.8788 128.961 52.2266C129.359 52.9183 129.422 54.396 127.761 54.2231C125.665 54.0082 122.101 50.7123 122.06 49.7691C123.343 47.0076 124.564 43.5544 124.68 40.793L126.776 43.6435L129.867 47.7831Z" fill="#FFC3BD"/>
<path d="M128.27 54.223C128.767 53.1226 128.762 51.8021 128.935 50.6178C128.981 50.1618 129.099 49.716 129.286 49.2974C129.286 49.2974 130.722 48.962 131.565 49.7218C131.869 52.0181 131.662 54.3532 130.958 56.56L128.27 54.223Z" fill="#263238"/>
<path d="M120.305 49.8273C120.305 49.8273 121.468 47.5899 123.061 47.3174C123.255 50.016 124.355 52.1591 128.269 54.2237L125.953 57.6559C122.726 55.0202 120.923 52.4159 120.305 49.8273Z" fill="#263238"/>
<g opacity="0.2">
<path d="M129.846 47.8303L129.055 49.8949C127.803 49.156 126.571 47.715 126.409 46.2793C126.299 45.2313 126.854 44.3562 127.268 44.3457L129.846 47.8303Z" fill="black"/>
</g>
<path d="M135.647 43.9419C135.469 44.3926 135.28 44.8327 135.086 45.2677C133.331 49.0929 128.39 48.9356 125.654 45.6659C125.406 45.3713 125.182 45.0577 124.984 44.7279C123.322 41.9717 124.019 40.0643 124.795 35.6522C124.964 34.625 125.393 33.658 126.041 32.8431C126.689 32.0283 127.535 31.3925 128.497 30.9961C129.46 30.5998 130.508 30.4561 131.542 30.5786C132.576 30.7011 133.562 31.0857 134.405 31.6961C137.921 34.1851 137.397 39.4565 135.647 43.9419Z" fill="#FFC3BD"/>
<path d="M127.341 37.3397C127.341 37.3397 127.315 41.0077 128.756 41.5317C130.197 42.0557 131.271 40.8347 132.853 42.3596C133.171 42.2068 133.525 42.1428 133.876 42.1741C134.227 42.2055 134.564 42.3311 134.85 42.5378C135.803 43.2556 135.646 43.6853 135.646 43.6853C135.646 43.6853 135.279 49.1821 130.249 48.5428C125.219 47.9035 124.611 42.9727 124.957 40.3527L125.952 37.0986L127.341 37.3397Z" fill="#263238"/>
<path d="M130.611 42.4805C131.635 42.8319 132.675 43.1309 133.729 43.3765C133.64 43.5797 133.51 43.7625 133.348 43.9137C133.185 44.0648 132.993 44.181 132.784 44.2551C132.575 44.3293 132.353 44.3598 132.132 44.3447C131.91 44.3297 131.694 44.2695 131.497 44.1677C130.486 43.7328 130.611 42.4805 130.611 42.4805Z" fill="white"/>
<path d="M134.777 31.2776C132.812 29.6218 128.589 28.8725 126.645 30.7536C124.701 32.6348 124.69 36.0251 124.69 36.0251C124.667 36.3911 124.783 36.7524 125.015 37.0364C125.064 37.0869 125.106 37.1433 125.141 37.2041L127.331 37.5604C127.504 36.6591 127.855 35.019 128.479 34.9404C129.632 34.7832 128.846 33.5151 129.097 32.8025C129.899 30.4864 136.192 32.0689 136.915 35.6111C136.926 35.6268 136.753 32.9387 134.777 31.2776Z" fill="#263238"/>
<path d="M122.232 38.0939C122.292 39.2188 122.793 40.2749 123.626 41.0335C124.742 42.0239 125.953 41.1855 126.188 39.7916C126.403 38.5393 126.084 36.5114 124.7 36.0503C123.317 35.5892 122.18 36.7158 122.232 38.0939Z" fill="#FFC3BD"/>
<path d="M131.251 38.351C131.167 38.6913 131.282 39.0055 131.502 39.0631C131.722 39.1207 131.968 38.8851 132.052 38.5395C132.136 38.1939 132.016 37.885 131.796 37.8326C131.576 37.7802 131.33 38.0106 131.272 38.3562" fill="#263238"/>
<path d="M134.825 39.1947C134.741 39.5351 134.857 39.8493 135.077 39.9069C135.297 39.9645 135.543 39.7288 135.626 39.3832C135.71 39.0377 135.59 38.7287 135.37 38.6764C135.15 38.624 134.904 38.8544 134.846 39.2" fill="#263238"/>
<path d="M136.349 38.1787C136.319 38.1706 136.292 38.1547 136.27 38.1326C136.247 38.1106 136.232 38.0831 136.223 38.0529C136.197 37.9304 136.146 37.8145 136.073 37.7126C136 37.6108 135.907 37.525 135.799 37.4608C135.572 37.3503 135.313 37.3278 135.071 37.3979C135.025 37.4113 134.977 37.4069 134.935 37.3854C134.893 37.3639 134.861 37.3271 134.845 37.2826C134.833 37.2375 134.838 37.1894 134.86 37.1478C134.881 37.1061 134.917 37.0739 134.961 37.0573C135.296 36.9642 135.653 36.9958 135.967 37.1464C136.116 37.2334 136.246 37.3498 136.348 37.4885C136.451 37.6272 136.524 37.7854 136.564 37.9534C136.577 37.9985 136.572 38.047 136.549 38.0882C136.527 38.1294 136.489 38.1601 136.444 38.1735C136.413 38.1829 136.381 38.1847 136.349 38.1787Z" fill="#263238"/>
<path d="M130.523 36.7785C130.494 36.7728 130.467 36.7602 130.445 36.7419C130.409 36.7056 130.389 36.6566 130.389 36.6056C130.389 36.5546 130.409 36.5057 130.445 36.4694C130.69 36.1815 131.034 35.9948 131.409 35.9454C131.596 35.9352 131.783 35.9635 131.959 36.0283C132.134 36.0932 132.295 36.1934 132.431 36.3227C132.466 36.3589 132.487 36.4079 132.487 36.4589C132.487 36.5099 132.466 36.5588 132.431 36.5951C132.413 36.6134 132.393 36.6279 132.37 36.6378C132.347 36.6478 132.322 36.6529 132.297 36.6529C132.272 36.6529 132.247 36.6478 132.224 36.6378C132.201 36.6279 132.18 36.6134 132.163 36.5951C132.066 36.4998 131.95 36.4251 131.823 36.3756C131.696 36.3261 131.561 36.3027 131.424 36.3069C131.154 36.3427 130.906 36.477 130.728 36.6842C130.707 36.7187 130.676 36.7462 130.64 36.763C130.604 36.7798 130.563 36.7853 130.523 36.7785Z" fill="#263238"/>
<path d="M133.603 38.4453C133.708 39.355 133.928 40.2476 134.258 41.102C134.735 42.1919 132.854 41.7832 132.854 41.7832L133.603 38.4453Z" fill="#ED847E"/>
<path d="M147.72 88.6761C147.018 87.4604 144.456 86.3495 144.456 86.3495C143.763 86.2349 143.058 86.2156 142.36 86.2919H142.459C142.459 86.2919 144.136 85.3277 143.717 85.0972C143.298 84.8666 142.271 85.2387 141.249 85.4535C140.455 85.6899 139.715 86.0817 139.074 86.6063C138.325 87.0622 137.89 88.4717 138.419 90.3372C138.419 90.3372 140.557 92.3703 142.087 92.6533C143.591 93.0201 146.662 93.2087 147.327 92.2707C148.763 90.3005 146.117 88.9171 146.117 88.9171C146.117 88.9171 148.401 89.8918 147.72 88.6761Z" fill="#FFC3BD"/>
<path d="M138.236 85.7098L137.639 89.8127C133.284 89.5769 128.987 89.1839 124.664 88.6075C122.5 88.3245 120.341 87.9787 118.156 87.5595C117.061 87.3551 115.966 87.1193 114.845 86.8416C113.653 86.5679 112.48 86.2178 111.334 85.7936C111.014 85.6678 110.679 85.5264 110.312 85.3482C109.867 85.1273 109.444 84.8641 109.049 84.5622C108.721 84.3133 108.423 84.0286 108.158 83.7133C107.957 83.4642 107.782 83.1956 107.634 82.9116C107.535 82.7216 107.447 82.5256 107.372 82.3247L107.262 81.9789L107.236 81.8636C107.124 81.4103 107.043 80.9499 106.995 80.4855C106.848 79.1074 106.822 78.0122 106.796 76.8699C106.796 74.6219 106.796 72.4473 106.895 70.2675C107.042 65.913 107.357 61.6267 107.797 57.3037L116.149 58.0321C116.029 60.1281 115.835 62.2712 115.699 64.3882L115.206 70.7338C115.049 72.8298 114.876 74.9258 114.787 76.9904C114.75 77.7083 114.719 78.4471 114.714 79.0864C115.353 79.3851 116.123 79.6785 116.893 79.9458C117.837 80.2706 118.816 80.5746 119.807 80.8785C121.788 81.4811 123.826 82.026 125.869 82.571C129.946 83.6242 134.107 84.6722 138.236 85.7098Z" fill="#263238"/>
<path d="M175.037 58.3731C172.223 61.0298 169.299 63.5241 166.275 65.9292C164.772 67.1449 163.22 68.3029 161.622 69.4715C160.81 70.0374 159.993 70.6033 159.065 71.1744C158.829 71.3159 158.588 71.4574 158.321 71.6041C158.007 71.7836 157.681 71.9429 157.346 72.081C157.039 72.2054 156.722 72.3036 156.398 72.3744L156.183 72.4111L155.9 72.4425C155.601 72.4749 155.298 72.4749 154.999 72.4425H154.847L154.632 72.4006C154.494 72.3684 154.357 72.3282 154.223 72.2801H154.15L154.003 72.2277C153.825 72.1596 153.589 72.0757 153.453 72.0129L153.002 71.8137C151.886 71.2897 151.017 70.8024 150.126 70.2941C149.235 69.7858 148.397 69.2776 147.569 68.7221C145.913 67.6741 144.288 66.6261 142.706 65.489L142.454 65.3161L140.992 64.2681C138.42 62.4341 135.92 60.5425 133.468 58.5303L138.592 51.8965C141.647 54.0763 144.671 56.3767 147.663 58.6404C149.167 59.7565 150.65 60.9041 152.143 61.9887C152.892 62.5127 153.626 63.0786 154.354 63.5922C154.878 63.959 155.402 64.331 155.926 64.6402C156.592 64.331 157.299 63.9642 158.022 63.5922C159.663 62.759 161.308 61.8368 162.974 60.9407C166.296 59.1329 169.655 57.2727 173.072 55.575L175.037 58.3731Z" fill="#263238"/>
<path opacity="0.2" d="M142.454 65.269L140.992 64.221L140.541 57.0684L142.454 65.269Z" fill="black"/>
<path d="M174.7 58.4364C174.994 58.4149 175.279 58.332 175.538 58.1929C175.797 58.0539 176.024 57.8619 176.204 57.6295C177.074 56.2094 178.447 55.9474 178.997 55.6435C179.547 55.3396 178.919 54.4069 177.525 54.7055C177.525 54.7055 178.122 52.7615 178.604 52.2899C179.086 51.8183 181.622 50.8122 181.575 50.4507C181.528 50.0891 179.563 50.676 178.431 51.1947C177.299 51.7135 174.962 54.5903 172.866 55.6225C172.851 55.6225 172.023 57.8024 174.7 58.4364Z" fill="#FFC3BD"/>
<path d="M74.9745 56.167C75.4304 59.6202 75.771 63.089 76.0749 66.5579C76.2374 68.2871 76.3579 70.0268 76.5046 71.7508L76.6985 74.3393L76.8871 76.6449C76.9137 76.914 76.9699 77.1794 77.0548 77.4362C77.1491 77.782 77.2644 78.1698 77.3902 78.5523C77.6365 79.3226 77.9142 80.1243 78.2024 80.9155C78.7578 82.5242 79.3761 84.1329 79.963 85.7625C81.1682 89.0061 82.3891 92.2811 83.5262 95.5823L79.8058 97.4268C77.8565 94.4714 76.054 91.4584 74.3195 88.372C73.4445 86.8367 72.6218 85.27 71.7991 83.656C71.3904 82.8543 70.9974 82.0369 70.6096 81.188C70.4157 80.7583 70.2219 80.3286 70.0332 79.8518C69.7965 79.2948 69.6037 78.7202 69.4568 78.1331L69.3835 77.8187L69.352 77.6248L69.2839 77.2685L69.1634 76.582L68.9433 75.2616L68.5241 72.6416C68.2726 70.9019 68.0001 69.1727 67.7853 67.4382C67.3241 63.9694 66.9154 60.5057 66.6377 57.0211L74.9745 56.167Z" fill="#2986CE"/>
<path d="M79.7863 76.538L90.0695 88.6764C90.1935 88.8227 90.2542 89.0123 90.2384 89.2034C90.2226 89.3946 90.1315 89.5716 89.9852 89.6956L72.889 104.179C72.7427 104.303 72.5531 104.363 72.362 104.348C72.1709 104.332 71.9938 104.241 71.8699 104.094L61.5867 91.956C61.4636 91.8107 61.4033 91.6225 61.419 91.4328C61.4347 91.243 61.5251 91.0673 61.6704 90.9442L78.7705 76.4577C78.9158 76.3346 79.104 76.2743 79.2937 76.29C79.4835 76.3057 79.6592 76.3961 79.7823 76.5414L79.7863 76.538Z" fill="#263238"/>
<path opacity="0.2" d="M79.7863 76.538L90.0695 88.6764C90.1935 88.8227 90.2542 89.0123 90.2384 89.2034C90.2226 89.3946 90.1315 89.5716 89.9852 89.6956L72.889 104.179C72.7427 104.303 72.5531 104.363 72.362 104.348C72.1709 104.332 71.9938 104.241 71.8699 104.094L61.5867 91.956C61.4636 91.8107 61.4033 91.6225 61.419 91.4328C61.4347 91.243 61.5251 91.0673 61.6704 90.9442L78.7705 76.4577C78.9158 76.3346 79.104 76.2743 79.2937 76.29C79.4835 76.3057 79.6592 76.3961 79.7823 76.5414L79.7863 76.538Z" fill="white"/>
<path d="M78.0813 90.3059C78.0824 90.7528 77.9508 91.19 77.7033 91.5621C77.4557 91.9342 77.1034 92.2245 76.6908 92.3962C76.2782 92.5679 75.8239 92.6134 75.3855 92.5269C74.9471 92.4403 74.5442 92.2256 74.2278 91.91C73.9114 91.5944 73.6958 91.1919 73.6082 90.7537C73.5207 90.3155 73.5651 89.8611 73.7359 89.4481C73.9066 89.0351 74.1961 88.6821 74.5676 88.4337C74.9391 88.1853 75.376 88.0527 75.8229 88.0527C76.421 88.0527 76.9946 88.29 77.418 88.7124C77.8414 89.1348 78.0799 89.7079 78.0813 90.3059Z" fill="#263238"/>
<path d="M64.4524 29.5587C64.4524 29.5587 60.4857 29.5115 59.5216 33.9865C58.5207 38.6501 58.2273 36.8161 56.0946 39.0378C53.9619 41.2596 56.2937 44.2778 52.6152 45.9441C52.6152 45.9441 55.6806 48.9205 61.6438 47.7519C67.6069 46.5834 66.7737 50.8278 74.4713 49.7065C74.1346 49.0301 74 48.271 74.0836 47.5201C74.1673 46.7691 74.4656 46.0583 74.9429 45.4725C76.6197 43.4709 75.3726 42.0089 75.4407 39.8815C75.5088 37.754 76.059 33.1271 73.1351 31.1359C70.2112 29.1447 67.6331 30.0145 67.6331 30.0145C66.6218 29.621 65.5335 29.465 64.4524 29.5587Z" fill="#263238"/>
<path d="M74.8125 189.651L76.3111 195.835H79.5704L79.7171 189.651H74.8125Z" fill="#FF8B7B"/>
<path d="M89.0229 200.209C88.85 198.192 87.9749 197.589 86.8693 197.526C85.7637 197.463 81.6764 196.096 81.6764 196.096C81.6764 196.096 80.8276 194.812 80.1044 194.555C79.3813 194.298 78.6372 195.053 78.6372 195.053L76.5937 194.807C76.5937 194.807 75.9806 193.884 75.5457 194.691C74.8959 195.938 74.9745 199.407 75.0217 200.209H89.0229Z" fill="#2986CE"/>
<path d="M88.7609 199.681H86.2195L75.1107 199.623C74.9692 199.623 75.0007 199.408 75.1369 199.413H75.8915V199.387C76.0511 199.148 76.1589 198.878 76.2079 198.595C76.2569 198.311 76.246 198.021 76.1759 197.742C76.1058 197.463 75.9781 197.202 75.8009 196.975C75.6238 196.749 75.4012 196.562 75.1474 196.427C75.0321 196.364 75.1474 196.175 75.2784 196.243C75.5458 196.389 75.7807 196.587 75.9689 196.826C76.1571 197.066 76.2946 197.341 76.3731 197.635C76.4515 197.929 76.4692 198.236 76.4252 198.537C76.3811 198.839 76.2762 199.128 76.1168 199.387H77.6888L88.7924 199.445C88.9286 199.471 88.9024 199.686 88.7609 199.681Z" fill="black"/>
<path d="M81.063 196.951C81.6394 196.27 82.4831 196.081 83.0962 196.589C83.1957 196.673 83.332 196.49 83.2324 196.406C82.525 195.819 81.5451 196.076 80.8901 196.841C80.7958 196.956 80.9635 197.061 81.063 196.951Z" fill="white"/>
<path d="M82.211 197.327C82.7874 196.646 83.631 196.458 84.2441 196.966C84.3436 197.05 84.4799 196.861 84.3803 196.782C83.6729 196.196 82.693 196.447 82.038 197.217C81.9437 197.333 82.1166 197.437 82.211 197.327Z" fill="white"/>
<path d="M83.3949 197.689C83.9765 197.007 84.8202 196.814 85.4332 197.327C85.5328 197.411 85.6638 197.222 85.5695 197.144C84.8621 196.557 83.8822 196.808 83.2272 197.579C83.1276 197.689 83.3006 197.799 83.3949 197.689Z" fill="white"/>
<path d="M61.3395 108.646C62.2998 116.946 63.7432 125.184 65.6625 133.316C66.3611 136.331 67.1384 139.545 67.9943 142.958C65.5996 162.754 74.9792 191.349 74.9792 191.349L80.0043 191.239C80.0043 191.239 80.6331 159.275 80.041 142.549C79.0769 115.138 75.7337 89.0065 75.7337 89.0065L62.0521 88.9541C62.0521 88.9541 59.6889 93.0937 61.3395 108.646Z" fill="#263238"/>
<path opacity="0.2" d="M61.3398 108.646C62.3001 116.946 63.7436 125.184 65.6628 133.316C68.5396 122.349 63.331 98.9521 63.331 98.9521L61.3398 108.646Z" fill="black"/>
<path d="M80.5809 192.423L80.7381 190.27H74.0361L74.4187 192.423H80.5809Z" fill="#263238"/>
<path d="M53.9775 189.651L55.4814 195.835H58.7355L58.8874 189.651H53.9775Z" fill="#FF8B7B"/>
<path d="M59.8729 192.423L60.0301 190.27H53.3281L53.7054 192.423H59.8729Z" fill="#263238"/>
<path d="M68.1929 200.209C68.0148 198.192 67.1449 197.589 66.0393 197.526C64.9337 197.463 60.8412 196.096 60.8412 196.096C60.8412 196.096 59.9923 194.812 59.2692 194.555C58.5461 194.298 57.7968 195.053 57.7968 195.053L55.7532 194.807C55.7532 194.807 55.1401 193.884 54.7052 194.691C54.0502 195.938 54.1288 199.407 54.1812 200.209H68.1929Z" fill="#2986CE"/>
<path d="M67.9256 199.681H65.3894L54.2806 199.624C54.1339 199.624 54.1653 199.409 54.3068 199.414H55.0561V199.388C55.2099 199.149 55.3125 198.881 55.3574 198.6C55.4024 198.319 55.3888 198.032 55.3174 197.757C55.246 197.482 55.1185 197.224 54.9427 197.001C54.767 196.778 54.5469 196.593 54.2963 196.459C54.1811 196.396 54.2963 196.207 54.4326 196.275C54.7001 196.421 54.9351 196.619 55.1232 196.859C55.3113 197.098 55.4485 197.374 55.5265 197.668C55.6045 197.962 55.6216 198.269 55.5768 198.571C55.5319 198.872 55.4261 199.161 55.2657 199.419H56.8377L67.9465 199.477C68.0985 199.472 68.0671 199.687 67.9256 199.681Z" fill="black"/>
<path d="M60.2289 196.951C60.8053 196.27 61.6489 196.081 62.2672 196.589C62.3668 196.673 62.4978 196.49 62.3982 196.406C61.6961 195.819 60.7109 196.076 60.0612 196.841C59.9616 196.956 60.1345 197.061 60.2289 196.951Z" fill="white"/>
<path d="M61.3773 197.327C61.9537 196.646 62.7973 196.458 63.4157 196.966C63.5152 197.05 63.6462 196.861 63.5467 196.782C62.8445 196.196 61.8594 196.447 61.2096 197.217C61.1101 197.333 61.283 197.437 61.3773 197.327Z" fill="white"/>
<path d="M62.5664 197.689C63.1428 197.007 63.9865 196.814 64.5995 197.327C64.6991 197.411 64.8353 197.222 64.7358 197.144C64.0284 196.557 63.0485 196.808 62.3935 197.579C62.2992 197.689 62.4721 197.799 62.5664 197.689Z" fill="white"/>
<path d="M66.0514 90.0812C66.0514 90.0812 63.5153 127.919 62.6559 142.979C61.7023 160.161 59.5486 189.447 59.2604 191.365H54.0833C54.6754 191.947 47.418 165.658 50.3472 144.258C47.6014 123.785 44.2635 108.798 48.5656 89.5205L66.0514 90.0812Z" fill="#263238"/>
<path d="M46.9873 90.9929C57.9022 94.598 76.2422 93.4137 76.2422 90.9143C76.2422 83.8769 73.748 75.9593 74.4187 71.3743C79.5801 67.7639 75.5453 64.4994 75.9907 59.1494C76.1454 57.1753 75.5558 55.2147 74.3378 53.6535C73.1198 52.0922 71.3617 51.0433 69.4093 50.713C68.4818 50.5558 67.5124 50.3986 66.5639 50.278C66.3701 50.2466 66.1762 50.2256 65.9875 50.2047C63.4551 49.9162 60.9064 49.7955 58.3581 49.8431C57.4254 49.8431 56.4612 49.8431 55.4499 49.8746C54.4386 49.906 53.4639 49.9322 52.5312 50.0003C51.7105 50.0582 50.9111 50.288 50.185 50.6747C49.4588 51.0615 48.8221 51.5966 48.3161 52.2454C47.8101 52.8942 47.4462 53.6421 47.248 54.4406C47.0498 55.2391 47.0217 56.0704 47.1655 56.8805C47.994 61.577 48.519 66.322 48.7375 71.0861C48.7794 72.0712 48.8161 73.0197 48.8265 73.9524C48.8935 77.2144 48.7447 80.4773 48.3811 83.7197C48.3811 83.7774 48.3811 83.8403 48.3811 83.8979C48.2239 85.1869 48.0336 86.3764 47.81 87.4663C47.7419 87.8122 47.6685 88.1371 47.5899 88.4567C47.4327 89.1327 47.1707 90.3221 46.9873 90.9929Z" fill="#2986CE"/>
<path opacity="0.2" d="M76.2428 90.9143C76.2428 93.4137 57.9028 94.5823 46.9932 90.9929C47.1713 90.3221 47.4333 89.1327 47.5905 88.4567C47.6691 88.1371 47.7425 87.8122 47.8106 87.4663C48.0342 86.3764 48.2246 85.1869 48.3818 83.8979C48.3818 83.8403 48.3818 83.7774 48.3818 83.7197C48.7477 80.4774 48.9018 77.2147 48.8429 73.9524C48.8429 73.0197 48.801 72.0712 48.7538 71.0861C48.6909 69.6451 48.5966 68.1622 48.4551 66.6321C48.3713 65.647 48.2717 64.6409 48.1512 63.6243C47.8997 61.4445 47.5748 59.1913 47.1661 56.8805C47.0223 56.0704 47.0504 55.2391 47.2486 54.4406C47.4468 53.6421 47.8108 52.8942 48.3167 52.2454C48.8227 51.5966 49.4594 51.0615 50.1856 50.6747C50.9118 50.288 51.7111 50.0582 52.5318 50.0003C53.4646 49.9322 54.4444 49.8903 55.4505 49.8746C56.4566 49.8589 57.426 49.8431 58.3587 49.8431C60.9071 49.7955 63.4558 49.9162 65.9882 50.2047C66.182 50.2047 66.3707 50.2466 66.5646 50.278C67.513 50.3986 68.4824 50.5558 69.4151 50.713C71.3656 51.0431 73.1222 52.0906 74.3399 53.6496C75.5576 55.2086 76.1485 57.1665 75.9966 59.1389C75.5512 64.4889 79.5807 67.7535 74.4246 71.3638C73.7538 75.9593 76.2428 83.8769 76.2428 90.9143Z" fill="white"/>
<path opacity="0.2" d="M53.9045 58.4316L48.4602 66.6322C48.3763 65.6471 48.2768 64.641 48.1562 63.6245L53.9045 58.4316Z" fill="black"/>
<path d="M66.5693 59.2063C66.5693 59.2993 66.6063 59.3886 66.6721 59.4544C66.7379 59.5201 66.8271 59.5571 66.9202 59.5571C67.0132 59.5571 67.1024 59.5201 67.1682 59.4544C67.234 59.3886 67.271 59.2993 67.271 59.2063C67.271 59.1132 67.234 59.024 67.1682 58.9582C67.1024 58.8924 67.0132 58.8555 66.9202 58.8555C66.8271 58.8555 66.7379 58.8924 66.6721 58.9582C66.6063 59.024 66.5693 59.1132 66.5693 59.2063Z" fill="#2986CE"/>
<path d="M67.135 62.7007C67.3288 62.7007 67.4858 62.5436 67.4858 62.3498C67.4858 62.1561 67.3288 61.999 67.135 61.999C66.9412 61.999 66.7842 62.1561 66.7842 62.3498C66.7842 62.5436 66.9412 62.7007 67.135 62.7007Z" fill="#2986CE"/>
<path d="M67.135 65.9028C67.3288 65.9028 67.4858 65.7457 67.4858 65.552C67.4858 65.3582 67.3288 65.2012 67.135 65.2012C66.9412 65.2012 66.7842 65.3582 66.7842 65.552C66.7842 65.7457 66.9412 65.9028 67.135 65.9028Z" fill="#2986CE"/>
<path d="M58.3643 49.843C60.9476 54.3861 67.026 57.1056 67.026 57.1056C67.8487 55.0673 67.5919 51.808 66.5701 50.2936C66.3762 50.2622 66.1823 50.2412 65.9937 50.2203C63.4616 49.9266 60.9129 49.8005 58.3643 49.843Z" fill="#FF8B7B"/>
<path d="M66.6581 51.6299C66.6827 51.7019 66.7161 51.7706 66.7576 51.8343C67.6327 53.2229 66.679 54.4857 65.1856 54.3809C65.0411 54.3706 64.8974 54.3496 64.756 54.3181C64.2103 54.2085 63.7122 53.932 63.3307 53.5268C62.1678 52.2785 60.9099 51.1223 59.5684 50.0684C61.8425 48.8475 62.6757 44.5193 62.8853 41.8154L66.4118 46.3114L67.072 47.2912C66.7492 47.837 66.4924 48.4192 66.307 49.0257C66.1501 49.4557 66.1001 49.9175 66.1612 50.3711C66.2224 50.8248 66.3929 51.2568 66.6581 51.6299Z" fill="#FF8B7B"/>
<path d="M59.8728 49.8423C59.8728 49.8423 57.7768 49.3183 56.0947 49.8423L59.5217 55.732C61.3295 54.4168 63.394 56.125 67.0254 57.1049C64.0209 55.385 61.5466 52.8727 59.8728 49.8423Z" fill="#2986CE"/>
<path d="M59.8728 49.8423C59.8728 49.8423 57.7768 49.3183 56.0947 49.8423L59.5217 55.732C61.3295 54.4168 63.394 56.125 67.0254 57.1049C64.0209 55.385 61.5466 52.8727 59.8728 49.8423Z" fill="#2986CE"/>
<path d="M66.1338 50.1092C66.1338 50.1092 68.2298 49.7267 69.4402 50.7118C69.8803 52.2318 70.2096 53.7816 70.4254 55.3492C70.4254 55.3492 68.4079 54.3431 67.0508 57.1046C67.0246 57.1046 67.7058 52.7083 66.1338 50.1092Z" fill="#2986CE"/>
<path d="M66.1338 50.1092C66.1338 50.1092 68.2298 49.7267 69.4402 50.7118C69.8803 52.2318 70.2096 53.7816 70.4254 55.3492C70.4254 55.3492 68.4079 54.3431 67.0508 57.1046C67.0246 57.1046 67.7058 52.7083 66.1338 50.1092Z" fill="#2986CE"/>
<g opacity="0.2">
<path d="M66.2605 49.02C66.4459 48.4136 66.7027 47.8313 67.0256 47.2855L66.3653 46.3057L64.1436 46.3581C64.5357 47.4549 65.2801 48.3909 66.2605 49.02Z" fill="black"/>
</g>
<path d="M62.189 36.9935C61.8379 41.4371 61.5968 43.2815 63.457 45.8753C66.2604 49.7372 71.6943 49.1765 73.3397 44.9269C74.8226 41.1017 75.1527 34.4783 71.1703 32.1308C67.1879 29.7833 62.5453 32.55 62.189 36.9935Z" fill="#FF8B7B"/>
<path d="M63.1688 39.9032C60.9418 39.3111 61.8169 37.0107 61.8169 37.0107L65.0972 37.5347C65.0972 37.5347 65.3958 40.4901 63.1688 39.9032Z" fill="#263238"/>
<path d="M72.1611 32.5458C72.1611 32.5458 72.1034 35.0034 69.0904 35.1344C66.0774 35.2654 66.3394 39.7194 62.9649 39.012C59.5903 38.3046 61.2619 34.1178 62.7029 33.0017C64.1439 31.8856 67.7071 28.5477 72.1611 32.5458Z" fill="#263238"/>
<path d="M71.4892 43.843C71.4892 43.843 69.3251 42.8631 68.8692 41.9199C68.8692 41.9199 68.5548 43.6072 69.6866 44.2255C69.9807 44.3979 70.3286 44.4542 70.662 44.3834C70.9955 44.3126 71.2905 44.1199 71.4892 43.843Z" fill="white"/>
<path d="M69.499 38.9748C69.4519 39.3361 69.5985 39.6502 69.8341 39.6816C70.0698 39.7131 70.3002 39.4512 70.3578 39.0952C70.4154 38.7391 70.2635 38.4197 70.0279 38.3883C69.7923 38.3569 69.5619 38.6187 69.5043 38.9748" fill="#263238"/>
<path d="M73.1461 39.5665C73.0937 39.9278 73.2456 40.242 73.476 40.2787C73.7064 40.3153 73.942 40.043 73.9996 39.687C74.0572 39.3309 73.9001 39.0115 73.6645 38.9801C73.4288 38.9487 73.1985 39.2105 73.1409 39.5665" fill="#263238"/>
<path d="M73.5547 38.9854L74.4501 38.8545C74.4501 38.8545 73.9265 39.4671 73.5547 38.9854Z" fill="#263238"/>
<path d="M71.8091 39.4932C71.8091 39.4932 72.2912 40.5412 72.8571 41.4477C72.9044 41.5162 72.9347 41.5951 72.9455 41.6777C72.9562 41.7602 72.9471 41.8442 72.9189 41.9226C72.8908 42.001 72.8443 42.0715 72.7834 42.1283C72.7226 42.1852 72.649 42.2267 72.5689 42.2494C72.1891 42.3683 71.7971 42.4439 71.4004 42.4747L71.8091 39.4932Z" fill="#FF5652"/>
<path d="M60.1975 39.824C60.3073 40.2141 60.4992 40.5763 60.7604 40.8863C61.0216 41.1962 61.346 41.4468 61.7118 41.6213C62.655 42.0352 63.2838 41.0291 63.1686 39.9025C63.0585 38.886 62.4402 37.445 61.4289 37.5236C60.4176 37.6022 59.8569 38.7969 60.1975 39.824Z" fill="#FF8B7B"/>
<path d="M68.5184 37.5386C68.5467 37.5395 68.5749 37.5344 68.6011 37.5236C68.6274 37.5127 68.6509 37.4964 68.6703 37.4757C68.849 37.2763 69.072 37.1216 69.3214 37.0242C69.5708 36.9268 69.8396 36.8894 70.1061 36.915C70.1579 36.9168 70.2086 36.8998 70.2489 36.8672C70.2892 36.8345 70.3163 36.7884 70.3252 36.7374C70.3341 36.6863 70.3243 36.6337 70.2975 36.5893C70.2707 36.5449 70.2288 36.5117 70.1795 36.4958C69.8435 36.4549 69.5026 36.496 69.1859 36.6156C68.8693 36.7351 68.5863 36.9295 68.3612 37.1823C68.3224 37.2223 68.3008 37.2759 68.3008 37.3316C68.3008 37.3873 68.3224 37.4409 68.3612 37.4809C68.3804 37.5 68.4034 37.515 68.4286 37.5249C68.4538 37.5348 68.4808 37.5395 68.5079 37.5386" fill="#263238"/>
<path d="M74.8178 38.1792C74.8718 38.1835 74.9256 38.1687 74.9697 38.1373C75.0133 38.1005 75.0409 38.0483 75.0468 37.9917C75.0526 37.935 75.0363 37.8782 75.0012 37.8334C74.7964 37.565 74.5299 37.3501 74.2243 37.2069C73.9187 37.0636 73.583 36.9963 73.2458 37.0107C73.2177 37.0126 73.1904 37.0202 73.1653 37.033C73.1403 37.0457 73.118 37.0634 73.1 37.0849C73.0819 37.1064 73.0683 37.1313 73.06 37.1582C73.0518 37.185 73.049 37.2133 73.0519 37.2412C73.0545 37.2695 73.0627 37.297 73.076 37.322C73.0893 37.3471 73.1074 37.3693 73.1294 37.3873C73.1513 37.4054 73.1766 37.4189 73.2037 37.4271C73.2309 37.4353 73.2594 37.438 73.2877 37.4351C73.5547 37.4275 73.8196 37.4839 74.0603 37.5997C74.301 37.7154 74.5104 37.8872 74.671 38.1006C74.6886 38.1233 74.7108 38.142 74.736 38.1555C74.7613 38.1691 74.7892 38.1771 74.8178 38.1792Z" fill="#263238"/>
<path d="M69.9121 38.3936L70.8075 38.2627C70.8075 38.2627 70.2839 38.8753 69.9121 38.3936Z" fill="#263238"/>
<path d="M42.6697 77.6452C44.4985 80.5796 46.5368 83.5297 48.5333 86.4379L45.4469 89.2151C42.6886 86.7553 40.0961 84.1155 37.6865 81.3132C36.4119 79.8528 35.2389 78.3069 34.1757 76.6863C33.898 76.2513 33.6255 75.8007 33.3635 75.2976C33.0628 74.7444 32.8069 74.1679 32.5984 73.5737C32.4656 73.1845 32.3657 72.7849 32.2998 72.379C32.197 71.7737 32.197 71.1555 32.2998 70.5502C32.3943 70.0088 32.5544 69.4809 32.7766 68.9782C32.9204 68.647 33.0813 68.3234 33.2587 68.0088C33.8104 67.0636 34.4304 66.1599 35.1136 65.305C35.732 64.5137 36.3503 63.7749 36.9738 63.057C38.2419 61.6422 39.51 60.2851 40.8252 58.9855C43.4452 56.3655 46.1072 53.9237 48.9734 51.5762L54.4178 57.9533L46.5578 65.0063C45.274 66.1958 43.985 67.359 42.785 68.559C42.1772 69.1459 41.585 69.738 41.0401 70.3249C40.5568 70.8339 40.102 71.3692 39.6777 71.9283V71.9545C39.7144 72.0541 39.751 72.1641 39.793 72.2742C39.9135 72.5833 40.0602 72.9239 40.2174 73.275C40.9568 74.7742 41.7754 76.2329 42.6697 77.6452Z" fill="#2986CE"/>
<path opacity="0.2" d="M42.6697 77.6452C44.4985 80.5796 46.5368 83.5297 48.5333 86.4379L45.4469 89.2151C42.6886 86.7553 40.0961 84.1155 37.6865 81.3132C36.4119 79.8528 35.2389 78.3069 34.1757 76.6863C33.898 76.2513 33.6255 75.8007 33.3635 75.2976C33.0628 74.7444 32.8069 74.1679 32.5984 73.5737C32.4656 73.1845 32.3657 72.7849 32.2998 72.379C32.197 71.7737 32.197 71.1555 32.2998 70.5502C32.3943 70.0088 32.5544 69.4809 32.7766 68.9782C32.9204 68.647 33.0813 68.3234 33.2587 68.0088C33.8104 67.0636 34.4304 66.1599 35.1136 65.305C35.732 64.5137 36.3503 63.7749 36.9738 63.057C38.2419 61.6422 39.51 60.2851 40.8252 58.9855C43.4452 56.3655 46.1072 53.9237 48.9734 51.5762L54.4178 57.9533L46.5578 65.0063C45.274 66.1958 43.985 67.359 42.785 68.559C42.1772 69.1459 41.585 69.738 41.0401 70.3249C40.5568 70.8339 40.102 71.3692 39.6777 71.9283V71.9545C39.7144 72.0541 39.751 72.1641 39.793 72.2742C39.9135 72.5833 40.0602 72.9239 40.2174 73.275C40.9568 74.7742 41.7754 76.2329 42.6697 77.6452Z" fill="white"/>
<path d="M48.3179 85.1396C48.3179 85.1396 51.7973 86.4287 52.3318 87.1099C52.8663 87.7911 49.455 91.6372 48.1398 92.1717C46.8245 92.7062 47.5005 91.1237 47.5005 91.1237C47.5005 91.1237 45.787 91.5272 44.9853 90.2225C44.1836 88.9177 45.1268 85.3388 48.3179 85.1396Z" fill="#FF8B7B"/>
<path d="M85.3816 95.1058C85.3816 95.1058 85.7012 95.0324 86.3091 94.1993C86.6843 93.6397 86.8849 92.9813 86.8855 92.3076L84.6847 94.1731C84.6847 94.1731 82.7301 93.4237 81.5407 94.3093C79.1093 96.0961 79.7957 98.1083 80.0787 98.6899C80.3617 99.2716 82.3686 98.9153 83.7467 97.7572C84.5722 97.0805 85.1477 96.1472 85.3816 95.1058Z" fill="#FF8B7B"/>
</svg>
