<svg width="20" height="20" viewBox="0 0 20 20" fill="none" xmlns="http://www.w3.org/2000/svg">
<path d="M17.9998 11.3307H11.3332V17.9974C11.3332 18.351 11.1927 18.6902 10.9426 18.9402C10.6926 19.1903 10.3535 19.3307 9.99984 19.3307C9.64621 19.3307 9.30708 19.1903 9.05703 18.9402C8.80698 18.6902 8.6665 18.351 8.6665 17.9974V11.3307H1.99984C1.64622 11.3307 1.30708 11.1903 1.05703 10.9402C0.80698 10.6902 0.666504 10.351 0.666504 9.9974C0.666504 9.64377 0.80698 9.30464 1.05703 9.05459C1.30708 8.80454 1.64622 8.66406 1.99984 8.66406H8.6665V1.9974C8.6665 1.64377 8.80698 1.30463 9.05703 1.05459C9.30708 0.804538 9.64621 0.664062 9.99984 0.664062C10.3535 0.664062 10.6926 0.804538 10.9426 1.05459C11.1927 1.30463 11.3332 1.64377 11.3332 1.9974V8.66406H17.9998C18.3535 8.66406 18.6926 8.80454 18.9426 9.05459C19.1927 9.30464 19.3332 9.64377 19.3332 9.9974C19.3332 10.351 19.1927 10.6902 18.9426 10.9402C18.6926 11.1903 18.3535 11.3307 17.9998 11.3307Z" fill="white"/>
</svg>
