<svg width="27" height="24" viewBox="0 0 27 24" fill="none" xmlns="http://www.w3.org/2000/svg">
<path d="M12.3475 18.3002C10.7633 18.3002 9.21476 17.8586 7.89759 17.0312C6.58042 16.2038 5.55381 15.0278 4.94759 13.6518C4.34136 12.2759 4.18274 10.7619 4.4918 9.30121C4.80085 7.84053 5.56369 6.49881 6.68385 5.44572C7.80401 4.39263 9.23118 3.67547 10.7849 3.38492C12.3386 3.09438 13.9491 3.2435 15.4126 3.81342C16.8762 4.38335 18.1271 5.34849 19.0072 6.58679C19.8873 7.8251 20.3571 9.28094 20.3571 10.7702C20.3571 11.7591 20.1499 12.7383 19.7474 13.6518C19.3448 14.5654 18.7549 15.3955 18.0111 16.0948C17.2674 16.794 16.3844 17.3486 15.4126 17.727C14.4408 18.1055 13.3993 18.3002 12.3475 18.3002ZM12.3475 4.75024C11.0852 4.75024 9.85129 5.10213 8.80175 5.76142C7.75221 6.42071 6.9342 7.35778 6.45115 8.45414C5.9681 9.55049 5.84171 10.7569 6.08797 11.9208C6.33423 13.0847 6.94207 14.1538 7.83462 14.9929C8.72718 15.832 9.86437 16.4034 11.1024 16.6349C12.3404 16.8665 13.6236 16.7476 14.7898 16.2935C15.956 15.8394 16.9528 15.0704 17.654 14.0837C18.3553 13.097 18.7296 11.9369 18.7296 10.7502C18.7296 9.15894 18.0572 7.63282 16.8603 6.5076C15.6634 5.38238 14.0401 4.75024 12.3475 4.75024Z" fill="black"/>
<path d="M22.1653 20.75C22.0605 20.7504 21.9566 20.7312 21.8598 20.6934C21.763 20.6557 21.6752 20.6001 21.6015 20.53L17.2085 16.4C17.0676 16.2578 16.9909 16.0697 16.9945 15.8754C16.9982 15.6811 17.0819 15.4958 17.228 15.3583C17.3742 15.2209 17.5714 15.1422 17.7781 15.1388C17.9848 15.1354 18.1848 15.2075 18.336 15.34L22.729 19.47C22.8784 19.6106 22.9624 19.8012 22.9624 20C22.9624 20.1987 22.8784 20.3893 22.729 20.53C22.6554 20.6001 22.5676 20.6557 22.4708 20.6934C22.374 20.7312 22.2701 20.7504 22.1653 20.75Z" fill="black"/>
</svg>
