<svg width="38" height="38" viewBox="0 0 38 38" fill="none" xmlns="http://www.w3.org/2000/svg">
<path d="M13.3 17.6969L15.9252 15.0417L13.2604 12.3769L12.2977 13.3396L13.9998 15.0021L12.2977 16.7042L13.3 17.6969ZM33.25 13.7623C32.5217 13.7623 31.8931 13.4984 31.3642 12.9707C30.8354 12.4408 30.571 11.8117 30.571 11.0833C30.571 10.4521 30.733 9.79503 31.0571 9.11208C31.3822 8.42914 32.1132 7.25906 33.25 5.60183C34.3868 7.25906 35.1173 8.42914 35.4413 9.11208C35.7664 9.79503 35.929 10.4521 35.929 11.0833C35.929 11.8117 35.6651 12.4403 35.1373 12.9691C34.6074 13.4979 33.9783 13.7623 33.25 13.7623ZM24.7396 17.7048L25.7418 16.7042L24.0397 15.0021L25.7022 13.3396L24.7396 12.3769L22.0748 15.0417L24.7396 17.7048ZM19 21.375C18.2738 21.375 17.5518 21.4795 16.834 21.6885C16.1162 21.8975 15.4364 22.2184 14.7947 22.6512L9.01233 19.2739C9.01233 18.8918 8.93739 18.5266 8.7875 18.1783C8.63761 17.8299 8.398 17.5597 8.06867 17.3676C7.6095 17.1121 7.13081 17.0499 6.63258 17.1807C6.13436 17.3116 5.75436 17.6035 5.49258 18.0563C5.23714 18.5155 5.17486 18.9942 5.30575 19.4924C5.43664 19.9906 5.7285 20.3706 6.18133 20.6324C6.50961 20.8224 6.86481 20.8974 7.24692 20.8573C7.62903 20.8171 7.98422 20.701 8.3125 20.5089L13.6325 23.5774C13.3053 23.9036 12.9992 24.2582 12.7142 24.6414C12.4292 25.0246 12.1779 25.4579 11.9605 25.9413H13.5375C14.0917 24.9913 14.8438 24.2261 15.7937 23.6455C16.7437 23.0649 17.8125 22.7747 19 22.7747C20.1875 22.7747 21.2562 23.0649 22.2062 23.6455C23.1562 24.2261 23.9083 24.9913 24.4625 25.9413H26.0395C25.3048 24.4076 24.2994 23.2629 23.0233 22.5071C21.7481 21.7524 20.4071 21.375 19 21.375ZM19 33.25C17.0261 33.25 15.1726 32.8753 13.4393 32.1258C11.7061 31.3753 10.193 30.3536 8.89992 29.0605C7.60686 27.7674 6.59194 26.2591 5.85517 24.5353C5.11839 22.8116 4.75 20.9665 4.75 19C4.75 17.0335 5.11839 15.1884 5.85517 13.4647C6.59194 11.7409 7.60686 10.2326 8.89992 8.9395C10.193 7.64644 11.7061 6.62519 13.4393 5.87575C15.1726 5.12631 17.0261 4.75106 19 4.75C20.8113 4.75 22.515 5.06139 24.111 5.68417C25.707 6.30694 27.1404 7.17883 28.4113 8.29983C28.2044 8.76322 28.0356 9.21606 27.9047 9.65833C27.7738 10.1006 27.7083 10.5756 27.7083 11.0833C27.7083 12.5389 28.1886 13.7861 29.1492 14.8247C30.1097 15.8624 31.3041 16.4524 32.7322 16.5949C32.7871 16.5949 32.842 16.5918 32.8969 16.5854C32.9518 16.5791 33.0035 16.5701 33.0521 16.5585C33.126 16.9596 33.1772 17.3597 33.2057 17.7587C33.2352 18.1577 33.25 18.5714 33.25 19C33.25 20.9676 32.8753 22.8179 32.1258 24.5512C31.3753 26.2844 30.3588 27.7923 29.0763 29.0748C27.7928 30.3583 26.2844 31.3748 24.5512 32.1243C22.8179 32.8748 20.9676 33.25 19 33.25Z" fill="white"/>
</svg>
