<svg width="208" height="223" viewBox="0 0 208 223" fill="none" xmlns="http://www.w3.org/2000/svg">
<path d="M193.721 21.0859H81.2725C79.3476 21.0859 77.7871 22.6464 77.7871 24.5713V134.046C77.7871 135.971 79.3476 137.531 81.2725 137.531H193.721C195.646 137.531 197.206 135.971 197.206 134.046V24.5713C197.206 22.6464 195.646 21.0859 193.721 21.0859Z" fill="white"/>
<mask id="mask0_971_1655" style="mask-type:luminance" maskUnits="userSpaceOnUse" x="77" y="21" width="121" height="117">
<path d="M193.722 21.085H81.2734C79.3485 21.085 77.7881 22.6454 77.7881 24.5703V134.045C77.7881 135.97 79.3485 137.53 81.2734 137.53H193.722C195.647 137.53 197.207 135.97 197.207 134.045V24.5703C197.207 22.6454 195.647 21.085 193.722 21.085Z" fill="white"/>
</mask>
<g mask="url(#mask0_971_1655)">
<path d="M178.706 128.323H151.024C149.295 128.323 147.637 127.636 146.414 126.413C145.192 125.191 144.505 123.533 144.505 121.804C144.505 120.074 145.192 118.416 146.414 117.194C147.637 115.971 149.295 115.284 151.024 115.284H178.706C180.435 115.284 182.094 115.971 183.316 117.194C184.539 118.416 185.226 120.074 185.226 121.804C185.226 123.533 184.539 125.191 183.316 126.413C182.094 127.636 180.435 128.323 178.706 128.323Z" fill="#2986CE" stroke="#263238" stroke-linecap="round" stroke-linejoin="round"/>
<path d="M157.79 125.003H156.731L156.551 123.789H155.262L155.082 125.003H154.134L155.202 118.333H156.737L157.79 125.003ZM155.398 122.887H156.401L155.899 119.512L155.398 122.887Z" fill="white"/>
<path d="M161.306 122.515V123.398C161.306 124.466 160.774 125.078 159.746 125.078C158.718 125.078 158.182 124.466 158.182 123.398V119.933C158.182 118.865 158.713 118.258 159.746 118.258C160.779 118.258 161.306 118.865 161.306 119.933V120.58H160.303V119.868C160.303 119.391 160.092 119.211 159.756 119.211C159.42 119.211 159.215 119.391 159.215 119.868V123.468C159.215 123.945 159.425 124.115 159.756 124.115C160.087 124.115 160.303 123.945 160.303 123.468V122.515H161.306Z" fill="white"/>
<path d="M164.987 122.515V123.398C164.987 124.466 164.45 125.078 163.422 125.078C162.394 125.078 161.862 124.466 161.862 123.398V119.933C161.862 118.865 162.394 118.258 163.422 118.258C164.45 118.258 164.987 118.865 164.987 119.933V120.58H163.984V119.868C163.984 119.391 163.773 119.211 163.442 119.211C163.111 119.211 162.9 119.391 162.9 119.868V123.468C162.9 123.945 163.106 124.115 163.442 124.115C163.778 124.115 163.984 123.945 163.984 123.468V122.515H164.987Z" fill="white"/>
<path d="M166.671 121.141H168.11V122.094H166.671V124.05H168.482V125.003H165.623V118.333H168.482V119.296H166.671V121.141Z" fill="white"/>
<path d="M172.238 119.978V120.845C172.238 121.914 171.737 122.495 170.674 122.495H170.172V125.003H169.124V118.333H170.684C171.722 118.333 172.238 118.915 172.238 119.978ZM170.182 119.296V121.553H170.684C171.02 121.553 171.185 121.402 171.185 120.926V119.923C171.185 119.421 171.005 119.296 170.684 119.296H170.182Z" fill="white"/>
<path d="M172.418 118.333H175.658V119.296H174.564V125.013H173.516V119.296H172.418V118.333Z" fill="white"/>
<path d="M123.959 128.323H96.282C94.553 128.323 92.8948 127.636 91.6722 126.413C90.4496 125.191 89.7627 123.533 89.7627 121.804C89.7627 120.074 90.4496 118.416 91.6722 117.194C92.8948 115.971 94.553 115.284 96.282 115.284H123.959C125.688 115.284 127.346 115.971 128.569 117.194C129.792 118.416 130.478 120.074 130.478 121.804C130.478 123.533 129.792 125.191 128.569 126.413C127.346 127.636 125.688 128.323 123.959 128.323Z" fill="#2986CE"/>
<mask id="mask1_971_1655" style="mask-type:luminance" maskUnits="userSpaceOnUse" x="89" y="115" width="42" height="14">
<path d="M123.959 128.323H96.282C94.553 128.323 92.8948 127.636 91.6722 126.413C90.4496 125.191 89.7627 123.533 89.7627 121.804C89.7627 120.074 90.4496 118.416 91.6722 117.194C92.8948 115.971 94.553 115.284 96.282 115.284H123.959C125.688 115.284 127.346 115.971 128.569 117.194C129.792 118.416 130.478 120.074 130.478 121.804C130.478 123.533 129.792 125.191 128.569 126.413C127.346 127.636 125.688 128.323 123.959 128.323Z" fill="white"/>
</mask>
<g mask="url(#mask1_971_1655)">
<path opacity="0.6" d="M123.959 128.323H96.282C94.553 128.323 92.8948 127.636 91.6722 126.413C90.4496 125.191 89.7627 123.533 89.7627 121.804C89.7627 120.074 90.4496 118.416 91.6722 117.194C92.8948 115.971 94.553 115.284 96.282 115.284H123.959C125.688 115.284 127.346 115.971 128.569 117.194C129.792 118.416 130.478 120.074 130.478 121.804C130.478 123.533 129.792 125.191 128.569 126.413C127.346 127.636 125.688 128.323 123.959 128.323Z" fill="white"/>
</g>
<path d="M123.959 128.323H96.282C94.553 128.323 92.8948 127.636 91.6722 126.413C90.4496 125.191 89.7627 123.533 89.7627 121.804C89.7627 120.074 90.4496 118.416 91.6722 117.194C92.8948 115.971 94.553 115.284 96.282 115.284H123.959C125.688 115.284 127.346 115.971 128.569 117.194C129.792 118.416 130.478 120.074 130.478 121.804C130.478 123.533 129.792 125.191 128.569 126.413C127.346 127.636 125.688 128.323 123.959 128.323Z" stroke="#263238" stroke-linecap="round" stroke-linejoin="round"/>
<path d="M98.6543 118.333H100.314C101.362 118.333 101.874 118.915 101.874 119.978V123.353C101.874 124.421 101.372 125.003 100.314 125.003H98.6543V118.333ZM99.7024 119.286V124.05H100.294C100.625 124.05 100.826 123.874 100.826 123.398V119.933C100.826 119.456 100.625 119.286 100.294 119.286H99.7024Z" fill="#263238"/>
<path d="M103.589 121.141H105.028V122.094H103.589V124.05H105.399V125.003H102.541V118.333H105.399V119.296H103.589V121.141Z" fill="#263238"/>
<path d="M109.09 122.515V123.398C109.09 124.466 108.559 125.078 107.525 125.078C106.492 125.078 105.966 124.466 105.966 123.398V119.933C105.966 118.865 106.497 118.258 107.525 118.258C108.553 118.258 109.09 118.865 109.09 119.933V120.58H108.087V119.868C108.087 119.391 107.882 119.211 107.546 119.211C107.21 119.211 107.004 119.391 107.004 119.868V123.468C107.004 123.945 107.215 124.115 107.546 124.115C107.876 124.115 108.087 123.945 108.087 123.468V122.515H109.09Z" fill="#263238"/>
<path d="M109.727 118.333H110.775V124.05H112.51V125.003H109.737L109.727 118.333Z" fill="#263238"/>
<path d="M112.962 118.333H114.015V125.003H112.962V118.333Z" fill="#263238"/>
<path d="M115.724 120.168V125.003H114.781V118.333H116.095L117.153 122.345V118.333H118.086V125.003H117.023L115.724 120.168Z" fill="#263238"/>
<path d="M119.887 121.141H121.326V122.094H119.887V124.05H121.697V125.003H118.839V118.333H121.697V119.296H119.887V121.141Z" fill="#263238"/>
<path d="M164.664 73.6604C164.664 79.0373 163.07 84.2933 160.083 88.764C157.095 93.2346 152.85 96.7191 147.882 98.7767C142.915 100.834 137.448 101.373 132.175 100.324C126.901 99.2748 122.057 96.6856 118.255 92.8836C114.453 89.0816 111.864 84.2376 110.815 78.9641C109.766 73.6906 110.305 68.2245 112.362 63.257C114.42 58.2894 117.904 54.0436 122.375 51.0564C126.846 48.0692 132.102 46.4748 137.479 46.4748C141.053 46.4609 144.594 47.1546 147.899 48.5158C151.203 49.8771 154.206 51.8791 156.733 54.4062C159.26 56.9334 161.262 59.9359 162.623 63.2405C163.985 66.5451 164.678 70.0865 164.664 73.6604Z" fill="#2986CE" stroke="#263238" stroke-linecap="round" stroke-linejoin="round"/>
<path d="M160.076 88.7799C157.641 92.4144 154.366 95.4078 150.527 97.5058C146.689 99.6039 142.401 100.745 138.027 100.831C133.654 100.918 129.324 99.9478 125.405 98.0035C121.486 96.0591 118.095 93.1978 115.519 89.6626C115.679 89.3918 115.84 89.121 116.02 88.8552C117.023 87.1952 123.161 84.5674 131.842 83.6246C133.801 83.4091 135.769 83.2919 137.739 83.2736C139.873 83.2534 142.006 83.3774 144.123 83.6447C151.666 84.5875 157.939 87.0849 160.076 88.7799Z" fill="#757575" stroke="#263238" stroke-linecap="round" stroke-linejoin="round"/>
<path d="M144.755 84.2874C144.078 85.4862 143.09 86.48 141.895 87.164C140.7 87.848 139.342 88.1969 137.965 88.1739C133.953 88.1739 131.05 84.7036 131.05 84.7036C132.454 83.4449 132.554 81.108 132.334 79.2675C132.242 78.3656 132.075 77.4731 131.832 76.5996H143.798C143.07 78.9917 143.096 80.7068 143.376 81.9003C143.773 83.6605 144.755 84.2874 144.755 84.2874Z" fill="white" stroke="#263238" stroke-linecap="round" stroke-linejoin="round"/>
<path d="M143.351 81.9003C134.706 84.1671 132.99 79.2274 132.99 79.2274L132.334 79.2675C132.242 78.3656 132.075 77.4731 131.832 76.5996H143.798C143.045 78.9917 143.07 80.7068 143.351 81.9003Z" fill="#263238"/>
<path d="M146.375 68.1989C146.375 68.1989 147.338 67.1508 147.814 67.4968C148.134 67.758 148.375 68.1021 148.511 68.4914C148.647 68.8808 148.673 69.3001 148.587 69.7034C148.331 70.596 147.213 72.1456 147.122 73.0483C147.032 73.951 146.46 74.974 145.823 74.3772C145.187 73.7805 146.375 68.1989 146.375 68.1989Z" fill="white" stroke="#263238" stroke-linecap="round" stroke-linejoin="round"/>
<path d="M129.205 68.1989C129.205 68.1989 128.242 67.1508 127.766 67.4968C127.447 67.758 127.205 68.1021 127.069 68.4914C126.933 68.8808 126.907 69.3001 126.993 69.7034C127.249 70.596 128.368 72.1456 128.458 73.0483C128.548 73.951 129.12 74.974 129.757 74.3772C130.394 73.7805 129.205 68.1989 129.205 68.1989Z" fill="white" stroke="#263238" stroke-linecap="round" stroke-linejoin="round"/>
<path d="M137.584 56.1074C149.705 56.1074 146.821 72.2453 144.605 77.4257C143.822 79.2461 139.76 81.6331 137.8 81.6331C135.974 81.6331 131.782 78.7797 131.06 77.0696C128.793 71.8541 126.05 56.1074 137.584 56.1074Z" fill="white" stroke="#263238" stroke-linecap="round" stroke-linejoin="round"/>
<path d="M139.64 66.0635C139.64 66.0635 142.794 65.0856 143.772 67.0363" stroke="#263238" stroke-linecap="round" stroke-linejoin="round"/>
<path d="M141.977 68.7159C141.977 69.087 141.787 69.3879 141.556 69.3879C141.325 69.3879 141.13 69.087 141.13 68.7159C141.13 68.3448 141.32 68.0439 141.556 68.0439C141.792 68.0439 141.977 68.3448 141.977 68.7159Z" fill="#263238"/>
<path d="M135.94 66.0635C135.94 66.0635 132.786 65.0856 131.808 67.0363" stroke="#263238" stroke-linecap="round" stroke-linejoin="round"/>
<path d="M133.603 68.7159C133.603 69.087 133.793 69.3879 134.024 69.3879C134.254 69.3879 134.45 69.087 134.45 68.7159C134.45 68.3448 134.259 68.0439 134.024 68.0439C133.788 68.0439 133.603 68.3448 133.603 68.7159Z" fill="#263238"/>
<path d="M142.599 60.2253C139.562 61.1953 136.299 61.1953 133.262 60.2253C133.262 60.2253 131.622 60.13 130.98 60.9525C130.338 61.7749 130.98 64.3124 131.15 65.3455C131.321 66.3786 129.731 67.0957 129.947 69.7034L129.33 70.6061C129.33 70.6061 127.62 66.4036 128.051 62.7929C128.482 59.1822 130.764 57.7781 130.764 57.7781C130.764 57.7781 131.802 54.6538 137.9 54.6789C144.475 54.7039 145.137 58.2595 145.137 58.2595C145.137 58.2595 149.59 61.2333 146.295 70.912L145.583 69.7084C145.753 68.4247 145.458 67.1225 144.751 66.0376C144.174 65.2001 145.092 62.6826 144.876 61.3888C144.66 60.0949 142.599 60.2253 142.599 60.2253Z" fill="#263238"/>
<path d="M138.511 68.0439C138.511 68.0439 138.546 70.9927 139.319 71.9505C139.715 72.452 138.943 73.5051 137.749 73.6957" stroke="#263238" stroke-linecap="round" stroke-linejoin="round"/>
<path d="M135.137 75.4062C135.22 75.7101 135.363 75.9946 135.557 76.2433C135.75 76.4919 135.991 76.7 136.265 76.8555C137.093 77.2116 139.61 77.0612 140.086 76.7653C140.563 76.4694 140.799 75.5015 140.799 75.5015" fill="white"/>
<path d="M135.137 75.4062C135.22 75.7101 135.363 75.9946 135.557 76.2433C135.75 76.4919 135.991 76.7 136.265 76.8555C137.093 77.2116 139.61 77.0612 140.086 76.7653C140.563 76.4694 140.799 75.5015 140.799 75.5015" stroke="#263238" stroke-linecap="round" stroke-linejoin="round"/>
<path d="M134.871 75.3457C136.934 75.7877 139.067 75.7877 141.13 75.3457" stroke="#263238" stroke-linecap="round" stroke-linejoin="round"/>
<path d="M143.772 60.3513C143.772 60.3513 142.418 62.3573 137.965 62.7936C138.305 62.4778 138.573 62.0931 138.753 61.6652C138.079 62.1585 137.314 62.5124 136.502 62.7061C135.69 62.8999 134.847 62.9296 134.024 62.7936C133.176 62.6788 132.313 62.7884 131.521 63.1113C130.729 63.4343 130.036 63.9593 129.51 64.634L128.758 68.0441C128.758 68.0441 126.095 65.0352 127.991 60.2009L127.309 60.7676C127.309 60.7676 128.066 54.3034 135.834 54.0677L134.891 53.501C134.891 53.501 142.629 51.8511 145.658 56.9462C145.658 56.9462 148.351 57.4477 149.013 62.1065L148.256 61.605C148.256 61.605 149.454 65.4715 146.967 68.7061C146.947 68.7161 143.772 63.596 143.772 60.3513Z" fill="#263238"/>
<path opacity="0.5" d="M167.052 38.3156H107.947C107.548 38.3156 107.165 38.1571 106.883 37.8749C106.601 37.5928 106.442 37.2101 106.442 36.8111C106.442 36.4121 106.601 36.0294 106.883 35.7473C107.165 35.4651 107.548 35.3066 107.947 35.3066H167.052C167.451 35.3066 167.834 35.4651 168.116 35.7473C168.398 36.0294 168.557 36.4121 168.557 36.8111C168.557 37.2101 168.398 37.5928 168.116 37.8749C167.834 38.1571 167.451 38.3156 167.052 38.3156Z" fill="#263238"/>
<g opacity="0.4">
<path d="M162.835 105.083H112.16C112.082 105.083 112.005 105.068 111.933 105.038C111.86 105.008 111.795 104.963 111.74 104.908C111.685 104.853 111.641 104.787 111.612 104.714C111.583 104.642 111.568 104.564 111.568 104.486C111.568 104.329 111.631 104.179 111.742 104.068C111.853 103.957 112.003 103.895 112.16 103.895H162.835C162.914 103.894 162.991 103.909 163.063 103.938C163.136 103.968 163.202 104.011 163.257 104.066C163.313 104.121 163.357 104.187 163.387 104.259C163.417 104.331 163.432 104.408 163.432 104.486C163.432 104.645 163.369 104.796 163.257 104.908C163.146 105.02 162.994 105.083 162.835 105.083Z" fill="black"/>
<path d="M157.82 108.263H117.175C117.097 108.263 117.019 108.247 116.947 108.217C116.875 108.187 116.81 108.143 116.755 108.088C116.7 108.032 116.656 107.966 116.627 107.894C116.597 107.822 116.582 107.744 116.583 107.666C116.583 107.509 116.645 107.359 116.756 107.248C116.867 107.137 117.018 107.074 117.175 107.074H157.82C157.898 107.074 157.976 107.088 158.048 107.118C158.121 107.147 158.187 107.191 158.242 107.246C158.298 107.301 158.342 107.366 158.372 107.438C158.402 107.51 158.417 107.588 158.417 107.666C158.417 107.824 158.354 107.976 158.242 108.088C158.13 108.2 157.979 108.263 157.82 108.263Z" fill="black"/>
</g>
<path opacity="0.3" d="M193.856 26.6514C193.856 27.1354 193.713 27.6085 193.444 28.011C193.175 28.4134 192.793 28.7271 192.346 28.9123C191.899 29.0976 191.406 29.146 190.932 29.0516C190.457 28.9572 190.021 28.7241 189.679 28.3818C189.336 28.0396 189.103 27.6035 189.009 27.1288C188.915 26.6541 188.963 26.162 189.148 25.7148C189.333 25.2677 189.647 24.8854 190.05 24.6165C190.452 24.3476 190.925 24.2041 191.409 24.2041C192.058 24.2041 192.681 24.4619 193.14 24.9209C193.599 25.3798 193.856 26.0023 193.856 26.6514Z" fill="black"/>
<path opacity="0.3" d="M186.836 26.6514C186.836 27.1354 186.692 27.6085 186.423 28.011C186.155 28.4134 185.772 28.7271 185.325 28.9123C184.878 29.0976 184.386 29.146 183.911 29.0516C183.437 28.9572 183 28.7241 182.658 28.3818C182.316 28.0396 182.083 27.6035 181.988 27.1288C181.894 26.6541 181.942 26.162 182.128 25.7148C182.313 25.2677 182.627 24.8854 183.029 24.6165C183.431 24.3476 183.905 24.2041 184.389 24.2041C185.038 24.2041 185.66 24.4619 186.119 24.9209C186.578 25.3798 186.836 26.0023 186.836 26.6514Z" fill="black"/>
<path opacity="0.3" d="M147.343 125.314C147.343 125.314 150.483 125.991 150.593 128.278C150.834 133.192 150.824 133.343 147.373 132.906C147.373 132.906 145.287 135.77 140.232 134.947L138.502 137.545H129.561C132.043 134.581 134.039 132.129 134.911 130.965C138.116 126.698 153.09 120.409 153.09 120.409C153.09 120.409 153.03 122.039 147.343 125.314Z" fill="black" fill-opacity="0.7"/>
</g>
<path d="M193.721 21.0859H81.2725C79.3476 21.0859 77.7871 22.6464 77.7871 24.5713V134.046C77.7871 135.971 79.3476 137.531 81.2725 137.531H193.721C195.646 137.531 197.206 135.971 197.206 134.046V24.5713C197.206 22.6464 195.646 21.0859 193.721 21.0859Z" stroke="#263238" stroke-linecap="round" stroke-linejoin="round"/>
<path d="M34.3826 208.13C34.3826 208.13 35.2652 201.706 35.9222 199.058C36.5791 196.41 40.4356 186.164 41.273 180.427L31.3737 172.539C31.3737 172.539 27.6426 191.781 27.6426 194.8L25.6016 201.375" fill="white"/>
<path d="M34.3826 208.13C34.3826 208.13 35.2652 201.706 35.9222 199.058C36.5791 196.41 40.4356 186.164 41.273 180.427L31.3737 172.539C31.3737 172.539 27.6426 191.781 27.6426 194.8L25.6016 201.375" stroke="#263238" stroke-linecap="round" stroke-linejoin="round"/>
<path d="M44.1972 187.684C42.1277 186.106 40.085 184.435 38.069 182.669C35.1554 180.162 32.317 177.434 29.5889 174.57C30.2489 171.37 31.069 168.205 32.0462 165.087C32.9777 162.155 34.965 159.672 37.6227 158.122L37.723 158.061L38.1894 157.801C38.4802 157.645 38.7611 157.505 39.0319 157.384C39.9229 156.974 40.8586 156.667 41.8201 156.472L43.9515 184.49L44.1972 187.684Z" fill="#2986CE"/>
<mask id="mask2_971_1655" style="mask-type:luminance" maskUnits="userSpaceOnUse" x="29" y="156" width="16" height="32">
<path d="M44.1972 187.683C42.1277 186.105 40.085 184.434 38.069 182.668C35.1554 180.161 32.317 177.433 29.5889 174.569C30.2489 171.369 31.069 168.204 32.0462 165.086C32.9777 162.154 34.965 159.671 37.6227 158.121L37.723 158.06L38.1894 157.8C38.4802 157.644 38.7611 157.504 39.0319 157.383C39.9229 156.973 40.8586 156.666 41.8201 156.471L43.9515 184.489L44.1972 187.683Z" fill="white"/>
</mask>
<g mask="url(#mask2_971_1655)">
<path opacity="0.3" d="M44.1972 187.683C42.1277 186.105 40.085 184.434 38.069 182.668C35.1554 180.161 32.317 177.433 29.5889 174.569C30.2489 171.369 31.069 168.204 32.0462 165.086C32.9777 162.154 34.965 159.671 37.6227 158.121L37.723 158.06L38.1894 157.8C38.4802 157.644 38.7611 157.504 39.0319 157.383C39.9229 156.973 40.8586 156.666 41.8201 156.471L43.9515 184.489L44.1972 187.683Z" fill="black" fill-opacity="0.7"/>
</g>
<path d="M44.1972 187.684C42.1277 186.106 40.085 184.435 38.069 182.669C35.1554 180.162 32.317 177.434 29.5889 174.57C30.2489 171.37 31.069 168.205 32.0462 165.087C32.9777 162.155 34.965 159.672 37.6227 158.122L37.723 158.061L38.1894 157.801C38.4802 157.645 38.7611 157.505 39.0319 157.384C39.9229 156.974 40.8586 156.667 41.8201 156.472L43.9515 184.49L44.1972 187.684Z" stroke="#263238" stroke-linecap="round" stroke-linejoin="round"/>
<path d="M33.8809 172.113C33.8809 172.113 35.0343 179.952 40.33 182.94" stroke="#263238" stroke-linecap="round" stroke-linejoin="round"/>
<path d="M86.9735 178.472C86.9735 182.484 83.7088 198.712 83.7088 198.712L83.5985 212.969C83.5985 212.969 76.8434 215.211 65.9411 215.211C52.5815 215.211 46.6639 211.635 46.1424 211.299L46.1023 211.274L48.1082 201.39C48.1082 201.39 37.577 176.536 37.3714 175.683C37.0454 174.42 36.7646 173.141 36.5389 171.867C35.9525 168.925 35.7988 165.912 36.0825 162.925C36.2387 161.239 36.7351 159.601 37.5419 158.111C37.5987 158.011 37.6589 157.911 37.7224 157.81C37.9942 157.372 38.312 156.963 38.6702 156.592L38.7655 156.491C39.096 156.161 39.4496 155.854 39.8236 155.574C39.949 155.478 40.0794 155.388 40.2098 155.298L40.5357 155.077L40.7464 154.942L41.0222 154.771L41.4484 154.526C49.3669 150.138 64.1056 150.815 64.1056 150.815C64.2681 150.762 64.4366 150.73 64.6071 150.719H64.6422C64.9366 150.702 65.2319 150.726 65.5198 150.789C69.1907 151.502 75.9107 157.494 80.8603 164.33C82.3469 166.347 83.6588 168.488 84.782 170.729C86.136 173.457 86.9735 176.145 86.9735 178.472Z" fill="#2986CE"/>
<path opacity="0.3" d="M86.8828 177.098C84.2236 176.273 81.713 175.028 79.4458 173.412C75.8902 174.079 72.46 170.538 71.5674 168.643L83.232 167.891C83.7987 168.823 84.3102 169.761 84.7665 170.689C85.817 172.695 86.5319 174.86 86.8828 177.098Z" fill="black" fill-opacity="0.7"/>
<path opacity="0.3" d="M50.4802 203.928C50.4802 203.928 53.103 215.151 46.1424 211.285L46.1023 211.26L48.1082 201.375C48.1082 201.375 37.577 176.522 37.3714 175.669C37.0454 174.405 36.7646 173.127 36.5389 171.853C35.954 168.915 35.8003 165.908 36.0825 162.926C36.2387 161.239 36.7352 159.602 37.5419 158.112C37.5987 158.012 37.6589 157.911 37.7224 157.811C37.9942 157.372 38.312 156.964 38.6702 156.592L38.7655 156.492C39.096 156.162 39.4496 155.855 39.8236 155.574C39.949 155.479 40.0794 155.389 40.2098 155.299L40.5358 155.078L40.7464 154.943L41.0222 154.772L41.4485 154.526C48.7351 155.088 56.8341 158.538 58.3987 165.619C58.3987 165.619 57.7368 176.466 55.3547 180.433C53.8753 182.906 53.3738 194.45 60.6905 191.11C58.4037 202.634 50.4802 203.928 50.4802 203.928Z" fill="black" fill-opacity="0.7"/>
<path d="M46.1023 211.259L48.1082 201.375C48.1082 201.375 37.577 176.521 37.3714 175.668C37.0454 174.405 36.7646 173.126 36.5389 171.852C35.954 168.914 35.8003 165.907 36.0825 162.925C36.2387 161.239 36.7352 159.601 37.5419 158.111C37.5987 158.011 37.6589 157.911 37.7224 157.81C37.9942 157.372 38.312 156.963 38.6702 156.592L38.7655 156.491C39.096 156.161 39.4496 155.854 39.8236 155.574C47.1253 150.057 64.1057 150.815 64.1057 150.815C64.2681 150.762 64.4366 150.73 64.6071 150.719H64.6423C64.9366 150.702 65.232 150.726 65.5199 150.789C69.1907 151.502 75.9107 157.494 80.8604 164.33C82.3469 166.347 83.6589 168.488 84.782 170.729C86.1511 173.502 86.9885 176.185 86.9885 178.497C86.9885 182.509 83.7239 198.737 83.7239 198.737L83.6135 212.994" stroke="#263238" stroke-linecap="round" stroke-linejoin="round"/>
<path d="M71.4573 128.103C70.8605 127.361 68.1976 125.595 68.1976 125.595C67.6961 122.13 67.3852 117.506 63.7945 113.921C58.885 109.021 47.5564 110.571 43.8454 117.877C36.4384 132.476 50.4399 146.227 67.5758 143.318C69.0351 143.072 70.018 141.643 70.2186 134.858L70.675 133.91C70.675 133.91 70.2036 132.29 70.0581 131.478C70.9207 130.645 71.8886 128.644 71.4573 128.103Z" fill="white" stroke="#263238" stroke-linecap="round" stroke-linejoin="round"/>
<path d="M67.2452 120.173C66.8057 120.888 66.4681 121.661 66.2422 122.47" stroke="#263238" stroke-linecap="round" stroke-linejoin="round"/>
<path d="M67.5059 126.703C67.5059 126.703 68.6994 127.425 69.241 129.712" stroke="#263238" stroke-linecap="round" stroke-linejoin="round"/>
<path d="M70.5194 134.251C70.5194 134.251 70.0531 135.003 68.1123 134.783" stroke="#263238" stroke-linecap="round" stroke-linejoin="round"/>
<path d="M65.4306 112.025C65.4306 112.025 69.944 110.164 68.6401 118.991C67.3362 127.817 60.8119 138.313 55.3105 136.347L55.4058 135.56C55.4058 135.56 60.2201 137.46 64.2721 129.091C68.3241 120.721 67.9882 113.043 65.6713 114.392L65.4306 112.025Z" fill="#263238"/>
<path d="M65.0236 125.705C65.0236 125.705 63.2985 130.254 61.9194 131.723C61.9194 131.723 61.3627 129.983 60.0338 129.968C58.7049 129.953 57.5264 126.417 57.5264 126.417L65.0236 125.705Z" fill="#263238"/>
<path d="M63.1681 125.916C63.1681 125.916 59.9987 133.644 62.3206 139.612C64.6425 145.579 71.1869 150.063 71.1869 150.063L69.0756 149.105C69.0756 149.105 63.5191 145.449 61.5784 139.12C60.438 135.106 60.4102 130.857 61.4981 126.829L63.1681 125.916Z" fill="#263238"/>
<path d="M37.0509 115.631C37.0509 115.631 31.7703 117.792 32.0561 125.62C32.342 133.449 37.7079 140.254 38.7861 150.233C39.7239 158.914 30.2608 166.557 39.8442 176.702C39.8442 176.702 35.6468 170.183 36.9256 162.891C38.2044 155.599 42.5924 156.648 39.3377 144.777C36.0831 132.907 29.1776 125.886 36.3288 118.319L37.0509 115.631Z" fill="#263238"/>
<path d="M67.842 148.057C58.1834 142.671 60.8212 131.171 60.8212 131.171C68.0878 125.816 69.0557 115.786 67.7217 113.203C66.3877 110.62 63.4791 111.503 63.4791 111.503C51.8998 105.987 37.6475 111.137 34.9395 119.246C31.4742 129.632 37.3967 137.611 40.2903 146.326C42.888 154.16 36.8702 155.579 36.8902 163.377C35.7519 177.92 50.6661 183.993 50.6661 183.993C50.2735 183.757 49.9486 183.423 49.7228 183.024C49.497 182.625 49.378 182.175 49.3773 181.716C49.3773 180.127 53.4443 180.127 56.1223 175.648C58.3439 171.932 58.5194 162.87 59.2616 158.487C60.2646 154.521 61.5183 151.351 64.111 150.775C70.9412 149.245 76.8337 155.875 76.8337 155.875C76.8337 155.875 77.5057 153.443 67.842 148.057Z" fill="#263238"/>
<g opacity="0.3">
<path d="M65.0244 113.094C66.0775 114.944 58.1741 124.733 55.3106 133.193C52.4471 141.653 55.3607 146.613 55.3607 146.613" stroke="white" stroke-linecap="round" stroke-linejoin="round"/>
<path d="M47.3177 115.63C47.3177 115.63 38.7172 123.037 43.6117 136.582C48.5062 150.127 46.3398 159.465 44.71 166.767C43.0801 174.068 44.4041 176.576 46.3899 178.562" stroke="white" stroke-linecap="round" stroke-linejoin="round"/>
<path d="M58.1399 137.987C58.1399 137.987 62.7536 143.183 59.5892 150.69C56.4248 158.197 54.7047 163.563 53.5112 169.406C52.3176 175.248 49.6748 176.702 49.6748 176.702" stroke="white" stroke-linecap="round" stroke-linejoin="round"/>
<path d="M58.4054 111.859C58.4054 111.859 53.6463 111.639 51.3846 117.722C49.1229 123.805 51.2542 134.316 50.4618 137.987" stroke="white" stroke-linecap="round" stroke-linejoin="round"/>
<path d="M46.1036 111.859C46.1036 111.859 39.1229 112.15 36.8963 121.804C34.6697 131.458 41.3746 139.572 42.0867 147.094C42.7988 154.616 38.5763 161.582 38.832 166.767C39.0878 171.953 42.0867 174.691 42.0867 174.691" stroke="white" stroke-linecap="round" stroke-linejoin="round"/>
</g>
<path d="M89.7515 151.572C89.7515 151.572 105.027 152.71 107.208 152.71C109.39 152.71 129.625 132.651 133.195 128.704C136.766 124.758 152.252 119.798 152.252 119.798C152.252 119.798 152.056 121.438 146.104 124.176C146.104 124.176 149.168 125.129 149.077 127.415C148.882 132.335 148.857 132.485 145.457 131.738C145.457 131.738 143.125 134.411 138.165 133.142C138.165 133.142 126.265 147.946 121.004 154.706C115.744 161.466 113.567 163.733 111.581 164.47C109.595 165.208 85.3936 166.782 85.3936 166.782L89.7515 151.572Z" fill="white" stroke="#263238" stroke-linecap="round" stroke-linejoin="round"/>
<path d="M70.5206 169.57C78.4441 174.53 91.7336 168.381 91.7336 168.381C91.7336 168.381 94.1156 157.589 91.7336 150.684C91.7336 150.684 75.0691 147.439 65.9421 150.569C65.4668 150.748 65.0344 151.025 64.6726 151.382C64.3107 151.739 64.0274 152.167 63.8408 152.64" fill="#2986CE"/>
<path d="M70.5206 169.57C78.4441 174.53 91.7336 168.381 91.7336 168.381C91.7336 168.381 94.1156 157.589 91.7336 150.684C91.7336 150.684 75.0691 147.439 65.9421 150.569C65.4668 150.748 65.0344 151.025 64.6726 151.382C64.3107 151.739 64.0274 152.167 63.8408 152.64" stroke="#263238" stroke-linecap="round" stroke-linejoin="round"/>
<path d="M89.626 150.323C90.9534 155.877 91.0629 161.653 89.9469 167.253" stroke="#263238" stroke-linecap="round" stroke-linejoin="round"/>
<path d="M86.9735 157.264C86.9735 157.264 81.4572 166.26 74.4062 167.584" stroke="#263238" stroke-linecap="round" stroke-linejoin="round"/>
<path d="M81.8439 171.235C81.8439 171.235 78.178 175.583 73.6797 175.583" stroke="#263238" stroke-linecap="round" stroke-linejoin="round"/>
<path d="M78.3133 171.506C78.6572 172.357 78.6572 173.308 78.3133 174.159C78.3133 174.159 78.9352 176.771 77.7617 180.538C76.8992 183.316 76.9393 191.194 76.5381 196.736C76.5381 196.736 77.8119 203.421 77.7617 213.47" stroke="#263238" stroke-linecap="round" stroke-linejoin="round"/>
<path d="M69.832 149.652C69.832 149.652 76.6573 149.201 80.6892 153.96" stroke="#263238" stroke-linecap="round" stroke-linejoin="round"/>
<path d="M147.83 128.765C147.83 128.765 146.827 130.5 145.649 130.896C145.649 130.896 145.558 132.706 142.529 133.313" stroke="#263238" stroke-linecap="round" stroke-linejoin="round"/>
<path d="M146.991 129.902C147.278 130.07 147.495 130.335 147.603 130.65" stroke="#263238" stroke-linecap="round" stroke-linejoin="round"/>
<path d="M48.0889 201.375C48.0889 201.375 55.1398 210.567 61.8597 207.262" stroke="#263238" stroke-linecap="round" stroke-linejoin="round"/>
<path d="M65.9406 182.339C65.9406 182.339 61.1815 196.947 50.4697 196.285" stroke="#263238" stroke-linecap="round" stroke-linejoin="round"/>
</svg>
