<svg width="33" height="30" viewBox="0 0 33 30" fill="none" xmlns="http://www.w3.org/2000/svg">
<path d="M32.4098 26.1857C32.4071 25.9775 32.3193 25.7787 32.1656 25.6329C32.0119 25.4871 31.8048 25.4059 31.5894 25.4072H2.87634C2.66011 25.4072 2.45273 25.4903 2.29983 25.6381C2.14693 25.7859 2.06104 25.9864 2.06104 26.1954V27.2676H4.47658V29.0643C4.47787 29.1237 4.50283 29.1802 4.54624 29.2222C4.58964 29.2642 4.64815 29.2883 4.70952 29.2895H6.51232C6.57369 29.2883 6.6322 29.2642 6.6756 29.2222C6.71901 29.1802 6.74397 29.1237 6.74526 29.0643V27.2578H27.5078V29.0545C27.5103 29.1135 27.5356 29.1694 27.5788 29.2111C27.6219 29.2528 27.6798 29.2773 27.7407 29.2797H29.5486C29.6096 29.2773 29.6674 29.2528 29.7105 29.2111C29.7537 29.1694 29.779 29.1135 29.7815 29.0545V27.2578H32.4098V26.1857Z" fill="white"/>
<path d="M7.74841 24.3861H28.1716C28.206 24.3609 28.2382 24.3331 28.2679 24.3028C28.5024 24.0597 28.6328 23.7394 28.6325 23.4069C28.6372 23.2462 28.6091 23.0861 28.5498 22.9359C28.4905 22.7856 28.4012 22.6482 28.2869 22.5313C28.1726 22.4145 28.0356 22.3205 27.8838 22.2549C27.7319 22.1892 27.5682 22.1532 27.4019 22.1487H10.5843C10.2517 22.1503 9.92298 22.0801 9.6221 21.9431L9.47018 21.8648C9.41317 21.8351 9.35895 21.8007 9.30813 21.762C9.25192 21.732 9.2007 21.6941 9.15621 21.6494L9.11569 21.5906C8.88902 21.3999 8.70469 21.1667 8.57384 20.9052L3.84404 11.7013C3.75686 11.5132 3.62835 11.3457 3.46744 11.2104C3.30653 11.0751 3.11708 10.9753 2.91226 10.918C2.71841 10.8668 2.51545 10.8565 2.31712 10.8878C2.11879 10.919 1.92973 10.9911 1.76272 11.0991C1.43509 11.314 1.2018 11.6389 1.10821 12.0108C1.01462 12.3827 1.06741 12.7749 1.25632 13.1113L7.43444 24.0336C7.51731 24.1677 7.62353 24.2869 7.74841 24.3861Z" fill="white"/>
<path d="M9.49534 20.4591C9.6097 20.6676 9.7861 20.8381 10.0017 20.9487V8.52832H8.94336V19.3723L9.49534 20.4591Z" fill="white"/>
<path d="M13.2877 7.5149H18.924C18.6809 3.40251 15.521 0.117497 11.647 0C12.7611 1.15049 13.4852 3.17731 13.4852 5.53703C13.4819 6.20076 13.4157 6.8628 13.2877 7.5149Z" fill="white"/>
<path d="M6.71452 7.51486H12.2141C12.3527 6.87081 12.4206 6.21441 12.4166 5.55658C12.4166 2.55062 11.0645 0.0146484 9.46428 0.0146484C7.86405 0.0146484 6.50689 2.55062 6.50689 5.55658C6.5046 6.21458 6.57419 6.87098 6.71452 7.51486Z" fill="white"/>
<path d="M5.45902 5.53703C5.45902 3.17731 6.18318 1.13091 7.2922 0C3.39796 0.122392 0.243073 3.40741 0 7.5149H5.64133C5.51837 6.86235 5.45735 6.20031 5.45902 5.53703Z" fill="white"/>
</svg>
